<svg xmlns="http://www.w3.org/2000/svg" xmlns:xlink="http://www.w3.org/1999/xlink" version="1.1" id="Calque_1" x="0px" y="0px" width="64.1025641026px" height="100px" viewBox="0 0 100 156.775" enable-background="new 0 0 100 156.775" xml:space="preserve">
<path fill="#000000" d="M25.311,115.932v8.241l49.394-9.124v-8.229L25.311,115.932z M25.311,134.807l49.394-9.118v-8.236  l-49.394,9.115V134.807z M28.682,136.579c0,0.109-0.021,0.204-0.021,0.309c0,2.002,0.331,3.917,0.913,5.735l0,0v0.006  c0.074,0.213,0.168,0.417,0.242,0.624c0.125,0.355,0.254,0.713,0.411,1.047c0.026,0.077,0.056,0.155,0.083,0.222l0.016-0.006  c3.231,7.2,10.888,12.259,19.835,12.259c9.715,0,17.921-5.965,20.581-14.152H40.607l31.057-5.735l3.041-0.554v-8.242l-4.821,0.894  L28.682,136.579z M99.735,42.507C97.423,17.482,79.575,0,50.002,0C20.428,0,2.581,17.509,0.263,42.507  c-1.88,25.299,6.554,33.168,17.752,49.483c3.573,5.16,5.825,10.785,7.271,16.075h15.003c-0.821-3.446-0.547-6.779-1.576-9.731  c-1.339-4.016-2.991-7.977-4.433-12.08c-1.946-5.541-3.743-11.548-3.747-17.677c0-2.617,0.334-5.256,1.136-7.859  c2.037-6.726,7.757-9.734,12.972-9.697c0.529,0,1.053,0.03,1.578,0.09c1.314-1.222,2.863-2.168,4.528-2.728  c1.491-0.488,2.883-0.731,4.185-0.731c4.664-0.028,7.717,3.177,9.299,7.058c1.645,3.908,2.168,8.705,2.172,12.943  c0,1.859-0.103,3.607-0.271,5.127c-0.832,7.396-2.475,14.698-4.096,21.716c-0.875,3.658-3.127,8.676-3.103,12.285  c0,0.462,0.045,0.884,0.119,1.285h15.662c1.446-5.29,3.697-10.915,7.268-16.075C93.188,75.675,101.62,67.806,99.735,42.507z   M59.458,93.9c1.615-7.007,3.229-14.214,4.041-21.417c0.153-1.416,0.258-3.075,0.258-4.832c0.005-4.007-0.536-8.545-1.967-11.915  c-1.481-3.396-3.507-5.412-6.856-5.438c-0.968,0-2.084,0.182-3.357,0.602c-0.725,0.229-1.429,0.573-2.094,1.006  c3.556,1.363,6.31,4.262,6.338,8.432c0,1.724-0.484,3.576-1.512,5.517c-1.08,2.101-2.912,3.241-4.754,3.213  c-3.377-0.1-6.187-3.009-7.112-6.391c-0.223-0.859-0.331-1.727-0.331-2.581c0.021-2.312,0.75-4.521,1.958-6.41  c-4.109,0.223-8.229,2.507-9.868,7.807c-0.719,2.322-1.017,4.692-1.017,7.085c-0.004,5.603,1.677,11.345,3.592,16.8  c1.407,4.006,3.068,7.981,4.452,12.114c1.259,3.89,0.909,7.54,1.792,10.574h13.36c-0.054-0.426-0.095-0.854-0.095-1.285  C56.32,102.254,58.736,97.139,59.458,93.9z M49.556,66.413c0.828-0.025,1.593-0.334,2.41-1.803c0.864-1.634,1.207-3.053,1.207-4.274  c-0.007-3.227-2.545-5.585-6.003-6.379c-1.471,1.738-2.429,3.948-2.404,6.137c0,0.64,0.076,1.281,0.239,1.918  C45.569,64.414,47.975,66.512,49.556,66.413z"/>
</svg>