<?xml version="1.0" encoding="UTF-8"?>
<svg width="16px" height="16px" viewBox="0 0 16 16" version="1.1" xmlns="http://www.w3.org/2000/svg" xmlns:xlink="http://www.w3.org/1999/xlink">
    <!-- Generator: Sketch 43.2 (39069) - http://www.bohemiancoding.com/sketch -->
    <title>safari-pinned-tab</title>
    <desc>Created with Sketch.</desc>
    <defs></defs>
    <g id="Page-1" stroke="none" stroke-width="1" fill="none" fill-rule="evenodd">
        <g id="safari-pinned-tab" transform="translate(1.000000, 1.000000)" fill-rule="nonzero" stroke="#FFC900">
            <g id="Group">
                <path d="M4.67307692,0.0346153846 C3.85,0.138461538 3.30769231,0.561538462 3.01923077,1.31923077 C2.96538462,1.46153846 2.92307692,1.60384615 2.92307692,1.63461538 C2.92307692,1.68461538 3.19230769,1.69230769 4.98076923,1.69230769 L7.03846154,1.69230769 L7.01538462,1.58461538 C6.78461538,0.611538462 6.17307692,0.0846153846 5.19230769,0.0230769231 C5.03461538,0.0153846154 4.8,0.0192307692 4.67307692,0.0346153846 Z M2.88461538,2.80769231 L2.88461538,3.15384615 L7.03846154,3.15384615 L7.03846154,2.46153846 L2.88461538,2.46153846 L2.88461538,2.80769231 Z M2.69230769,4.23076923 L2.69230769,4.57692308 L7.19615385,4.57692308 L7.18461538,4.23846154 L7.17307692,3.90384615 L4.93461538,3.89230769 L2.69230769,3.88461538 L2.69230769,4.23076923 Z M2.40769231,5.75769231 C2.18846154,6.42307692 2.05384615,6.66153846 1.31153846,7.71153846 C0.596153846,8.71153846 0.323076923,9.23461538 0.153846154,9.90769231 C-0.0115384615,10.5846154 -0.0346153846,11.5307692 0.0961538462,12.2923077 C0.342307692,13.7038462 1.15384615,14.8230769 2.37692308,15.4384615 C3.60384615,16.0576923 5.29230769,16.1615385 6.73076923,15.7115385 C7.11538462,15.5884615 7.73076923,15.2846154 8.01153846,15.0730769 C9.21923077,14.1692308 9.83076923,12.7269231 9.75769231,10.9615385 C9.70769231,9.8 9.45769231,9.10769231 8.67692308,7.96923077 C8.48461538,7.68846154 8.21538462,7.3 8.08461538,7.10384615 C7.78846154,6.67307692 7.56923077,6.25 7.4,5.78846154 L7.27692308,5.44230769 L4.89615385,5.43076923 L2.51538462,5.42307692 L2.40769231,5.75769231 L2.40769231,5.75769231 Z M4.13076923,5.96923077 C4.08076923,6.13461538 3.37692308,8.33461538 2.95769231,9.64615385 C2.72307692,10.3730769 2.53846154,10.9769231 2.55,10.9846154 C2.55769231,10.9961538 2.61538462,10.9846154 2.67692308,10.9576923 C3.01538462,10.8307692 3.56923077,10.8461538 3.97692308,11.0038462 L4.16923077,11.0769231 L4.38076923,10.9692308 C4.56923077,10.8769231 4.64230769,10.8653846 4.96153846,10.8653846 C5.25,10.8653846 5.36538462,10.8846154 5.5,10.9461538 L5.67307692,11.0230769 L5.84615385,10.9461538 C6.10769231,10.8307692 6.58846154,10.8423077 6.95384615,10.9692308 C7.23461538,11.0692308 7.23461538,11.0692308 7.20769231,10.9884615 C7.19230769,10.9423077 6.83076923,9.77692308 6.40384615,8.40384615 L5.62692308,5.90384615 L5.74230769,5.89230769 C5.80769231,5.88461538 5.87307692,5.9 5.88846154,5.93076923 C5.90769231,5.95769231 6.33076923,7.21538462 6.82692308,8.72307692 C7.42307692,10.5269231 7.73076923,11.5115385 7.72307692,11.5884615 C7.70769231,11.7576923 7.61153846,11.7615385 7.43461538,11.6076923 C7.23846154,11.4307692 7.13846154,11.3730769 6.86538462,11.2730769 C6.62307692,11.1807692 6.22307692,11.15 6.02692308,11.2038462 L5.91923077,11.2346154 L6.01923077,11.4038462 C6.20384615,11.7153846 6.18461538,12.1730769 5.97692308,12.4230769 C5.89615385,12.5192308 5.85,12.5384615 5.71538462,12.5384615 C5.62692308,12.5384615 5.51923077,12.5115385 5.47692308,12.4807692 C5.25384615,12.3269231 5.18461538,11.8 5.34230769,11.4461538 C5.38461538,11.3423077 5.42307692,11.2538462 5.42307692,11.25 C5.42307692,11.2461538 5.36538462,11.2153846 5.3,11.1884615 C5.13076923,11.1192308 4.74615385,11.1269231 4.56538462,11.2038462 L4.42307692,11.2653846 L4.54230769,11.4384615 C4.67692308,11.6269231 4.71923077,11.8692308 4.67307692,12.1769231 C4.62307692,12.5076923 4.32307692,12.6846154 4.08461538,12.5153846 C3.85769231,12.3576923 3.75,11.8807692 3.86153846,11.5346154 C3.9,11.4192308 3.91538462,11.3230769 3.89230769,11.3 C3.87692308,11.2846154 3.73076923,11.2423077 3.57307692,11.2076923 C3.08076923,11.1038462 2.7,11.1961538 2.37307692,11.4961538 C2.19615385,11.6615385 2.08846154,11.6923077 2.05384615,11.5961538 C2.02692308,11.5307692 1.96153846,11.7423077 3.03461538,8.46923077 L3.88846154,5.88461538 L4.02307692,5.88461538 C4.14615385,5.88461538 4.15769231,5.89230769 4.13076923,5.96923077 L4.13076923,5.96923077 Z" id="Shape"></path>
            </g>
        </g>
    </g>
</svg>