<svg xmlns="http://www.w3.org/2000/svg" xmlns:xlink="http://www.w3.org/1999/xlink" width="236" height="151" viewBox="0 0 236 151">
    <title>cheering-people</title>
    <defs>
        <path id="a" d="M0 0h271v172H0z"/>
    </defs>
    <g fill="none" fill-rule="evenodd" transform="translate(-18 -21)">
        <mask id="b" fill="#fff">
            <use xlink:href="#a"/>
        </mask>
        <g mask="url(#b)">
            <path fill="#FFB89E" d="M251.548 45.816c2.61 1.86 2.051 4.47.75 6.89-1.3 2.42-9.489 21.76-12.47 26.04-2.969 4.28-20.649 32.56-20.649 32.56l-16.93 30.14c-1.86-1.11-3.35-6.51-3.35-6.51s1.86-7.07 1.68-10.6c-.19-3.54-2.05-9.87-9.86-9.31-7.82.56-10.17 6.51-9.61 13.58.56 7.07 4.4 10.05 4.4 10.05s.74 2.98-.19 4.47c-.93 1.48-7.81 8.93-10.23 12.27-2.42 3.35-6.14 13.77-10.23 12.28-4.1-1.48-5.03-25.86-4.47-28.09.56-2.23 2.61-7.81 2.61-9.49 0-1.34-1.21-5.02-3.71-6.22.57-1.92 11.08-37.55 15.21-53.48.86 2.06 4.88 11.65 6.54 14.31 1.86 2.97 5.77 6.69 8.37 5.39 2.61-1.3 2.61-6.14 2.61-6.14s-.19-8.37.74-10.97c.93-2.61 5.14-14.7 14.07-11.54s5.47 12.09 4.35 14.89c-1.12 2.79-4.84 8-5.39 10.41-.56 2.42.55 5.4 3.9 6.14 3.35.75 6.89-3.35 6.89-3.35s15.44-23.44 17.3-25.86c1.86-2.41 4.84-6.88 7.07-9.86 2.23-2.97 8-9.86 10.6-8M167.269 56.426l.21.03c-.311 1.98-.57 3.49-.76 4.25-.91 3.6-4.12 11.34-6.4 16.24l-.12-.06s-4.83-14.88-5.201-24.93c-.38-10.04 1.11-24.18 4.65-23.07 3.53 1.12 3.42 9.49 4.16 13.77.74 4.28 3.46 13.77 3.46 13.77"/>
            <path fill="#FFF" d="M159.288 123.876c-.609-.29-1.3-.43-2.06-.36-3.91.37-6.7 6.4-6.509 11.79.18 5.4 4.65 38.14 4.65 38.14s.74 7.26 4.09 8.93c3.35 1.68 7.63-.37 11.35-2.05 3.72-1.67 7.44-5.95 10.6-4.27 3.17 1.67 2.42 7.81 1.68 11.53-.7 3.47-6.73 21.19-7.54 23.55-7.78 3.7-16.32 6.25-25.33 6.55-8.35.28-16.22-.99-23.41-3.13-1.65-3.29-13.54-27.27-16.68-38.67-3.37-12.25-6.3-36.11-1.27-40.49 5.02-4.37 15.07 1.4 17.86 2.8 2.79 1.39 7.81 2.69 10.32 1.11 2.51-1.58-1.02-17.39-2.79-23.72-1.77-6.32-11.81-22.7-13.12-24.28-1.3-1.58-3.34-5.11-6.97-3.35-3.63 1.77-3.63 3.82-2.79 5.31.83 1.48 5.86 5.3 5.86 5.3s13.21 25.02 9.77 27.9c-3.13 2.62-17.38-9.86-22.89-12.6-1.31-5.97-16.3-74.35-16.65-77.91-.37-3.72-.56-9.11 2.98-9.67 3.53-.56 3.9 3.49 5.02 5.53 1.12 2.05 2.37 7.77 2.93 11.31.56 3.53 7.68 23.9 10.09 28.37 2.42 4.46 7.63 7.63 10.42 8.74 2.79 1.12 4.28-.37 5.58-1.67 1.31-1.3 1.12-7.07 1.12-7.07s-3.53-7.63-2.79-13.77c.74-6.14 7.44-8.56 15.44-6.51 8 2.05 7.93 10.74 7 14.84-.93 4.09-2.72 6.37-4.02 8.04-1.3 1.68-1.12 4.84-.93 6.7.18 1.86 2.35 7.26 7.56 6.88 5.21-.37 9-3.9 11.04-7.81.39-.75.88-1.76 1.42-2.92 2.28-4.9 5.49-12.64 6.4-16.24.19-.76.45-2.27.76-4.25 1.5-9.73 4.07-30.92 4.07-30.92s.38-3.9 3.91-4.27c3.54-.38 4.02 8.39 3.84 10.25-.19 1.86-1.79 24.05-3.28 32.42-.22 1.27-.77 3.53-1.52 6.46-4.13 15.93-14.64 51.56-15.21 53.48"/>
            <path fill="#323C59" d="M157.229 123.516a3.9 3.9 0 0 1 2.06.36c2.5 1.2 3.71 4.88 3.71 6.22 0 1.68-2.05 7.26-2.61 9.49-.56 2.23.37 26.61 4.47 28.09 4.09 1.49 7.809-8.93 10.229-12.28 2.42-3.34 9.3-10.79 10.23-12.27.93-1.49.19-4.47.19-4.47s-3.84-2.98-4.4-10.05c-.56-7.07 1.79-13.02 9.61-13.58 7.81-.56 9.67 5.77 9.86 9.31.18 3.53-1.68 10.6-1.68 10.6s1.49 5.4 3.35 6.51c1.86 1.12 10.61-2.11 15.63-5.46 5.02-3.35 16.74-22.63 18.98-30.82 2.23-8.18 4.44-14.44 5.07-17.14.62-2.69 1.62-9.83 5.34-8.72 3.73 1.12 3.73 4.35 4.1 7.14.37 2.79-1.49 14.63-4.28 22.07-2.79 7.44-17.49 38.88-17.49 38.88l-12.47 28.84s-16.97 23.2-41.58 34.9c.81-2.36 6.84-20.08 7.54-23.55.74-3.72 1.49-9.86-1.68-11.53-3.16-1.68-6.88 2.6-10.6 4.27-3.72 1.68-8 3.73-11.35 2.05-3.35-1.67-4.09-8.93-4.09-8.93s-4.47-32.74-4.65-38.14c-.19-5.39 2.6-11.42 6.51-11.79"/>
            <path fill="#56638C" d="M104.109 113.866c5.51 2.74 19.76 15.22 22.89 12.6 3.44-2.88-9.77-27.9-9.77-27.9s-5.03-3.82-5.86-5.3c-.84-1.49-.84-3.54 2.79-5.31 3.63-1.76 5.67 1.77 6.97 3.35 1.31 1.58 11.35 17.96 13.12 24.28 1.77 6.33 5.299 22.14 2.79 23.72-2.51 1.58-7.53.28-10.32-1.11-2.79-1.4-12.84-7.17-17.86-2.8-5.03 4.38-2.1 28.24 1.27 40.49 3.14 11.4 15.03 35.38 16.68 38.67-25.12-7.46-41.95-25.57-41.95-25.57s-6.7-19.26-9.49-27.35c-2.79-8.1-11.44-28.47-14.51-30.42-3.07-1.95-6.96-1.93-12.17-2.12-5.21-.18-8.58 1.28-14.11-3.23-5.54-4.51-11.12-30.93-11.12-30.93s-5.21-29.77-5.21-35.35c0-5.58 2.42-13.02 8.28-13.21 5.86-.18 5.86 4.65 5.86 6.42 0 1.77-3.53 7.16-4.19 10.6-.651 3.45 8.18 42.24 10.61 44.94 2.61 2.89 24.46 5.95 27.07 5.3 2.6-.65 5.02-2.89 5.02-5.58 0-2.7-6.32-9.59-7.53-16.47-1.21-6.88 1.39-11.16 7.25-12 5.86-.84 11.33 3.14 12.45 7.14 1.11 4 1.41 20.67 4.3 22.72 2.88 2.05 11.44 3.35 15.35 3.91.36.05.829.23 1.39.51"/>
        </g>
    </g>
</svg>
