<svg xmlns="http://www.w3.org/2000/svg" width="250" height="155" viewBox="0 0 250 155">
    <title>describe-issue</title>
    <g fill="none" fill-rule="evenodd">
        <path stroke="#56638C" stroke-width="1.2" d="M221.305 77.34c0 42.383-44.951 76.74-100.402 76.74-55.45 0-100.401-34.357-100.401-76.74C20.502 34.96 65.452.6 120.903.6c55.451 0 100.402 34.36 100.402 76.74z"/>
        <path fill="#56638C" d="M131.082 17.854c51.442 0 93.137 29.582 93.137 66.06 0 36.48-41.695 66.063-93.137 66.063-15.999 0-31.058-2.872-44.219-7.907-.025-.997-.264-11.318 1.225-15.572 1.576-4.483 7.38-8.495 7.38-8.495s22.393 6.921 26.756 7.15c4.363.228 8.377-.06 9.831-.673 1.455-.614 2.945-3.244 2.993-5.817.06-2.57-2.067-3.94-2.007-5.274.048-1.345 1.79-3.22 1.79-3.22s-3.328.169-7.295-1.118c-3.978-1.285-6.792-4.012-6.792-4.012s6.01-.229 8.86-1.347c2.848-1.116 6.116-3.353 6.116-3.353s-1.058-6.09-1.117-7.376c-.06-1.287-.108-2.74 1.347-4.253.252-.253.649-.59 1.13-.95 2.32-1.766 6.67-4.41 6.67-4.41s-13.09-10.056-13.09-19.116c0-9.048 4.617-16.653 3.835-24.14-.53-5.07-4.136-14.634-13.137-21.867 3.196-.24 6.443-.373 9.724-.373"/>
        <path fill="#FFC900" d="M130.66 64.234c0-9.048 4.616-16.654 3.835-24.14-.53-5.07-4.135-14.634-13.137-21.868a39.225 39.225 0 0 0-2.717-2.018c-3.798-2.534-8.388-4.637-13.918-5.96C83.15 5.105 67.067 19.86 57.68 30.374c-7.475 8.363-13.4 27.469-16.91 36.815-.902 2.38-1.635 4.122-2.213 4.903-2.787 3.797-8.604 11.476-15.42 13.601C16.444 87.785.603 83.194.002 83.026c.6.516 18.93 16.401 32.668 21.377.564.204 1.116.383 1.67.551a100.47 100.47 0 0 0 9.652 2.391c9.23 1.815 15.84 1.827 16.032 1.827 0 0-.78 4.686-2.68 9.048a59.91 59.91 0 0 1-1.995 4.12c8.245 8.16 19.002 14.936 31.516 19.73-.024-.997-.266-11.319 1.224-15.572 1.576-4.48 7.381-8.495 7.381-8.495s22.392 6.922 26.754 7.15c4.363.227 8.377-.06 9.832-.674 1.454-.612 2.944-3.244 2.992-5.815.06-2.572-2.066-3.94-2.007-5.275.05-1.346 1.792-3.22 1.792-3.22s-3.33.168-7.297-1.118c-3.978-1.285-6.79-4.013-6.79-4.013s6.01-.227 8.858-1.344c2.848-1.119 6.119-3.354 6.119-3.354s-1.06-6.092-1.12-7.377c-.06-1.285-.107-2.74 1.347-4.254a11.16 11.16 0 0 1 1.13-.95c2.32-1.765 6.672-4.409 6.672-4.409s-13.09-10.057-13.09-19.116"/>
        <path fill="#FFB89E" d="M239.71 44.143c-3.956-21.209-29.529-34.232-57.117-29.09-27.59 5.144-46.748 26.508-42.791 47.716 1.853 9.938 8.453 18.08 17.785 23.397-.522 2.336-1.604 5.646-3.819 8.555-3.93 5.158-14.157 9.872-14.157 9.872s19.79-2.35 32.032-6.52c4.27-1.455 8.682-3.304 12.618-5.097a65.467 65.467 0 0 0 12.658-1.117c27.59-5.144 46.748-26.508 42.791-47.716"/>
        <path fill="#FFF" d="M175.269 44.715c-3.832 0-6.584-1.79-8.886-3.287-2.647-1.723-4.74-3.08-8.248-2.27a2.402 2.402 0 1 1-1.084-4.681c5.512-1.282 9.08 1.052 11.956 2.922 2.645 1.722 4.734 3.078 8.247 2.27 3.515-.814 4.796-2.952 6.416-5.662 1.76-2.941 3.951-6.602 9.456-7.877 5.51-1.271 9.083 1.054 11.958 2.923 2.645 1.72 4.735 3.075 8.249 2.27a2.397 2.397 0 0 1 2.883 1.799 2.402 2.402 0 0 1-1.8 2.882c-5.5 1.277-9.081-1.052-11.956-2.923-2.645-1.72-4.737-3.082-8.249-2.269-3.513.812-4.794 2.954-6.414 5.663-1.761 2.941-3.952 6.603-9.457 7.875a13.534 13.534 0 0 1-3.071.365M180.222 61.381c-2.876 0-4.918-1.676-6.48-2.957-1.71-1.402-2.669-2.123-4.156-1.776a2.402 2.402 0 1 1-1.084-4.682c3.857-.897 6.42 1.207 8.29 2.743 1.71 1.402 2.668 2.12 4.156 1.777 1.484-.344 2.034-1.41 2.954-3.422 1.005-2.2 2.385-5.214 6.242-6.105 3.858-.896 6.42 1.207 8.29 2.743 1.71 1.405 2.675 2.116 4.156 1.778 1.485-.343 2.035-1.41 2.955-3.423 1.008-2.2 2.387-5.213 6.246-6.106 3.855-.898 6.422 1.21 8.292 2.743 1.711 1.403 2.672 2.125 4.16 1.777a2.401 2.401 0 1 1 1.084 4.681c-3.866.893-6.422-1.208-8.292-2.743-1.71-1.402-2.669-2.12-4.16-1.776-1.486.344-2.035 1.41-2.957 3.423-1.007 2.2-2.386 5.214-6.244 6.106-3.858.897-6.418-1.21-8.29-2.745-1.711-1.402-2.67-2.122-4.156-1.776-1.484.344-2.034 1.409-2.954 3.421-1.006 2.2-2.385 5.214-6.243 6.105a7.98 7.98 0 0 1-1.809.214M177.224 79.754c-2.876 0-4.92-1.676-6.48-2.957-1.71-1.403-2.67-2.112-4.157-1.777a2.403 2.403 0 1 1-1.082-4.682c3.85-.897 6.419 1.21 8.29 2.744 1.71 1.403 2.672 2.123 4.155 1.777 1.485-.344 2.034-1.41 2.955-3.422 1.004-2.2 2.384-5.214 6.242-6.105 3.859-.892 6.418 1.209 8.289 2.743 1.71 1.403 2.673 2.124 4.155 1.777 1.487-.344 2.036-1.41 2.957-3.423 1.007-2.2 2.387-5.214 6.245-6.105 3.868-.895 6.42 1.208 8.292 2.742 1.714 1.404 2.678 2.122 4.16 1.777a2.401 2.401 0 1 1 1.084 4.681c-3.862.896-6.42-1.209-8.292-2.742-1.71-1.402-2.673-2.122-4.16-1.776-1.486.344-2.035 1.41-2.957 3.422-1.007 2.2-2.386 5.214-6.244 6.105-3.86.892-6.418-1.209-8.29-2.743-1.71-1.402-2.671-2.12-4.156-1.776-1.484.344-2.033 1.408-2.954 3.421-1.006 2.2-2.385 5.214-6.242 6.105a7.99 7.99 0 0 1-1.81.214"/>
        <path fill="#323C59" d="M211.795 92.949c-20.066 4.244-37.137 10.99-37.137 24.545 0 .05.004.1.005.149l-34.742-9.472 41.174 23.135c6.687 6.477 17.94 10.732 30.7 10.732 20.51 0 33.934-11.373 37.137-24.544 4.728-19.436-12.423-29.774-37.137-24.545"/>
        <path fill="#FFB89E" d="M201.108 116.696c-2.393 0-4.093-1.395-5.392-2.462-1.424-1.168-2.223-1.757-3.459-1.478a2 2 0 1 1-.9-3.897c3.203-.746 5.34 1.006 6.898 2.284 1.423 1.168 2.223 1.767 3.456 1.478 1.236-.286 1.694-1.172 2.46-2.847.836-1.83 1.984-4.338 5.194-5.08 3.212-.742 5.34 1.005 6.898 2.282 1.423 1.168 2.225 1.768 3.458 1.48 1.238-.288 1.695-1.174 2.461-2.85.838-1.83 1.986-4.338 5.196-5.08 3.22-.744 5.345 1.006 6.902 2.281 1.425 1.17 2.227 1.766 3.461 1.48a2.004 2.004 0 0 1 2.4 1.496 2.001 2.001 0 0 1-1.498 2.4c-3.213.745-5.344-1.007-6.9-2.282-1.424-1.168-2.224-1.766-3.462-1.48-1.237.287-1.694 1.175-2.46 2.849-.84 1.832-1.986 4.34-5.197 5.081-3.213.743-5.34-1.006-6.9-2.283-1.421-1.167-2.223-1.763-3.456-1.478-1.236.285-1.694 1.172-2.46 2.847-.836 1.83-1.984 4.338-5.194 5.08a6.666 6.666 0 0 1-1.506.179M225.669 115.127c3.176-.278 5.586 1.007 7.604 2.081 2.32 1.236 4.153 2.208 7.001 1.283a2 2 0 1 1 1.24 3.803c-4.476 1.462-7.605-.215-10.123-1.556-2.319-1.235-4.15-2.208-7.002-1.282-2.855.928-3.761 2.795-4.908 5.158-1.246 2.566-2.797 5.76-7.268 7.216-4.475 1.454-7.606-.214-10.125-1.556-2.318-1.234-4.149-2.205-7.002-1.282a1.996 1.996 0 0 1-2.522-1.282 1.999 1.999 0 0 1 1.281-2.521c4.47-1.459 7.607.214 10.125 1.556 2.319 1.235 4.152 2.212 7.004 1.282 2.853-.928 3.76-2.796 4.906-5.16 1.248-2.565 2.798-5.76 7.268-7.215.893-.29 1.73-.455 2.52-.525"/>
    </g>
</svg>
