<svg xmlns="http://www.w3.org/2000/svg" width="276" height="196" viewBox="0 0 276 196">
    <g fill="none" fill-rule="evenodd">
        <path stroke="#FFB89E" d="M274.57 101.37c0 51.576-45.311 93.386-101.206 93.386S72.157 152.946 72.157 101.37c0-51.575 45.312-93.386 101.207-93.386 55.895 0 101.207 41.81 101.207 93.386z"/>
        <path fill="#FFC900" d="M242.142 112.664v.01c-2.029 1.849-4.5 2.809-4.5 2.809l3.58-10.43c.441-.07 4.3-.59 3.42 3.62-.33 1.61-1.34 2.95-2.5 3.99M260.153 67.883c.189 6.56-9.67 10.77-9.67 10.77l-.16-.06 5.489-15.97c.69-.16 4.18-.65 4.34 5.26M246.832 88.744c.96.22 4.27 1.279 3.95 5.42-.37 4.83-7.74 5.689-7.74 5.689l-.02-.01 3.81-11.1z"/>
        <path fill="#FFB89E" d="M122.672 50.183l1.48 7.44-8.18 2.42-1.86-8.56z"/>
        <path fill="#323C59" d="M61.212 80.883c-.3 1.1-.61 2.75-.31 4.28.26 1.3 1.17 2.78 2.4 4.23l-.54.05-8.75 2.6-1.67-8.74 8.56-2.42h.31z"/>
        <path fill="#FFB89E" d="M50.672 64.513l1.86 8.37-8.19 1.49-1.49-8.38z"/>
        <path fill="#323C59" d="M32.062 67.674l2.61 8.74-9.49 1.86-2.42-9.11z"/>
        <path fill="#FFB89E" d="M36.342 87.393l2.42 8.37-8.74 1.86s-2.42-8-2.24-8.93l8.56-1.3z"/>
        <path fill="#323C59" d="M43.972 121.624l2.601 9.3-7.81 2.05-2.61-8.93z"/>
        <path fill="#FFB89E" d="M227.892 89.103c2.761.78 4.301 3.94 3.42 7.05-.88 3.12-3.84 5.011-6.609 4.23-2.771-.78-4.3-3.94-3.42-7.06.88-3.11 3.839-5 6.609-4.22M234.962 27.893c2.76.78 4.3 3.94 3.42 7.05-.88 3.12-3.84 5.011-6.61 4.23-2.77-.78-4.3-3.94-3.42-7.06.881-3.11 3.84-5 6.61-4.22"/>
        <path fill="#323C59" d="M210.582 43.893c2.77.78 4.3 3.94 3.42 7.05-.87 3.12-3.83 5.011-6.6 4.23-2.77-.78-4.3-3.94-3.42-7.06.88-3.11 3.83-5 6.6-4.22M217.073 25.053c2.56.93 3.72 4.18 2.6 7.28-1.121 3.09-4.1 4.84-6.661 3.91-2.56-.93-3.73-4.18-2.61-7.27 1.12-3.1 4.11-4.85 6.67-3.92M272.252 9.813c.93 2.04.18 4.46.18 4.46l-3.26 9.471-.46-.16s-10.93-4.28-29.9-8c-17.75-3.49-25.45-2.41-26.37-2.26l3.62-9.47s1.49-2.04 3.72-2.97c2.23-.93 4.28-.56 4.28-.56l44.65 7.07s2.61.37 3.54 2.42M94.832 133.393c2.77 1.33 6.16 2.9 9.29 4.29l-.06.13-3.91.97-74.41 18.56L.252 54.653l145.3-28.1 3.35 19.2 8.7 49.79c-.01.05-.03.09-.04.14-.64-.65-5-5.04-8.11-8.16l-9.67-51.29-131.72 24.55 23.44 86.14 63.26-13.39.07-.14zM185.552 102.094l52.09 13.39s-1.3 3.17-3.159 4.47c-1.86 1.3-4.84 1.86-4.84 1.86l-6.67-1.68-37.18-9.37c.08-1.35.11-2.47.04-3.09-.18-1.67-.74-3.63-.55-5.61l.27.03z"/>
        <path fill="#56638C" d="M34.672 76.414l-2.61-8.74-9.3 1.49 2.42 9.109 9.49-1.86zm4.09 19.35l-2.42-8.371-8.56 1.3c-.18.93 2.24 8.93 2.24 8.93l8.74-1.86zm7.81 35.16l-2.6-9.3-7.82 2.42 2.61 8.93 7.81-2.05zm5.96-58.04l-1.86-8.37-7.82 1.48 1.49 8.38 8.19-1.49zm71.62-15.26l-1.48-7.44-8.56 1.299 1.86 8.56 8.18-2.42zm-60.85 31.769c1.24 1.46 2.78 2.91 4.3 4.14 3.02 2.46 46.51 24.37 46.51 24.37s4.46 3.44 2.6 6.7c-1.86 3.25-8.74 1.07-11.9-.56-3.17-1.63-4.52-3.93-10.42-6.07-5.909-2.14-16.56 2.12-16.56 4.02 0 1.91 9.07 6.89 11.53 8.56.73.49 2.81 1.56 5.47 2.84l-.07.14-63.26 13.39-23.44-86.14 131.72-24.55 9.67 51.29c-1.6-1.6-2.87-2.86-3.16-3.11-.88-.79-3.72-2.23-3.72-2.23l-34.23 6.7s-1.21 1.35-2.6 3.16c-1.4 1.81-2.24 5.02-2.24 5.02l-41.86-17.48s-.22.51-.43 1.3h-.31l-8.56 2.42 1.67 8.74 8.75-2.6.54-.05zM214.002 50.943c.88-3.109-.65-6.27-3.42-7.05-2.77-.78-5.72 1.111-6.6 4.22-.88 3.12.65 6.28 3.42 7.06 2.77.781 5.73-1.11 6.6-4.23zm5.67-18.609c1.12-3.1-.04-6.35-2.6-7.28-2.56-.93-5.55.82-6.67 3.92-1.12 3.09.05 6.34 2.61 7.27 2.56.93 5.54-.82 6.66-3.91zm11.64 63.82c.88-3.11-.66-6.27-3.42-7.05-2.77-.78-5.73 1.11-6.61 4.22-.88 3.12.65 6.28 3.42 7.06 2.77.78 5.73-1.11 6.61-4.23zm7.07-61.21c.88-3.11-.66-6.27-3.42-7.05-2.77-.78-5.73 1.11-6.61 4.22-.88 3.12.65 6.28 3.42 7.06 2.77.78 5.73-1.11 6.61-4.23zm-51.71 45.75l1.92-5.02 15.24-39.84 8.61-22.51c.92-.15 8.62-1.23 26.37 2.26 18.97 3.72 29.9 8 29.9 8l.46.16-13.36 38.88-5.49 15.97-3.49 10.15-3.81 11.1-1.8 5.21-3.58 10.43-52.09-13.39-.27-.03c.11-1.12.46-2.24 1.27-3.32 2.23-2.98 15.49-9 18.09-10.21 2.61-1.21 8.26-3.93 11.05-9.61 2.79-5.67 3.91-13.67 1.39-13.67-2.51 0-14.72 8.34-27.92 14.73-.77.37-1.54.74-2.3 1.11l-.19-.4z"/>
        <path fill="#F5A30C" d="M158.493 110.133c.22-1.12 3.7-18.97 6.13-21.67 2.51-2.79 23.72-12.88 23.72-12.88l.25.09-1.92 5.02.19.4c-10.011 4.73-18.96 8.34-20.29 9.56-3.06 2.79-7.78 18.5-8.08 19.48"/>
        <path fill="#56638C" d="M195.042 41.813l.25.3c-3.33 2.69-6.66 5.46-7.79 6.67-2.51 2.7-10.14 15.171-12.83 18.5-2.7 3.33-9.03 9.69-10.89 12.2-.94 1.27-3.49 8.391-6.18 16.06l-8.7-49.79.18-.03s9.8-8.12 23.93-8.87c14.14-.74 22.03 4.96 22.03 4.96M134.012 146.924l.641.16c-1.54 2.85-2.86 5.19-3.8 6.63-3.92 6.05-11.27 16.71-12.48 18.45-16.15-13.73-18.12-32.39-18.22-33.381l3.91-.97.06-.13c4.11 1.83 7.75 3.36 8.87 3.66 2.79.75 7.68.93 11.16 1.31 3.49.37 9.86 4.27 9.86 4.27M182.762 171.853c3.641 3.11 11.61 9.93 12.71 10.86-4.95 1.37-10.41 2.42-16.43 3.1-7.559.851-14.4 1.04-20.58.69l.021-.41s9.4-16.28 12-20.099c0 0 8.37 2.52 12.28 5.86M242.142 112.674c.38 2.47 4.591 33.07-17.29 54.149-2.189-1.4-14.63-9.29-17.35-11.15-2.969-2.05-13.019-13.12-13.019-13.12 5.019-2.32 17.489-10.51 20.93-12.56 3.439-2.04 7.53-9.76 7.53-9.76l.029-.1 6.67 1.68s2.98-.56 4.841-1.86c1.859-1.3 3.159-4.47 3.159-4.47s2.471-.96 4.5-2.81"/>
        <path fill="#F5A30C" d="M207.502 155.674c2.72 1.859 15.16 9.75 17.35 11.149-6.89 6.64-16.37 12.33-29.38 15.89-1.1-.93-9.07-7.75-12.71-10.86-3.91-3.34-12.28-5.86-12.28-5.86 2.6-3.81 18.98-21.11 24-23.44 0 0 10.05 11.07 13.02 13.12M149.452 87.523c3.11 3.12 7.47 7.51 8.11 8.16-2.63 7.481-5.38 15.441-6.89 18.97-2.4 5.591-10.53 22.261-16.02 32.431l-.64-.16s-6.37-3.9-9.86-4.27c-3.48-.38-8.37-.56-11.16-1.31-1.12-.3-4.76-1.83-8.87-3.66a356.722 356.722 0 0 1-9.29-4.29c-2.66-1.28-4.74-2.35-5.47-2.84-2.46-1.67-11.53-6.65-11.53-8.56 0-1.9 10.65-6.16 16.56-4.02 5.9 2.14 7.25 4.44 10.42 6.07 3.16 1.63 10.04 3.81 11.9.56 1.86-3.26-2.6-6.7-2.6-6.7s-43.49-21.91-46.51-24.37c-1.52-1.23-3.06-2.68-4.3-4.14-1.23-1.45-2.14-2.93-2.4-4.23-.3-1.53.01-3.18.31-4.28.21-.79.43-1.3.43-1.3l41.86 17.48s.84-3.21 2.24-5.02c1.39-1.81 2.6-3.16 2.6-3.16l34.23-6.7s2.84 1.44 3.72 2.23c.29.25 1.56 1.51 3.16 3.11"/>
        <path fill="#FFC900" d="M185.792 110.763l37.18 9.37-.03.1s-4.09 7.72-7.53 9.76c-3.44 2.05-15.91 10.24-20.93 12.56-5.02 2.33-21.4 19.63-24 23.44-2.6 3.82-12 20.1-12 20.1l-.02.41c-18.71-1.04-31.44-6.98-40.09-14.34 1.21-1.74 8.56-12.4 12.48-18.45.94-1.44 2.26-3.78 3.8-6.63 5.49-10.17 13.62-26.84 16.02-32.43 1.51-3.53 4.26-11.49 6.89-18.97l.08.08-.04-.22c2.69-7.67 5.24-14.79 6.18-16.06 1.86-2.51 8.19-8.87 10.89-12.2 2.69-3.33 10.32-15.8 12.83-18.5 1.13-1.21 4.46-3.98 7.79-6.67 4.06-3.28 8.12-6.44 8.12-6.44l.42.16-15.24 39.84-.25-.09s-21.21 10.09-23.72 12.88c-2.43 2.7-5.91 20.55-6.13 21.67.3-.98 5.02-16.69 8.08-19.48 1.33-1.22 10.28-4.83 20.29-9.56.76-.37 1.53-.74 2.3-1.11 13.2-6.39 25.41-14.73 27.92-14.73 2.52 0 1.4 8-1.39 13.67-2.79 5.68-8.44 8.4-11.05 9.61-2.6 1.21-15.86 7.23-18.09 10.21-.81 1.08-1.16 2.2-1.27 3.32-.19 1.98.37 3.94.55 5.61.07.62.04 1.74-.04 3.09"/>
    </g>
</svg>
