<svg xmlns="http://www.w3.org/2000/svg" xmlns:xlink="http://www.w3.org/1999/xlink" width="265" height="204" viewBox="0 0 265 204">
    <defs>
        <path id="a" d="M0 203.315h264.626V.342H0z"/>
    </defs>
    <g fill="none" fill-rule="evenodd">
        <path stroke="#FFB89E" stroke-width=".683" d="M262.3 78.587c12.09 39.407-32.327 88.061-99.206 108.673-66.88 20.61-130.897 5.374-142.985-34.033C8.02 113.82 52.436 65.165 119.315 44.554c66.88-20.611 130.898-5.374 142.986 34.033z"/>
        <g transform="translate(0 .342)">
            <path fill="#FFC900" d="M106.034 121.681v25.46c-8.68-8.147-19.035-19.326-26.882-32.305h26.882v6.845zM179.797 76.644v.198c0 .377-.007.753-.027 1.13-.267 9.98-3.21 19.654-7.643 28.649h-66.093V49.487c8.094 2.944 14.507 9.392 17.416 17.511 4.023-11.22 14.74-19.25 27.32-19.25 2.11 0 4.166.226 6.147.658 11.003 2.375 19.69 11.007 22.163 21.995.055.24.116.492.164.739.334 1.568.519 3.204.546 4.908.007.15.007.301.007.452v.144z"/>
            <path fill="#56638C" d="M185.602 169.99v-.164a5.478 5.478 0 0 0-.15-1.163 5.973 5.973 0 0 0-5.833-4.669 5.985 5.985 0 0 0-5.627 3.97 5.985 5.985 0 0 0-6.899-3.833 5.973 5.973 0 0 0-4.562 4.532 5.478 5.478 0 0 0-.15 1.164v.328c.191 9.283 11.542 17.258 11.542 17.258s11.427-7.941 11.673-17.19c.006-.075.006-.157.006-.232zm61.811-48.309v81.463H106.034V147.14c9.542 8.954 17.075 14.246 17.075 14.246s23.242-16.142 39.962-39.705h84.342z"/>
            <path fill="#F5A30C" d="M228.972 118.258v-6.16H213.947v6.16H228.972zm18.441-11.637v15.06h-84.342c.799-1.122 1.584-2.266 2.35-3.423h43.062v-6.16h-39.265a97.552 97.552 0 0 0 2.91-5.477h75.285z"/>
            <mask id="b" fill="#fff">
                <use xlink:href="#a"/>
            </mask>
            <path fill="#FFB89E" d="M221.46 118.258h7.512v-6.16h-7.513z" mask="url(#b)"/>
            <path fill="#FFC900" d="M213.947 118.258h7.512v-6.16h-7.512z" mask="url(#b)"/>
            <path fill="#323C59" d="M208.824 48.823v-.164a5.478 5.478 0 0 0-.15-1.164 5.973 5.973 0 0 0-5.833-4.669 5.985 5.985 0 0 0-5.628 3.97 5.985 5.985 0 0 0-6.898-3.833 5.973 5.973 0 0 0-4.562 4.532 5.478 5.478 0 0 0-.15 1.164v.328c.19 9.283 11.542 17.258 11.542 17.258s11.426-7.94 11.672-17.19c.007-.075.007-.157.007-.232zm7.854-24.35v82.148h-44.55c4.432-8.995 7.375-18.668 7.642-28.65.02-.376.027-.752.027-1.129V76.5c0-.15 0-.301-.007-.452a25.412 25.412 0 0 0-.546-4.908c-.048-.247-.11-.5-.164-.74-2.473-10.987-11.16-19.62-22.163-21.995a28.86 28.86 0 0 0-6.147-.657c-12.58 0-23.297 8.03-27.32 19.25-2.91-8.119-9.322-14.567-17.416-17.511V24.473h6.147c0 3.402 2.753 6.161 6.147 6.161s6.147-2.759 6.147-6.161h92.203z" mask="url(#b)"/>
            <path fill="#FFC900" d="M216.678 14.89v9.583h-92.203c0-3.402-2.753-6.16-6.147-6.16s-6.147 2.758-6.147 6.16h-6.147V14.89h110.644z" mask="url(#b)"/>
            <path fill="#FFB89E" d="M208.824 48.782v.041c0 .075 0 .157-.007.233-.246 9.248-11.672 17.19-11.672 17.19s-11.351-7.976-11.543-17.259v-.328a5.478 5.478 0 0 1 .15-1.164 5.973 5.973 0 0 1 5.833-4.669 5.985 5.985 0 0 1 5.628 3.97 5.985 5.985 0 0 1 6.898-3.833 5.973 5.973 0 0 1 4.563 4.532 5.478 5.478 0 0 1 .15 1.164v.123z" mask="url(#b)"/>
            <path fill="#FFC900" d="M208.483 112.097v6.161H165.42a115.388 115.388 0 0 0 3.798-6.16h39.265z" mask="url(#b)"/>
            <path fill="#FFB89E" d="M185.602 169.95v.04c0 .076 0 .158-.006.233-.246 9.249-11.673 17.19-11.673 17.19s-11.351-7.975-11.542-17.258v-.329a5.478 5.478 0 0 1 .15-1.163 5.973 5.973 0 0 1 5.833-4.669 5.985 5.985 0 0 1 5.628 3.97 5.985 5.985 0 0 1 6.898-3.833 5.973 5.973 0 0 1 4.562 4.532 5.478 5.478 0 0 1 .15 1.164v.123z" mask="url(#b)"/>
            <path fill="#F5A30C" d="M106.034 106.62h66.093a97.552 97.552 0 0 1-2.91 5.477H121.06v6.161h44.36c-.765 1.157-1.55 2.3-2.35 3.423h-57.036V106.621z" mask="url(#b)"/>
            <path fill="#FFC900" d="M121.06 112.097h48.158a115.388 115.388 0 0 1-3.798 6.161h-44.36v-6.16z" mask="url(#b)"/>
            <path fill="#FFB89E" d="M106.034 121.681h57.037c-16.72 23.563-39.962 39.705-39.962 39.705s-7.533-5.292-17.075-14.246v-25.459z" mask="url(#b)"/>
            <path fill="#F5A30C" d="M124.475 24.473H112.18c0-3.402 2.753-6.16 6.147-6.16s6.147 2.758 6.147 6.16M112.181 24.473h12.294c0 3.402-2.753 6.161-6.147 6.161s-6.147-2.759-6.147-6.16" mask="url(#b)"/>
            <path fill="#323C59" d="M79.056 135.763v-.165a5.478 5.478 0 0 0-.15-1.164 5.973 5.973 0 0 0-5.833-4.668 5.985 5.985 0 0 0-5.628 3.97 5.985 5.985 0 0 0-6.898-3.833 5.973 5.973 0 0 0-4.562 4.531 5.478 5.478 0 0 0-.15 1.164v.329c.19 9.283 11.542 17.258 11.542 17.258s11.426-7.941 11.672-17.19c.007-.075.007-.157.007-.232m26.978 11.377v23.83H.171v-56.135h78.98c7.848 12.98 18.202 24.159 26.883 32.305" mask="url(#b)"/>
            <path fill="#F5A30C" d="M106.034 106.62v8.216H79.152a102.57 102.57 0 0 1-4.48-8.215h31.362z" mask="url(#b)"/>
            <path fill="#FFB89E" d="M106.034 49.487v57.134H74.671c-4.419-9.098-7.349-18.874-7.56-28.964 0-.383-.007-.774-.007-1.157 0-.15 0-.301.007-.452.027-1.704.211-3.34.546-4.908.048-.247.11-.5.164-.74 2.472-10.987 11.16-19.62 22.163-21.994a28.86 28.86 0 0 1 6.147-.658c3.476 0 6.816.616 9.903 1.74" mask="url(#b)"/>
            <path fill="#56638C" d="M84.52 23.494v-.164a5.478 5.478 0 0 0-.15-1.164 5.973 5.973 0 0 0-5.833-4.669 5.985 5.985 0 0 0-5.628 3.97 5.985 5.985 0 0 0-6.898-3.833 5.973 5.973 0 0 0-4.562 4.532 5.478 5.478 0 0 0-.15 1.164v.328c.19 9.283 11.542 17.258 11.542 17.258s11.426-7.94 11.672-17.19c.007-.074.007-.157.007-.232zm21.514.979v25.014a28.942 28.942 0 0 0-9.903-1.739c-2.11 0-4.166.226-6.147.657C78.98 50.781 70.294 59.413 67.82 70.4c-.055.24-.116.493-.164.74a25.412 25.412 0 0 0-.546 4.908c-.007.15-.007.301-.007.452 0 .383.007.773.007 1.157.211 10.09 3.141 19.866 7.56 28.964h-21.91V10.097h53.273v14.376z" mask="url(#b)"/>
            <path fill="#F5A30C" d="M98.521 10.097h7.513V.513h-7.513z" mask="url(#b)"/>
            <path fill="#FFC900" d="M66.42 10.097h32.101V.513h-32.1z" mask="url(#b)"/>
            <path fill="#FFB89E" d="M84.52 23.453v.041c0 .075 0 .158-.007.233-.246 9.248-11.672 17.19-11.672 17.19S61.49 32.94 61.298 23.657v-.328a5.478 5.478 0 0 1 .15-1.164 5.973 5.973 0 0 1 5.833-4.669 5.985 5.985 0 0 1 5.628 3.97 5.985 5.985 0 0 1 6.898-3.833 5.973 5.973 0 0 1 4.563 4.532 5.478 5.478 0 0 1 .15 1.164v.123z" mask="url(#b)"/>
            <path fill="#F5A30C" d="M79.151 114.836H.171v-8.215h5.463v4.792H23.392v-4.792H74.671a102.785 102.785 0 0 0 4.48 8.215" mask="url(#b)"/>
            <path fill="#FFB89E" d="M79.056 135.721v.042c0 .075 0 .157-.007.232-.246 9.249-11.672 17.19-11.672 17.19s-11.351-7.975-11.543-17.258v-.329a5.478 5.478 0 0 1 .15-1.164 5.973 5.973 0 0 1 5.833-4.668 5.985 5.985 0 0 1 5.628 3.97 5.985 5.985 0 0 1 6.898-3.833 5.973 5.973 0 0 1 4.563 4.531 5.478 5.478 0 0 1 .15 1.164v.123z" mask="url(#b)"/>
            <path fill="#F5A30C" d="M52.761 10.097h13.66V.513H52.76z" mask="url(#b)"/>
            <path fill="#FFC900" d="M14.514 111.413h8.878v-4.792h-8.878z" mask="url(#b)"/>
            <path fill="#FFB89E" d="M5.635 111.413h8.879v-4.792h-8.88z" mask="url(#b)"/>
        </g>
    </g>
</svg>
