<svg xmlns="http://www.w3.org/2000/svg" width="253" height="194" viewBox="0 0 253 194">
    <g fill="none" fill-rule="evenodd">
        <path stroke="#FFB89E" d="M252 93c0 43.078-51.04 78-114 78S24 136.078 24 93s51.04-78 114-78 114 34.922 114 78z"/>
        <path fill="#323C59" d="M153.521 11.104l11.262 90.998-14.622 1.782-9.78-79.023L17.104 39.884l9.78 79.024-14.173 1.727L1.45 29.637l8.584-1.046c.903 4.164 4.875 7.029 9.217 6.5 4.341-.53 7.496-4.263 7.358-8.52L153.52 11.104z"/>
        <path fill="#FFC900" d="M91.486 15.41l-.553-4.464-61.188 7.457.552 4.465 61.189-7.458zM152.186.31l1.335 10.795L26.61 26.571a8.438 8.438 0 0 0-.057-.754c-.565-4.563-4.748-7.806-9.345-7.246-4.6.56-7.867 4.712-7.302 9.275.032.254.076.503.129.745l-8.585 1.046L.114 18.842 152.185.31z"/>
        <path fill="#56638C" d="M108.99 59.05c-1.8-14.546-15.147-24.892-29.806-23.106C64.526 37.73 54.1 50.974 55.9 65.52c1.8 14.546 15.147 24.893 29.805 23.106 14.658-1.786 25.085-15.03 23.285-29.576zm31.391-34.19l9.78 79.024-123.277 15.024-9.78-79.024L140.38 24.86z"/>
        <path fill="#FFC900" d="M74.366 54.206c-.23-1.848-1.926-3.164-3.789-2.937-1.863.227-3.189 1.911-2.96 3.76.228 1.847 1.926 3.163 3.789 2.936 1.862-.227 3.189-1.911 2.96-3.76m20.696-2.521c-.23-1.849-1.926-3.165-3.789-2.938-1.863.227-3.189 1.911-2.96 3.76.229 1.849 1.926 3.164 3.789 2.937 1.862-.227 3.188-1.911 2.96-3.76m3.41 9.102a1.586 1.586 0 0 0-1.768-1.37 1.578 1.578 0 0 0-1.382 1.754c.868 7.014-4.18 13.425-11.248 14.287-7.068.861-13.529-4.148-14.397-11.162a1.586 1.586 0 0 0-1.768-1.37 1.579 1.579 0 0 0-1.381 1.754c1.081 8.737 9.124 14.976 17.933 13.903 8.81-1.074 15.092-9.059 14.011-17.796M79.184 35.944c14.659-1.786 28.005 8.56 29.806 23.106 1.8 14.545-8.627 27.79-23.285 29.576-14.658 1.787-28.006-8.56-29.805-23.106-1.8-14.546 8.626-27.79 23.284-29.576"/>
        <path fill="#F5A30C" d="M96.704 59.415a1.586 1.586 0 0 1 1.768 1.37c1.081 8.737-5.201 16.722-14.01 17.796-8.81 1.073-16.853-5.166-17.934-13.903a1.578 1.578 0 0 1 1.381-1.754 1.586 1.586 0 0 1 1.768 1.37c.868 7.014 7.33 12.023 14.397 11.162 7.068-.862 12.116-7.273 11.248-14.287a1.578 1.578 0 0 1 1.382-1.754M90.933 10.946l.553 4.465-61.19 7.457-.551-4.465zM91.273 48.746c1.863-.227 3.56 1.09 3.789 2.937.228 1.849-1.098 3.533-2.96 3.76-1.863.227-3.56-1.088-3.789-2.937-.229-1.848 1.097-3.532 2.96-3.76M70.577 51.269c1.862-.228 3.56 1.089 3.788 2.936.23 1.85-1.097 3.534-2.96 3.76-1.862.228-3.56-1.089-3.788-2.937-.229-1.848 1.097-3.532 2.96-3.76"/>
        <path fill="#FFB89E" d="M26.552 25.817c.031.254.049.506.057.754l-16.575 2.02a8.31 8.31 0 0 1-.13-.746c-.564-4.562 2.704-8.713 7.303-9.273 4.597-.56 8.78 2.682 9.345 7.245M10.034 28.591l16.575-2.02c.138 4.257-3.017 7.99-7.358 8.52-4.342.529-8.314-2.336-9.217-6.5"/>
        <path fill="#FFF" d="M224.425 189L73 173.3 83.575 71 235 86.7z"/>
        <g>
            <path fill="#323C59" d="M238.136 106.162l-9.161 87.725-14.46-1.484 8.28-79.294L98.98 100.401l-8.28 79.295-14.46-1.485 9.16-87.725z"/>
            <path fill="#FFC900" d="M211.78 96.131c.232-2.217-1.41-4.22-3.646-4.45l-90.828-9.321a4.106 4.106 0 0 0-2.997.888 4.04 4.04 0 0 0-1.49 2.726c-.232 2.218 1.409 4.22 3.645 4.45l90.828 9.322a4.11 4.11 0 0 0 2.998-.888 4.04 4.04 0 0 0 1.49-2.727zm21.721 6.305l.842-8.064-9.038-.928-9.489-.973-.842 8.063 9.49.974 9.037.928zm6.14-10.69l-1.505 14.416L85.4 90.487l1.505-14.417 152.735 15.676z"/>
            <path fill="#FFB89E" d="M234.343 94.372l-.842 8.064-9.038-.928.842-8.064z"/>
            <path fill="#F5A30C" d="M225.305 93.444l-.842 8.064-9.489-.974.842-8.063z"/>
            <path fill="#56638C" d="M184.32 146.968l.328-3.136a15.238 15.238 0 0 0-1.035-.07c.38-1.368.649-2.794.801-4.255 1.525-14.596-9.178-27.657-23.9-29.168-14.723-1.51-27.898 9.1-29.421 23.695a25.953 25.953 0 0 0-.096 4.328 15.19 15.19 0 0 0-1.027-.141l-.327 3.135a10.65 10.65 0 0 1 1.761.317c2.13 11.267 11.506 20.289 23.589 21.529 12.083 1.24 23.124-5.686 27.537-16.281a10.65 10.65 0 0 1 1.79.047zm38.475-33.859l-8.28 79.294L90.7 179.695l8.28-79.294 123.815 12.708z"/>
            <path fill="#F5A30C" d="M208.134 91.682c2.237.23 3.877 2.232 3.646 4.45a4.038 4.038 0 0 1-1.49 2.726 4.11 4.11 0 0 1-2.998.888l-90.828-9.322c-2.236-.23-3.877-2.232-3.646-4.45a4.043 4.043 0 0 1 1.491-2.727 4.107 4.107 0 0 1 2.997-.887l90.828 9.322z"/>
            <path fill="#56638C" d="M184.648 143.833l-.328 3.136a10.701 10.701 0 0 0-1.79-.049c.426-1.015.787-2.07 1.084-3.157.332.011.677.033 1.034.07"/>
            <path fill="#FFC900" d="M153.235 124.797c.684-.55.787-1.545.232-2.217a1.597 1.597 0 0 0-2.237-.23l-3.7 2.98-3.006-3.668a1.597 1.597 0 0 0-2.237-.23 1.565 1.565 0 0 0-.23 2.218l3.005 3.668-3.7 2.98a1.565 1.565 0 0 0-.232 2.218c.275.34.666.534 1.068.575.407.042.825-.069 1.169-.346l3.7-2.98 3.006 3.668c.279.341.666.535 1.072.576a1.58 1.58 0 0 0 1.165-.346c.682-.546.786-1.54.231-2.218l-3.006-3.668 3.7-2.98zm22.594 2.319c.684-.55.788-1.544.232-2.217a1.597 1.597 0 0 0-2.237-.23l-3.7 2.98-3.006-3.668a1.596 1.596 0 0 0-2.236-.23 1.565 1.565 0 0 0-.232 2.218l3.006 3.668-3.7 2.98a1.565 1.565 0 0 0-.232 2.217c.275.341.666.535 1.068.576.407.042.825-.07 1.17-.346l3.699-2.98 3.005 3.668c.28.341.666.535 1.073.576.403.042.825-.069 1.164-.346.683-.546.787-1.54.232-2.218l-3.006-3.668 3.7-2.98zm8.585 12.39a26.025 26.025 0 0 1-.8 4.256c-3.258-.125-5.198.88-6.936 1.78-1.73.895-3.226 1.67-6.168 1.368-2.941-.302-4.246-1.365-5.757-2.593-1.663-1.357-3.553-2.891-7.444-3.29-3.895-.4-6.058.718-7.97 1.708-1.729.895-3.226 1.67-6.167 1.368-2.942-.302-4.247-1.363-5.758-2.592-1.507-1.232-3.203-2.61-6.417-3.15a25.949 25.949 0 0 1 .096-4.327c1.523-14.595 14.698-25.205 29.42-23.695 14.723 1.512 25.425 14.573 23.901 29.168z"/>
            <path fill="#F5A30C" d="M183.614 143.763a25.428 25.428 0 0 1-1.084 3.158c-1.837.1-3.04.72-4.382 1.415-1.907.99-4.075 2.108-7.965 1.71-3.895-.4-5.781-1.935-7.448-3.292-1.511-1.228-2.811-2.29-5.753-2.591-2.942-.302-4.44.472-6.172 1.367-1.908.99-4.075 2.109-7.966 1.71-3.895-.4-5.78-1.934-7.448-3.292-1.165-.952-2.214-1.803-3.992-2.275a25.41 25.41 0 0 1-.407-3.31c3.214.537 4.91 1.916 6.417 3.148 1.511 1.229 2.816 2.29 5.758 2.593 2.941.301 4.438-.473 6.167-1.369 1.912-.99 4.075-2.108 7.97-1.708 3.89.399 5.781 1.933 7.443 3.29 1.512 1.228 2.817 2.29 5.758 2.592 2.942.302 4.439-.473 6.167-1.368 1.739-.9 3.68-1.904 6.937-1.778"/>
            <path fill="#FFC900" d="M178.148 148.336c1.343-.695 2.545-1.314 4.382-1.416-4.413 10.596-15.454 17.522-27.537 16.282-12.083-1.24-21.458-10.262-23.589-21.53 1.778.473 2.826 1.324 3.993 2.276 1.666 1.358 3.552 2.892 7.447 3.291 3.891.4 6.058-.718 7.966-1.709 1.733-.895 3.23-1.67 6.171-1.368 2.942.302 4.243 1.364 5.754 2.592 1.667 1.358 3.553 2.892 7.448 3.292 3.89.399 6.058-.72 7.965-1.71"/>
            <path fill="#F5A30C" d="M176.061 124.898a1.565 1.565 0 0 1-.232 2.218l-3.7 2.98 3.006 3.668a1.564 1.564 0 0 1-.232 2.217 1.58 1.58 0 0 1-1.164.348 1.588 1.588 0 0 1-1.072-.577l-3.006-3.668-3.7 2.98a1.59 1.59 0 0 1-1.17.346 1.576 1.576 0 0 1-1.067-.576 1.565 1.565 0 0 1 .232-2.217l3.7-2.98-3.006-3.668a1.565 1.565 0 0 1 .232-2.218 1.596 1.596 0 0 1 2.236.23l3.006 3.668 3.7-2.98a1.597 1.597 0 0 1 2.237.23M153.467 122.58a1.564 1.564 0 0 1-.232 2.217l-3.7 2.98 3.006 3.668a1.564 1.564 0 0 1-.232 2.218c-.339.278-.762.388-1.163.346a1.59 1.59 0 0 1-1.073-.576l-3.006-3.668-3.7 2.98a1.59 1.59 0 0 1-1.17.346 1.576 1.576 0 0 1-1.067-.575 1.565 1.565 0 0 1 .232-2.218l3.7-2.98-3.006-3.668a1.565 1.565 0 0 1 .232-2.218 1.596 1.596 0 0 1 2.236.23l3.006 3.668 3.7-2.98a1.597 1.597 0 0 1 2.237.23"/>
            <path fill="#56638C" d="M130.997 138.362c.065 1.125.2 2.23.407 3.311a10.648 10.648 0 0 0-1.761-.317l.327-3.135c.362.037.704.086 1.027.141"/>
        </g>
    </g>
</svg>
