<svg xmlns="http://www.w3.org/2000/svg" xmlns:xlink="http://www.w3.org/1999/xlink" width="273" height="187" viewBox="0 0 273 187">
    <defs>
        <path id="a" d="M0 186.821h272.8V.501H0z"/>
    </defs>
    <g fill="none" fill-rule="evenodd">
        <path fill="#F5A30C" d="M199.232 50.182h15.886v-4.714h-15.886z"/>
        <g transform="translate(0 .088)">
            <path fill="#FFB89E" d="M190.242 16.354a1.18 1.18 0 0 1-.4 1.462l-11.932 8.239-5.684-3.407a1.17 1.17 0 0 1-.387-.388c-.442.27-.878.53-1.313.777.053.071.106.148.141.23l2.613 5.476-5.054 8.562a1.178 1.178 0 0 1-1.613.419 1.18 1.18 0 0 1-.41-1.615l4.412-7.485-2.072-4.343c-.017-.041-.03-.083-.04-.124-.342.183-.672.354-.99.519.007.017.024.035.03.053.1.212.135.448.094.695l-.982 5.57-9.549 7.101a1.175 1.175 0 0 1-1.648-.242 1.18 1.18 0 0 1 .247-1.65l8.79-6.541.683-3.843c-.86.4-1.389.625-1.389.625s-.6-.13-1.482-.943c-2.2.972-4.89-.236-6.03-2.723-1.142-2.481-.319-5.298 1.823-6.353-.041-1.226.276-1.756.276-1.756s.436-.218 1.177-.554l-3.36-1.98-10.678 2.433a1.18 1.18 0 0 1-1.412-.884 1.186 1.186 0 0 1 .888-1.414l11.597-2.646 4.86 2.876c.211.124.376.306.47.518l.019.054a71.8 71.8 0 0 1 1.035-.419c-.024-.035-.048-.07-.065-.106l-1.953-4.396-8.544-1.509a1.173 1.173 0 0 1-.953-1.362 1.175 1.175 0 0 1 1.36-.96l9.779 1.727 2.464 5.545c.03.077.059.16.07.236.472-.165.954-.336 1.443-.495a1.194 1.194 0 0 1-.036-.525l1.113-6.541L181.658.542a1.177 1.177 0 0 1 1.37.643c.024.064.048.123.066.194a1.17 1.17 0 0 1-.835 1.438l-12.545 3.336-.753 4.455c4.683-1.279 9.45-1.68 10.826 1.32 1.359 2.959-1.93 6.27-5.872 8.988l3.907 2.34 10.684-7.38a1.172 1.172 0 0 1 1.636.301c.041.06.07.118.1.177"/>
            <mask id="b" fill="#fff">
                <use xlink:href="#a"/>
            </mask>
            <path fill="#F5A30C" d="M39.198 41.843h11.767V30.056H39.198zM56.26 41.843h11.768V30.056H56.26z" mask="url(#b)"/>
            <path fill="#323C59" d="M192.301 109.847l-4.306 2.128c-.036.018-.065.047-.1.07-.16-.353-.312-.694-.465-1.02.017-.005.04-.01.053-.016a1.21 1.21 0 0 0 .506-.495l2.665-4.987-3.112-11.492a1.175 1.175 0 0 0-1.442-.83c-.624.17-1 .818-.83 1.443l2.866 10.596-1.842 3.437c-.365-.726-.6-1.155-.6-1.155s-.54-.295-1.76-.2c-1.14-2.105-3.988-2.812-6.412-1.574-2.436 1.249-3.53 3.99-2.47 6.152-.778.92-.883 1.52-.883 1.52s.247.52.682 1.362l-3.86-.525-6.89-8.533a1.175 1.175 0 0 0-1.653-.177 1.182 1.182 0 0 0-.177 1.657l7.478 9.263 5.59.76a1.15 1.15 0 0 0 .695-.117l.052-.035c.177.312.359.636.553.966-.04.018-.082.03-.123.053l-4.248 2.246-7.643-4.114a1.18 1.18 0 0 0-1.595.478 1.184 1.184 0 0 0 .483 1.597l8.749 4.709 5.354-2.836c.083-.04.153-.094.223-.152.265.423.542.854.83 1.284a1.18 1.18 0 0 0-.37.407l-3.171 5.823 8.707 11.61a1.18 1.18 0 0 0 1.477.342c.06-.03.112-.071.17-.113a1.182 1.182 0 0 0 .236-1.65l-7.796-10.39 2.177-4.001c2.865 3.83 6.302 6.989 9.196 5.51 2.942-1.503 2.347-6.253.883-10.89l4.47.57 3.838 12.424c.193.618.852.966 1.47.778.065-.024.13-.047.188-.077.5-.259.76-.843.589-1.403l-4.284-13.866-6.572-.844c-.182-.023-.358 0-.523.06-.182-.484-.365-.96-.553-1.426.082-.018.158-.048.235-.084l5.431-2.686 1.324-9.86a1.18 1.18 0 0 0-1.013-1.327 1.184 1.184 0 0 0-1.323 1.015l-1.154 8.615zm33.702 76.974H130.1V66.89h95.903v119.931z" mask="url(#b)"/>
            <path fill="#FFC900" d="M181.287 60.113V50.094H130.1v-4.715H199.232v4.715h15.886v-4.715h10.885V66.89H130.1v-6.777zM39.198 41.843h11.767V30.056H39.198v11.787zm17.062 0h11.768V30.056H56.26v11.787zm73.84-.59v4.126H34.197V24.458H130.1v4.42H85.973a6.16 6.16 0 0 0-4.366 1.815 6.18 6.18 0 0 0-1.812 4.373c0 3.406 2.777 6.188 6.178 6.188H130.1z" mask="url(#b)"/>
            <path fill="#F5A30C" d="M130.1 60.113h51.187V50.094H130.1z" mask="url(#b)"/>
            <path fill="#56638C" d="M34.197 45.38V165.9H130.1V45.379z" mask="url(#b)"/>
            <path fill="#F5A30C" d="M130.1 28.878v12.376H85.973c-3.401 0-6.178-2.782-6.178-6.188a6.18 6.18 0 0 1 1.812-4.373 6.16 6.16 0 0 1 4.366-1.815H130.1z" mask="url(#b)"/>
            <path fill="#323C59" d="M101.787 103.786c-2.542 0-5.39 1.527-8.096 2.387-1.06.33-2.095.56-3.083.56-3.53 0-7.06-4.715-6.472-12.966.588-8.25 3.53-14.733 6.472-14.733 2.942 0 6.472 3.536 11.767 2.947 5.295-.59 5.295-5.304 5.295-7.662 0-1.367-1.383-7.072-2.541-11.64-.848-3.324-1.577-6.04-1.577-6.04s-15.886-3.536-24.123-4.125c-8.237-.59-11.767 4.125-11.767 7.072 0 2.946 2.942 5.304 1.765 8.25-1.177 2.947-2.942 4.715-14.12 4.715-2.284 0-4.249-.1-5.932-.295-6.566-.742-8.896-2.905-9.366-6.188-.295-2.045.429-3.8 1.017-5.34.595-1.56 1.048-2.899.16-4.09-1.2-1.596-3.478-2.922-7.943-3.429-2.12-.242-4.725-.295-7.943-.106C15.297 53.693 0 55.46 0 55.46v73.079s4.19.93 9.414 1.968c6.519 1.29 14.644 2.746 18.24 2.746 1.917 0 3.835-.106 5.589-.36 4.153-.6 7.354-2.044 7.354-4.944 0-4.125-2.353-5.893-2.353-8.84s6.472-5.893 15.297-5.893 14.12 2.357 14.12 4.714c0 .867-.476 1.886-.958 3.1-.842 2.093-1.707 4.739-.218 8.098 1.306 2.947 4.619 4.078 8.619 4.497 3.19.336 6.813.218 10.209.218 7.648 0 18.239-2.358 18.239-2.358s1.988-12.288 2.983-18.912c.33-2.204.547-3.777.547-4.072 0-1.179-1.765-4.715-5.295-4.715" mask="url(#b)"/>
            <path fill="#56638C" d="M214.016 71.502V59.764s9.45-1.604 13.137-1.61c3.686-.005 6.71-.284 7.56 3.124.85 3.409-.984 2.99-.89 4.978.095 1.989 1.74 3.921 8.262 3.921 6.521 0 8.222-1.231 8.41-3.881.19-2.651-.755-2.075-.566-5.112.188-3.037 2.82-3.149 4.063-3.03l18.807 1.8v43.261s-6.616-1.575-11.246-1.704c-4.63-.13-9.585-.678-10.53 1.025-.944 1.704.985 2.667.418 6.548-.567 3.881-5.324 4.22-9.608 4.22-4.285 0-9.199-.37-9.86-3.904-.662-3.534 1.228-2.114 1.323-5.239.094-3.124-9.545-1.987-9.545-1.987h-10.664s.913-3.448.93-6.485c.016-3.037-.284-6.58-3.025-6.58-2.74 0-3.024 2.367-6.616 2.367-3.59 0-3.59-8.14-3.59-10.507 0-2.367.566-8.804 4.252-9.088 3.686-.284 4.158 2.745 6.238 2.555 2.079-.189 2.74-2.934 2.74-2.934" mask="url(#b)"/>
        </g>
    </g>
</svg>
