<svg xmlns="http://www.w3.org/2000/svg" xmlns:xlink="http://www.w3.org/1999/xlink" width="387" height="268" viewBox="0 0 387 268">
    <defs>
        <path id="a" d="M.16.254h132.558v131.394H.16z"/>
        <path id="c" d="M.014.382h42.89v57.284H.014z"/>
    </defs>
    <g fill="none" fill-rule="evenodd">
        <path fill="#F5A30C" d="M370.953 87.617s-3.877 3.897-5.585 1.982c-1.708-1.916-1.114-5.447-1.114-5.447l.74-4.821s-.774-1.55-1.98-.871c-1.216.685-1.496 1.955-1.87 2.846-.367.898-1.748 6.716-1.935 8.911-.187 2.195-.02 6.091-.667 7.668-.187.445-1.441 2.001-3.235 4.083-4.538 5.26-12.505 13.899-15.261 16.579-3.85 3.744-22.5 19.923-33.149 19.677-4.11-.1-7.359-1.755-9.935-4.063-1.98-1.782-3.562-3.95-4.837-6.098-1.355-2.288-2.356-4.555-3.103-6.298-2.355-5.506-3.817-12.017-4.344-16.439-.527-4.422-3.85-12.635-13.158-10.407-9.308 2.227-9.808 12.728-10.055 18.048-.147 3.219 1.835 10.388 5.084 17.71 2.109 4.78 4.758 9.622 7.7 13.486a54.572 54.572 0 0 0 5.478 6.145 53.48 53.48 0 0 0 1.69 1.549c7.065 6.251 15.912 10.7 24.366 9.623.375-.047.747-.107 1.121-.18 11.41-2.075 24.421-13.759 31.027-20.11 6.832-6.557 27.684-32.413 31.407-37.24 3.73-4.829 8.414-12.742 9.561-14.97 1.061-2.055 1.855-19.664 1.976-22.404.006-.233.014-.36.014-.36l-9.936 21.4zM246.766 131.614a821.034 821.034 0 0 0-10.843-8.486c-7.74-5.938-13.438-10.088-13.438-10.088V113a10.665 10.665 0 0 1-4.11-.877l1.908 9.834 2.576 13.295s-3.443 4.455-12.01 6.218c-8.568 1.762-18.53-.838-18.53-.838l-2.516-5.101-11.99-4.436c-.334.273-.934.712-1.722 1.27-.406.286-.854.599-1.34.938-1.008.685-2.163 1.47-3.364 2.281a1090.69 1090.69 0 0 1-9.02 6.005c-.774.506-1.235.812-1.235.812l2.002 18.62-5.938 6.577 20.724 9.283-8.761 22.864-2.776 7.235.24.093 12.732 6.291.053-.106s5.338-10.142 12.29-15.715c6.954-5.566 13.659-9.403 20.11-11.996 6.46-2.6 21.106-9.776 21.106-9.776l-1.601-1.47-3.116-2.86 2.975-3.464 6.272 4.761a107.076 107.076 0 0 0 11.096-3.89c8.355-3.431 16.708-8.033 24.775-13.732-.26-.286-.527-.579-.8-.872-6.046-6.457-16.18-14.996-25.75-22.63M243.01 207.053c-12.545 4.216-27.304 8.998-30.334 9.204-5.458.372-18.122 1.33-18.122 1.33l-2.482 1.982-.033.066 21.878 10.82-44.09 4.622-14.826 1.55-3.017 7.667 32.975-4.994 27.35-4.144.521-1.529 18.236 8.286 12.283 5.58c.034-.705.167-3.665.32-7.322.215-5.194.468-11.791.542-15.282.126-6.311-.621-17.816-.621-17.816l-.58-.02zM160.118 132.532c3.176-1.816 6.305-3.512 8.78-4.742.194-.1.387-.193.575-.28a43.268 43.268 0 0 1 2.335-1.07c.154-.066.306-.126.454-.186h.007c.8-.333 1.568-.632 2.288-.878l-.02-.053-5.998-19.172-.02-.054c-.181-.053-.761-.226-1.689-.438a46.313 46.313 0 0 0-6.165-.945c-.9-.073-1.861-.133-2.876-.16-.247-.013-.5-.013-.754-.02-6.892-.092-12.945 1.69-16.388 3.731-3.443 2.042-8.007 8.06-12.103 14.085-4.09 6.025-10.943 18.102-13.92 26.175l.015.007 15.446 6.916.94.426.081-.173s13.799-13.573 20.63-18.155c.248-.166.489-.326.722-.466a275.956 275.956 0 0 1 7.66-4.548"/>
        <path fill="#FFC900" d="M306.897 48.893L305.283 38.5l-2.416-5.566s-11.115 18.68-15.646 24.499c-4.53 5.812-22.527 22.271-22.527 22.271l-5.985 2.148.027.073s-3.816 7.661-7.673 17.31c-2.282 5.72-4.584 12.137-6.106 18.076a146.183 146.183 0 0 0-1.594 6.976c-.274 1.31-.54 2.646-.794 4.01a747.542 747.542 0 0 1 4.197 3.318c9.569 7.634 19.703 16.173 25.75 22.63.272.293.539.586.8.872a137.529 137.529 0 0 0 6.411-4.808 54.572 54.572 0 0 1-5.478-6.145c-2.942-3.864-5.591-8.705-7.7-13.487-3.25-7.321-5.23-14.49-5.084-17.709.247-5.32.747-15.82 10.055-18.048 9.308-2.228 12.631 5.985 13.158 10.407.527 4.422 1.989 10.933 4.344 16.44.747 1.742 1.748 4.01 3.103 6.297l.033-.02s8.381-12.895 9.028-17.723c.654-4.821-10.235-27.185-10.235-27.185l2.228-7.335s8.567-4.263 10.242-6.804c1.676-2.533 2.049-11.318 2.049-11.318l4.784-3.405-3.357-5.38zM257.322 236.932l4.39-36.29s-8.64 3.026-18.703 6.41l.58.02s.748 11.506.622 17.817c-.074 3.49-.328 10.088-.541 15.281-.154 3.658-.287 6.617-.32 7.322l-12.284-5.58-18.236-8.285-.52 1.53-27.35 4.142-32.976 4.995-.133.02-64.055-40.832.734-3.585.907-4.449-.026-.006s-16.328 6.25-14.153 18.314c2.175 12.064 4.47 18.308 83.792 40.58 79.329 22.27 121.532 10.08 121.532 10.08l-25.202-11.45 1.942-16.034zM166.71 100.312l-1.315-4.21-1.394-4.455-.84-2.687c-1.862 1.05-4.317.419-5.879-1.104-.227 3.06-.394 6.078-.353 8.745.02 1.463.126 2.946.306 4.422.14 1.184.327 2.368.554 3.532 1.015.026 1.975.086 2.875.16 2.663.232 4.792.63 6.166.943.928.213 1.508.386 1.689.44l-1.342-4.297-.467-1.49zM116.94 39.024h.121c.153 8.353 4.63 14.251 9.468 16.612 0 0-8.288 1.483-11.083-3.99-2.789-5.473 1.495-12.622 1.495-12.622m13.371 60.782c3.564-.365 6.586-3.498 8.474-6.504a18.5 18.5 0 0 0 1.581-3.072c1.369-3.465 4.644-14.304 5.139-19.498.467-4.901-1.755-14.318-2.009-15.369 1.034.06 2.022.213 2.955.52 3.044.99 5.652 3.318 7.628 6.038 1.88-2.9 5.177-4.902 8.607-4.576-1.214-1.642-1.481-4.11-.153-5.659 1.327-1.55 4.323-1.377 5.07.519-.32-3.166.888-6.498 3.257-8.579-3.81-11.624-12.619-26.015-27.39-26.84-9.202-.512-16.442 3.026-20.992 8.027l-.113-.107s-11.03 2.627-15.62 5.966c-3.71 2.7-7.027 5.858-8.294 12.389l-.008.006c-.3 1.55-.486 3.292-.533 5.267-.247 10.268 7.573 24.626 11.55 30.684 3.97 6.065 16.014 21.28 20.851 20.788"/>
        <g transform="translate(198.17 .411)">
            <mask id="b" fill="#fff">
                <use xlink:href="#a"/>
            </mask>
            <path fill="#FFB89E" d="M116.167 13.948C92.039-8.456 48.809-2.558 12.81 25.712A146.071 146.071 0 0 0 .161 36.897c4.303 2.095 7.326 6.804 7.125 11.618 3.83-1.563 8.367-1.862 12.01.093 3.057 1.636 5.152 4.649 6.5 7.84 1.4 3.326 1.961 7.529-.407 10.262 2.849-1.802 6.892-1.077 9.274 1.31 2.376 2.38 3.136 6.098 2.356 9.363-.788 3.272-2.956 6.099-5.633 8.147 1.356.326 2.557 1.516 3.27 2.706 1.401 2.321 2.002 5.168 1.422 7.814-.575 2.647-2.382 5.054-4.871 6.152.56 1.044 1.134 2.101 1.428 3.252.293 1.15.287 2.42-.267 3.464-.421.812-1.134 1.43-1.902 1.929-1.808 1.19-3.983 1.782-6.152 1.742v.04a743.581 743.581 0 0 0 20.084 15.255c.254-1.363.52-2.7.794-4.01.507-2.467 1.04-4.828 1.595-6.976 1.521-5.938 3.823-12.355 6.105-18.075 3.857-9.649 7.674-17.31 7.674-17.31l-.027-.073-9.362 3.352-10.535 3.777s4.15-6.085 8.173-13.008c2.016-3.471 4.004-7.149 5.418-10.374 4.217-9.656 11.543-30.065 13.032-32.852 1.494-2.786 5.958-12.309 18.996-14.663 13.031-2.348 19.55 5.014 19.55 5.014l13.038 14.105-7.873.871 1.074 9.104 4.344 8.014-6.132 4.868s-.574 7.082-.941 9.682c-.374 2.6-10.803 7.967-10.803 7.967l-1.194 5.1s9.668 23.136 9.541 26.727c-.12 3.585-9.014 19.512-9.014 19.512l2.83 3.012c35.563-40.479 42.683-92.436 15.486-117.7" mask="url(#b)"/>
        </g>
        <path fill="#FFB89E" d="M188.009 217.647c-2.803 2.872-6.006 6.19-6.613 6.995-1.114 1.483-2.402 2.6-3.65 1.61-1.24-.991-.32-3.837 1.041-5.939.48-.745 1.849-2.8 3.704-5.4l-3.137-1.55-12.73-6.29-.24-.093-8.829 23.036-1.734 4.522-.82 2.088 14.825-1.55 44.092-4.621-21.88-10.82-4.03-1.988zM157.79 104.554a47.984 47.984 0 0 1-.555-3.53c-.613-.593-4.617-4.423-6.565-4.995-2.109-.618-4.838-.432-5.96-.738a42.44 42.44 0 0 1-1.473-.466l-.014.034s1.829 8.286-12.197 16.452c-14.025 8.166-31.874-2.101-31.874-2.101-.687.611-2.055 1.496-3.716 2.54-3.71 2.307-8.86 5.36-11.177 7.727-2.862 2.933-4.777 10.48-9.501 15.276l.066.066s6.332 7.176 7.574 13.606c1.24 6.438.867 18.069.867 18.069v.166c5.471-.053 8.941-.286 10.055.2.68.292 1.262.631 1.755.984l5.258-25.723 14.292 6.404c2.977-8.073 9.829-20.15 13.92-26.175 4.096-6.025 8.66-12.043 12.103-14.085 3.443-2.041 9.495-3.824 16.387-3.73.254.006.507.006.754.02M55.615 68.258c-1.149 2.594-3.65 5.427-3.77 7.468-.127 2.042 1.134 7.688 1.134 7.688l-4.904 1.855s-.888-5.912-1.321-8.692c-.434-2.786 3.536-7.488 3.756-10.66.147-2.148.02-5.174-2.188-6.783-1.041-.758-2.556-1.204-4.732-1.084-6.765.372-7.619 12.615-7.619 12.615l-5.898-.572s1.734-16.312 11.602-18.108c4.798-.871 7.92.06 9.976 1.483 2.175 1.504 3.156 3.565 3.65 4.629.967 2.055 1.461 7.56.314 10.161zm-2.95 25.916c-1.608 0-2.915-1.55-2.915-3.465 0-1.909 1.307-3.465 2.915-3.465s2.916 1.556 2.916 3.465c0 1.915-1.308 3.465-2.916 3.465zM80.255 70.3s-5.244-8.353-6.111-10.64c-.874-2.295-1.061-5.76-1.061-5.76l5.685 6.192-1.621-9.503-2.196-12.862-15.24 4.776-59.71 18.7 4.336 14.883 2.249 7.727c.86-.639 3.816-3.172 4.43-5.906.62-2.786 1.862-9.403 1.862-9.403s2.916 5.04 2.608 11.259c-.313 6.218-1.46 13.885-1.12 15.714.167.871 2.128 7.062 4.804 13.945l17.869-6.696 45.405-17.018L80.256 70.3z"/>
        <g transform="translate(343.63 44.302)">
            <mask id="d" fill="#fff">
                <use xlink:href="#c"/>
            </mask>
            <path fill="#56638C" d="M42.904 8.428L17.268.382.014 49.38l11.663 8.286c1.795-2.082 3.05-3.638 3.236-4.083.647-1.576.48-5.473.667-7.668.186-2.194 1.568-8.013 1.935-8.911.374-.891.654-2.161 1.869-2.846 1.207-.679 1.981.87 1.981.87l-.741 4.822s-.593 3.531 1.114 5.447c1.71 1.915 5.585-1.982 5.585-1.982l9.936-21.4s-.007.126-.013.359l5.658-13.846z" mask="url(#d)"/>
        </g>
        <path fill="#56638C" d="M284.432 18.083c-13.038 2.354-17.502 11.877-18.997 14.664-1.488 2.786-8.814 23.195-13.031 32.851-1.415 3.225-3.403 6.903-5.418 10.374-4.024 6.923-8.174 13.008-8.174 13.008l10.536-3.777 9.361-3.352 5.986-2.148s17.996-16.459 22.526-22.271c4.53-5.82 15.646-24.5 15.646-24.5l2.416 5.567 3.863-.426 7.874-.87-13.038-14.106s-6.52-7.361-19.55-5.014M273.315 155.116c-8.067 5.699-16.42 10.3-24.775 13.732a107.076 107.076 0 0 1-11.096 3.89l4.158 3.16s-16.26 8.904-22.466 11.624c-6.206 2.726-17.382 6.437-23.96 12.25-4.258 3.763-9.296 10.373-12.685 15.141a159.289 159.289 0 0 0-3.704 5.4c-1.361 2.102-2.282 4.948-1.04 5.939 1.248.99 2.535-.126 3.649-1.61.607-.804 3.81-4.122 6.612-6.995 2.362-2.414 4.438-4.51 4.438-4.51s15.64 0 19.737-1.236c4.097-1.237 34.382-11.511 41.582-13.985 7.206-2.474 31.287-12.123 32.281-15.342.84-2.713.614-10.374-7.933-21.713a79.509 79.509 0 0 0-4.798-5.745M171.528 107.275a3.296 3.296 0 1 1 0-6.59 3.302 3.302 0 0 1 3.302 3.298 3.3 3.3 0 0 1-3.302 3.292zm8.5 8.026l6.893-.186-8.848 4.456-.093-18.282 2.048 14.012zm11.483-13.313a3.3 3.3 0 0 1-3.302 3.292 3.296 3.296 0 1 1 0-6.59 3.302 3.302 0 0 1 3.302 3.298zm-1.708 33.543l2.516 5.1s9.962 2.6 18.53.838c8.567-1.762 12.01-6.217 12.01-6.217l-2.576-13.294-1.908-9.836-2.396-12.335c-.594-.772-1.134-1.583-1.668-2.395-.714-1.077-1.441-2.18-1.815-3.418-.373-1.237-.36-2.653.34-3.744-1.894-.193-3.81-.392-5.611-1.004-1.808-.605-3.516-1.67-4.55-3.272-1.075-1.662-1.308-3.717-1.515-5.686a27.846 27.846 0 0 1-13.912.02c-1.208-.312-2.482-.778-3.163-1.822-3.076 4.762-9.094 7.388-14.686 6.617a13.554 13.554 0 0 1-2.048-.439 7.993 7.993 0 0 1-1.775 2.44 7.97 7.97 0 0 1-2.496 1.63l.008.02.072.226.841 2.687 1.395 4.455.02-.006s.293-.951 2.635-1.656c.595-.18 1.315-.346 2.202-.479 4.377-.652 7.08 1.576 7.08 1.576s4.837-3.511 8.38-4.256c3.537-.738 8.007.266 8.007.266l1.95 5.28c-.248-.106-4.96-2.194-9.496-1.29-4.651.924-8.1 4.176-8.1 4.176s-4.098-2.134-7.26-1.669c-1.668.24-2.75.898-3.39 1.47a4.401 4.401 0 0 0-.714.798l.467 1.49 1.341 4.295.06.02-.039.034 5.998 19.172.02.053c-.72.246-1.488.545-2.289.878-.153.06-.307.12-.46.186-.66.273-1.448.639-2.335 1.07-.187.087-.38.18-.574.28-2.475 1.23-5.605 2.926-8.781 4.742a277.934 277.934 0 0 0-7.66 4.548c-.234.14-.474.3-.72.466-6.833 4.582-20.632 18.155-20.632 18.155l-.08.173 26.17 11.724 5.938-6.577-2.002-18.62s.46-.306 1.235-.812c1.894-1.25 5.65-3.73 9.02-6.005a1356.03 1356.03 0 0 0 3.363-2.28c.487-.34.935-.653 1.342-.939.788-.558 1.387-.997 1.721-1.27l11.99 4.436zM88.543 199.897h-.014l-.734 3.585 64.056 40.832.133-.02 3.017-7.668-.108.013zM56.669 100.917l-7.246 2.82c-.654.252-1.302-.047-1.448-.672a.997.997 0 0 1-.027-.246c0-.559.394-1.124.96-1.343l7.247-2.813c.66-.26 1.307.04 1.447.665.021.08.027.166.027.252 0 .552-.387 1.118-.96 1.337m32.615-1.975a4321.388 4321.388 0 0 0 6.145 12.801l.007.007c1.661-1.044 3.029-1.928 3.716-2.54 2.235-1.982 5.338-8.047 5.338-8.047s-9.775-6.77-13.652-16.452c-2.522-6.305-2.562-13.573-1.868-19.625-.167-.253-2.87-4.356-5.391-7.408-2.483-3-6.085-6.73-6.433-7.09l1.622 9.504-5.685-6.191s.187 3.464 1.06 5.759c.868 2.287 6.113 10.64 6.113 10.64l2.188 15.408-45.405 17.018-17.869 6.697c1.188 3.072 2.522 6.29 3.897 9.223l.02-.006 14.432-5.746L83.7 94.513l-.988-6.95c.18.287 4.991 8.04 6.573 11.379"/>
        <path fill="#323C59" d="M235.19 77.795c.78-3.266.02-6.983-2.356-9.364-2.383-2.387-6.426-3.112-9.275-1.31 2.369-2.733 1.808-6.936.407-10.261-1.348-3.192-3.442-6.205-6.499-7.84-3.643-1.956-8.18-1.656-12.01-.094.2-4.814-2.822-9.523-7.126-11.617a11.007 11.007 0 0 0-2.456-.872c-5.564-1.27-11.803 1.882-14.072 7.103-2.622-2.447-6.972-2.614-9.982-.652-.34.22-.66.466-.96.738-2.37 2.082-3.578 5.413-3.257 8.579-.747-1.895-3.743-2.068-5.07-.519-1.328 1.55-1.06 4.017.153 5.66-3.43-.326-6.726 1.675-8.608 4.575a10.032 10.032 0 0 0-1.454 3.577c-.874 4.642 1.368 9.523 4.964 12.602-1.768 2.308-2.622 5.527-1.434 8.173.266.592.653 1.131 1.127 1.583 1.561 1.523 4.017 2.155 5.879 1.104l-.074-.226-.007-.02a7.97 7.97 0 0 0 2.496-1.63 8.004 8.004 0 0 0 1.775-2.44c.674.2 1.354.346 2.048.44 5.592.77 11.61-1.856 14.686-6.618.68 1.044 1.955 1.51 3.162 1.822a27.849 27.849 0 0 0 13.913-.02c.207 1.969.44 4.024 1.515 5.686 1.034 1.603 2.742 2.667 4.55 3.272 1.802.612 3.717.811 5.612 1.004-.7 1.09-.714 2.507-.34 3.744.373 1.237 1.1 2.341 1.814 3.418.534.812 1.075 1.623 1.668 2.395l2.396 12.335a10.65 10.65 0 0 0 4.11.878c2.168.04 4.344-.552 6.152-1.742.767-.499 1.48-1.117 1.902-1.929.553-1.044.56-2.314.266-3.464-.293-1.15-.867-2.208-1.427-3.252 2.489-1.097 4.296-3.505 4.87-6.152.58-2.646-.02-5.493-1.42-7.813-.715-1.19-1.916-2.381-3.27-2.707 2.675-2.048 4.844-4.875 5.631-8.146"/>
        <path fill="#323C59" d="M185.713 91.28c-3.543.746-8.38 4.257-8.38 4.257s-2.702-2.228-7.08-1.576c-.887.133-1.607.3-2.202.479-2.341.705-2.635 1.656-2.635 1.656l-.02.006 1.315 4.21c.112-.167.34-.466.714-.798.64-.572 1.721-1.23 3.39-1.47 3.161-.465 7.258 1.67 7.258 1.67s3.45-3.253 8.1-4.177c4.538-.904 9.248 1.184 9.496 1.29l-1.95-5.28s-4.47-1.004-8.006-.266M188.209 98.69a3.296 3.296 0 0 0 0 6.59 3.3 3.3 0 0 0 3.302-3.292 3.302 3.302 0 0 0-3.302-3.299M177.98 101.29l.093 18.28 8.848-4.455-6.893.186zM131.026 155.873l-.94-.425-15.448-6.916-.026.02a.05.05 0 0 1 .013-.027l-14.292-6.404-5.258 25.723-4.308 21.105c-11.461-6.121-21.48-14.063-29.79-23.606 9.21 1.24 16.771 1.376 22.288 1.317v-.166s.373-11.631-.868-18.069c-1.24-6.43-7.572-13.606-7.572-13.606l-.068-.066c-.8.81-1.681 1.55-2.661 2.168-4.378 2.76-18.57.864-29.692-2.428l.313-.11a91.753 91.753 0 0 1-4.867-21.523l-.663.067a92.248 92.248 0 0 0 4.824 21.447c-5.907-1.78-10.89-3.943-12.993-5.992-1.874-1.836-3.957-5.493-5.952-9.735-1.374-2.934-2.708-6.152-3.896-9.225-2.675-6.883-4.638-13.074-4.805-13.945-.34-1.829.808-9.496 1.121-15.714.308-6.218-2.608-11.259-2.608-11.259s-1.242 6.617-1.861 9.403c-.614 2.734-3.57 5.267-4.432 5.906l-2.248-7.727C4.217 76.47.22 88.866.22 93.369c0 4.582 7.567 29.447 9.435 35.385 1.862 5.939 7.072 26.481 34.756 33.41a150.44 150.44 0 0 0 16.06 3.113l-.251.216c8.433 9.758 18.635 17.863 30.321 24.09l.158-.292-1.262 6.157-.907 4.45h.013l66.35 36.741.108-.013.82-2.088 1.734-4.522 8.828-23.036 2.776-7.236 8.76-22.863-20.723-9.283-26.17-11.725zM174.83 103.983a3.302 3.302 0 0 0-3.302-3.299 3.296 3.296 0 0 0 0 6.59 3.3 3.3 0 0 0 3.303-3.291M99.152 109.21s17.849 10.267 31.874 2.101c14.026-8.166 12.197-16.452 12.197-16.452l.014-.034c-1.602-.532-3.85-1.316-4.45-1.523-1.889 3.006-4.912 6.139-8.475 6.504-4.837.492-16.88-14.723-20.851-20.788-3.977-6.058-11.797-20.416-11.55-30.684.047-1.975.234-3.717.533-5.267-1.567 1.889-6.698 8.36-7.98 13.68a69.66 69.66 0 0 0-1.494 8.339c-.694 6.052-.654 13.32 1.868 19.624 3.877 9.683 13.652 16.453 13.652 16.453s-3.103 6.065-5.338 8.047"/>
        <path fill="#323C59" d="M48.909 101.476c-.568.219-.96.784-.96 1.343 0 .08.005.166.026.246.146.625.794.924 1.448.672l7.246-2.82c.573-.22.96-.785.96-1.337 0-.086-.006-.173-.027-.252-.14-.626-.786-.925-1.447-.665l-7.246 2.813zM55.581 90.709c0-1.909-1.307-3.465-2.915-3.465S49.75 88.8 49.75 90.71c0 1.915 1.308 3.465 2.916 3.465 1.608 0 2.915-1.55 2.915-3.465M43.59 58.05c2.176-.12 3.69.326 4.732 1.084 2.208 1.61 2.335 4.635 2.188 6.783-.22 3.173-4.19 7.874-3.757 10.66.435 2.78 1.322 8.692 1.322 8.692l4.904-1.855s-1.26-5.646-1.135-7.688c.12-2.041 2.623-4.874 3.771-7.468 1.147-2.6.653-8.106-.314-10.161-.493-1.064-1.474-3.126-3.65-4.629-2.055-1.423-5.178-2.354-9.975-1.483-9.868 1.796-11.604 18.109-11.604 18.109l5.899.572s.854-12.243 7.62-12.616M144.097 4.75c24.534 0 47.593 7.482 66.685 21.64l.399-.534c-19.209-14.243-42.406-21.771-67.084-21.771-33.273 0-64.124 13.924-84.641 38.203l.51.429c20.39-24.13 51.055-37.967 84.131-37.967"/>
        <path fill="#FFB89E" d="M257.415 237.25l-.187-.637c33.601-9.851 55.314-31.188 55.314-54.358 0-7.153-1.994-14.146-5.926-20.786l.576-.338c3.993 6.744 6.017 13.85 6.017 21.124 0 11.787-5.384 23.213-15.57 33.041-9.897 9.55-23.807 17.142-40.224 21.955"/>
    </g>
</svg>
