<?xml version="1.0" encoding="utf-8"?>
<svg xmlns="http://www.w3.org/2000/svg">
<symbol id="svg-add-image"><g fill="none" fill-rule="evenodd"><path d="M21 39H5c-2.208 0-4-1.792-4-4V5c0-2.208 1.792-4 4-4h34c2.208 0 4 1.792 4 4v14" stroke-opacity=".498" stroke="#404040" stroke-width="2" stroke-linecap="round" stroke-linejoin="round"/><path stroke-opacity=".498" stroke="#404040" stroke-width="2" stroke-linecap="round" stroke-linejoin="round" d="M5 33l12-12 4 4 14-14 4 4M19 11a6 6 0 11-12 0 6 6 0 0112 0z"/><path d="M42.25 36.25h-4v4c0 1.106-.894 2-2 2-1.106 0-2-.894-2-2v-4h-4c-1.106 0-2-.894-2-2 0-1.106.894-2 2-2h4v-4c0-1.106.894-2 2-2 1.106 0 2 .894 2 2v4h4c1.106 0 2 .894 2 2 0 1.106-.894 2-2 2m-6-14.5c-6.904 0-12.5 5.596-12.5 12.5s5.596 12.5 12.5 12.5 12.5-5.596 12.5-12.5-5.596-12.5-12.5-12.5" fill-opacity=".498" fill="#404040"/></g>
</symbol>
<symbol id="svg-arrow-down"><path d="M18.7 13.3c-.4-.4-1-.4-1.4 0L13 17.6V4c0-.6-.4-1-1-1s-1 .4-1 1v13.6l-4.3-4.3c-.4-.4-1-.4-1.4 0s-.4 1 0 1.4l6 6c.1.1.2.2.3.2.1.1.3.1.4.1s.3 0 .4-.1c.1-.1.2-.1.3-.2l6-6c.4-.4.4-1 0-1.4z"/>
</symbol>
<symbol id="svg-arrow"><path d="M15.991 30.982c8.285 0 15-6.716 15-15s-6.715-15-15-15C7.708.982.992 7.698.992 15.982s6.716 14.999 14.999 14.999zm1.031-24.771l.058.045c.034.028.069.06.102.094l.004.003 7.495 7.495a1.688 1.688 0 11-2.386 2.388L17.68 11.62v12.801a1.688 1.688 0 01-3.375 0V11.62l-4.616 4.615a1.686 1.686 0 11-2.387-2.386l7.497-7.496a1.34 1.34 0 01.153-.134c.012-.009.026-.02.038-.027a1.678 1.678 0 012.005 0l.027.021z"/>
</symbol>
<symbol id="svg-arrowhead-right"><path fill="#FFC900" d="M1 12a1 1 0 01-.707-1.707L4.586 6 .293 1.707A1 1 0 011.707.293l5 5a1 1 0 010 1.414l-5 5A1 1 0 011 12z"/>
</symbol>
<symbol id="svg-at-sign"><path d="M12 1C9.1 1 6.3 2.1 4.2 4.2S1 9.1 1 12c0 6.1 4.9 11 11 11 2.4 0 4.8-.8 6.7-2.3.4-.3.5-1 .2-1.4s-1-.5-1.4-.2C15.9 20.3 14 21 12 21c-5 0-9-4-9-9 0-2.4.9-4.7 2.6-6.4S9.6 3 12 3c5 0 9 4 9 9v1c0 1.1-.9 2-2 2s-2-.9-2-2v-1c0-2.8-2.2-5-5-5s-5 2.2-5 5 2.2 5 5 5c1.5 0 2.8-.7 3.7-1.7.7 1 1.9 1.7 3.3 1.7 2.2 0 4-1.8 4-4v-1c0-6.1-4.9-11-11-11zm0 14c-1.7 0-3-1.3-3-3s1.3-3 3-3 3 1.3 3 3-1.3 3-3 3z"/>
</symbol>
<symbol id="svg-bug-animated"><g stroke="#505050" stroke-width="4" fill="none" fill-rule="evenodd"><path d="M26.043 27.063S15.916 8.44 7.151 9.38c-4.616.495-5.442 5.373-4.33 8.985 1.153 3.748 6.407 10.243 15.77 9.497l7.452-.8"/><path d="M26.55 27.341S8.88 15.63 10.58 6.98c.896-4.555 5.828-4.953 9.33-3.53 3.632 1.475 9.644 7.275 8.085 16.537l-1.447 7.354zm.018 6.42s.444 5.972 4.188 6.824c0 0-1.618 6.516-9.049 9.02-10.911 3.678-14.226-.768-14.738-3.56-1.215-6.623 6.375-11.92 10.724-12.661 6.434-1.096 8.875.376 8.875.376zM38.35 37.68c-3.573 0-6.47-3.106-6.47-6.936 0-3.831 2.897-6.936 6.47-6.936 3.574 0 6.471 3.105 6.471 6.936 0 3.83-2.897 6.936-6.47 6.936z" fill="#FFC900"/><path d="M27.66 43.814l7.145 3.992 1.775 6.511M21.435 48.717l5.695 5.689-.327 6.597M14.568 51.07l1.052 7.527-4.561 4.851"/></g>
</symbol>
<symbol id="svg-bug"><path d="M30.976 17.872V16h-5.653c-.172-2.127-.93-4.066-2.097-5.623h4.736l2.05-8.197-1.816-.455-1.694 6.778h-5.109l-.079-.06a5.568 5.568 0 00.303-1.82c0-3.094-2.514-5.601-5.616-5.601s-5.616 2.508-5.616 5.601a5.6 5.6 0 00.303 1.82l-.079.06H5.5L3.806 1.725 1.99 2.18l2.05 8.197h4.736C7.61 11.934 6.852 13.874 6.679 16H1.026v1.872h5.655c.11 1.335.453 2.598.985 3.736H4.04l-2.05 8.197 1.816.455L5.5 23.482h3.287c1.717 2.282 4.311 3.736 7.214 3.736s5.498-1.454 7.215-3.736h3.287l1.694 6.778 1.816-.455-2.05-8.197h-3.626c.53-1.138.872-2.402.985-3.736h5.655z"/>
</symbol>
<symbol id="svg-bulb"><g fill="none" fill-rule="evenodd"><path d="M3.774 378.677c3.611 38.37 30.935 65.26 76.317 65.26 45.383 0 72.706-26.89 76.318-65.26 2.826-38.843-10.05-50.951-27.167-75.955-5.496-7.863-8.95-16.512-11.149-24.689 0 0-51.664.63-51.82 0H42.246c-2.199 8.177-5.654 16.826-11.15 24.69-17.273 25.003-30.15 37.111-27.323 75.954z" stroke="#505050" stroke-width="5.5"/><path d="M124.57 371.852c-.436-.653-.87-1.089-1.522-5.007L96.312 285c-2.826.435-1.74.435-2.826.435H91.53c-1.304.436-.87 1.96-.435 3.265l25.214 76.84c-6.086-3.048-13.694-4.354-19.997-2.395-1.304.435-2.609 1.088-3.695 1.741l-10.651-3.265c-4.565 0-9.13 1.524-12.39 4.136-1.956-1.088-4.13-1.741-6.521-2.394-7.173-1.742-13.477-1.307-18.693 1.306l24.78-75.75c.434-1.307.869-3.484.651-3.484-5.651-.217-5.651.218-5.434 1.742l-27.17 83.151c-.218.218-.435.435-.653.87-.869 1.09-.652 2.613.435 3.484 1.087.87 2.609.653 3.478-.436 5-6.312 12.172-8.271 21.302-5.877 1.087.218 2.608.653 4.13 1.524-1.522 2.394-2.391 5.224-2.174 7.836.217 5.66 2.174 9.578 5.217 11.101 1.739.871 3.695.871 5.434-.217 2.608-1.742 3.912-5.878 3.478-11.102-.218-3.265-1.74-6.095-4.13-8.489 4.13-2.612 10.433-2.83 14.998-.435-1.739 2.394-2.608 5.442-2.826 8.924-.217 5.007 1.304 8.925 4.13 10.666 1.74 1.089 3.913 1.089 5.869.218 2.826-1.741 4.565-5.66 4.347-10.666 0-3.265-1.304-6.53-3.478-9.142.435-.218.653-.218 1.087-.436 7.608-2.394 18.694 1.96 22.824 6.966.869 1.088 2.39 1.306 3.477.435 1.087-1.088 1.305-2.612.435-3.7zm-53.255 12.407h-.218c-.652-.435-2.173-2.394-2.39-6.748 0-1.741.434-3.482 1.304-5.006 1.521 1.306 2.39 3.047 2.608 5.224.435 3.918-.435 6.095-1.304 6.53zm21.954-.435h-.218s-.217 0-.434-.218c-.653-.435-1.957-2.177-1.74-6.095.218-2.394.653-4.353 1.74-6.095 1.521 1.742 2.39 3.7 2.39 5.878 0 4.353-1.086 6.094-1.738 6.53z" fill="#505050"/><path d="M81.333 195.5V2.5" stroke="#505050" stroke-width="5" stroke-linecap="square"/><path d="M112.297 222.967H50.83c.109-.644.24-1.323.398-2.032.795-3.584 2.067-7.166 3.91-10.489 5.207-9.382 13.85-14.946 27.089-14.946 13.21 0 21.557 5.532 26.319 14.87 1.689 3.31 2.797 6.883 3.43 10.46.133.747.238 1.462.32 2.137zM45.5 255.57h71v11.944h-71V255.57zm3-22.014h66V245.5h-66v-11.944z" stroke="#505050" stroke-width="5"/></g>
</symbol>
<symbol id="svg-check-issue"><path fill="#FFF" d="M4.333 13c-.287 0-.562-.114-.766-.317l-3.25-3.25A1.083 1.083 0 011.85 7.9l2.337 2.337L11.028.463a1.083 1.083 0 011.776 1.241L5.22 12.537a1.083 1.083 0 01-.793.463.935.935 0 01-.095 0z"/>
</symbol>
<symbol id="svg-check"><path d="M20.7 5.3c-.4-.4-1-.4-1.4 0L9 15.6l-4.3-4.3c-.4-.4-1-.4-1.4 0s-.4 1 0 1.4l5 5c.2.2.4.3.7.3s.5-.1.7-.3l11-11c.4-.4.4-1 0-1.4z"/>
</symbol>
<symbol id="svg-checkbox-checked"><path d="M27.25 1H4.75A3.761 3.761 0 001 4.75v22.5A3.761 3.761 0 004.75 31h22.5A3.761 3.761 0 0031 27.25V4.75A3.761 3.761 0 0027.25 1zM14.125 24.276l-6.951-6.951 2.651-2.651 4.299 4.299 8.987-8.987 2.651 2.651-11.638 11.638z"/>
</symbol>
<symbol id="svg-checkbox-unchecked"><path d="M26.5 2h-21A3.51 3.51 0 002 5.5v21A3.51 3.51 0 005.5 30h21a3.51 3.51 0 003.5-3.5v-21A3.51 3.51 0 0026.5 2zm0 24.5h-21v-21h21v21z"/>
</symbol>
<symbol id="svg-checkmark"><path d="M15.733.3c-.355-.4-.889-.4-1.244 0L5.333 10.6 1.511 6.3c-.355-.4-.889-.4-1.244 0-.356.4-.356 1 0 1.4l4.444 5c.178.2.356.3.622.3.267 0 .445-.1.623-.3l9.777-11c.356-.4.356-1 0-1.4z" fill-rule="nonzero" fill="#58B010"/>
</symbol>
<symbol id="svg-chevron-right"><path d="M15.7 11.3l-6-6c-.4-.4-1-.4-1.4 0s-.4 1 0 1.4l5.3 5.3-5.3 5.3c-.4.4-.4 1 0 1.4.2.2.4.3.7.3s.5-.1.7-.3l6-6c.4-.4.4-1 0-1.4z"/>
</symbol>
<symbol id="svg-chevrons-right"><path d="M18.7 11.3l-5-5c-.4-.4-1-.4-1.4 0s-.4 1 0 1.4l4.3 4.3-4.3 4.3c-.4.4-.4 1 0 1.4.2.2.5.3.7.3s.5-.1.7-.3l5-5c.4-.4.4-1 0-1.4z"/><path d="M11.7 11.3l-5-5c-.4-.4-1-.4-1.4 0s-.4 1 0 1.4L9.6 12l-4.3 4.3c-.4.4-.4 1 0 1.4.2.2.4.3.7.3s.5-.1.7-.3l5-5c.4-.4.4-1 0-1.4z"/>
</symbol>
<symbol id="svg-chrome"><path fill="#404040" d="M13.953 0A13.9 13.9 0 0121 1.875a14.04 14.04 0 015.5 5.812l-11.594-.609c-3.281-.187-6.406 1.656-7.484 4.75L3.11 5.203C5.798 1.859 9.829.016 13.954 0h-.001zM2.281 6.328l5.266 10.359c1.484 2.922 4.625 4.703 7.875 4.094l-3.594 7.047C5.125 26.797 0 21 0 14c0-2.828.844-5.469 2.281-7.672zm24.781 2.641c2.453 6.312 0 13.656-6.062 17.156a13.962 13.962 0 01-7.781 1.859l6.328-9.734c1.797-2.766 1.766-6.375-.375-8.875l7.89-.406zM14 9.281A4.715 4.715 0 0118.719 14 4.714 4.714 0 0114 18.719 4.714 4.714 0 019.281 14 4.714 4.714 0 0114 9.281z"/>
</symbol>
<symbol id="svg-circle-down"><path d="M31 16c0-8.284-6.716-15-15-15S1 7.716 1 16s6.716 15 15 15 15-6.716 15-15zM3.813 16c0-6.731 5.456-12.188 12.188-12.188S28.189 9.268 28.189 16s-5.456 12.188-12.188 12.188S3.813 22.732 3.813 16z"/><path d="M10.294 11.393l-2.651 2.651L16 22.401l8.357-8.357-2.651-2.651L16 17.099z"/>
</symbol>
<symbol id="svg-circle-left"><path d="M16 31c8.284 0 15-6.716 15-15S24.284 1 16 1 1 7.716 1 16s6.716 15 15 15zm0-27.187c6.731 0 12.188 5.456 12.188 12.188S22.732 28.189 16 28.189 3.812 22.733 3.812 16.001 9.268 3.813 16 3.813z"/><path d="M20.607 10.294l-2.651-2.651L9.599 16l8.357 8.357 2.651-2.651L14.901 16z"/>
</symbol>
<symbol id="svg-circle-right"><path d="M16 1C7.716 1 1 7.716 1 16s6.716 15 15 15 15-6.716 15-15S24.284 1 16 1zm0 27.188C9.269 28.188 3.812 22.732 3.812 16S9.268 3.812 16 3.812 28.188 9.268 28.188 16 22.732 28.188 16 28.188z"/><path d="M11.393 21.706l2.651 2.651L22.401 16l-8.357-8.357-2.651 2.651L17.099 16z"/>
</symbol>
<symbol id="svg-circle-up"><path d="M1 16c0 8.284 6.716 15 15 15s15-6.716 15-15S24.284 1 16 1 1 7.716 1 16zm27.188 0c0 6.731-5.456 12.188-12.188 12.188S3.812 22.732 3.812 16 9.268 3.812 16 3.812 28.188 9.268 28.188 16z"/><path d="M21.706 20.607l2.651-2.651L16 9.599l-8.357 8.357 2.651 2.651L16 14.901z"/>
</symbol>
<symbol id="svg-cloud2"><path d="M11 5a4.005 4.005 0 013.991 4.274C14.849 11.398 12.988 13 10.859 13h-5.77c-1.044 0-1.978-.761-2.079-1.8A2.002 2.002 0 015 9c.059 0 .116.005.173.01l.772.066a1 1 0 001.028-.666l.256-.731A4.004 4.004 0 0111 5zm0-2a5.998 5.998 0 00-5.658 4.017A4 4 0 105 15h6a6 6 0 000-12z"/>
</symbol>
<symbol id="svg-cross-white"><path fill="#FFF" d="M8.426 6.988l5.293-5.293A1 1 0 0012.305.28L7.012 5.574 1.72.28A1 1 0 00.305 1.695l5.293 5.293L.305 12.28a1 1 0 101.414 1.414l5.293-5.293 5.293 5.293a1 1 0 001.414-1.414L8.426 6.988z"/>
</symbol>
<symbol id="svg-cross2"><path d="M18 15L29.357 3.643c.857-.857.857-2.143 0-3-.857-.857-2.143-.857-3 0L15 12 3.643.643c-.857-.857-2.143-.857-3 0-.857.857-.857 2.143 0 3L12 15 .643 26.357c-.857.857-.857 2.143 0 3 .428.429.857.643 1.5.643s1.071-.214 1.5-.643L15 18l11.357 11.357c.429.429 1.072.643 1.5.643.429 0 1.072-.214 1.5-.643.857-.857.857-2.143 0-3L18 15z" fill-rule="nonzero" fill="#CC1717"/>
</symbol>
<symbol id="svg-download"><path d="M30.205 13.615a34.903 34.903 0 00-.16-2.052c-.496-4.844-4.361-8.818-9.184-9.419-5.204-.649-9.767 2.487-11.355 7.026-.199-.018-.4-.03-.604-.03-3.902 0-7.129 3.184-7.129 7.093v1.771c0 .969.844 1.756 1.81 1.756h.036c.965 0 1.703-.83 1.703-1.797v-1.397c-.204-2.11 1.515-3.886 3.58-3.886.103 0 .204.009.306.018l1.369-.018c.804.068 1.545-.283 1.812-1.044l.384-1.097c.932-2.665 3.284-4.663 6.091-4.912 4.347-.386 8.101 3.278 7.812 7.614l-.005.372v4.555h.018c.052.926.864 1.666 1.801 1.666h.036c.923 0 1.627-.757 1.691-1.666h.012v-4.555h-.02z"/><path d="M20.056 22.159L17.768 24.5v-6.459c0-.972-.784-1.76-1.751-1.76h-.036c-.967 0-1.751.788-1.751 1.76v6.188l-.229-.037-1.988-1.98c-.628-.624-1.632-.777-2.35-.26a1.76 1.76 0 00-.226 2.686l5.372 5.348a1.773 1.773 0 002.506 0l5.248-5.333c.692-.688.692-1.804 0-2.494s-1.815-.69-2.507 0z"/>
</symbol>
<symbol id="svg-download2"><path d="M21 16c-.6 0-1 .4-1 1v3c0 .6-.4 1-1 1H5c-.6 0-1-.4-1-1v-3c0-.6-.4-1-1-1s-1 .4-1 1v3c0 1.7 1.3 3 3 3h14c1.7 0 3-1.3 3-3v-3c0-.6-.4-1-1-1z"/><path d="M11.3 16.7c.1.1.2.2.3.2.1.1.3.1.4.1s.3 0 .4-.1c.1-.1.2-.1.3-.2l4-4c.4-.4.4-1 0-1.4s-1-.4-1.4 0L13 13.6V2c0-.6-.4-1-1-1s-1 .4-1 1v11.6l-2.3-2.3c-.4-.4-1-.4-1.4 0s-.4 1 0 1.4l4 4z"/>
</symbol>
<symbol id="svg-edge"><path fill="#404040" d="M.078 12.422h.016C.906 5.953 5.328-.015 13.235 0c4.797 0 8.75 2.25 11.062 6.391 1.188 2.141 1.625 4.422 1.625 6.906v2.938H8.344c.078 7.25 10.656 7 15.219 3.813v5.891c-2.672 1.609-8.703 3-13.406 1.203-3.984-1.531-6.766-5.672-6.813-9.703-.063-5.203 2.578-8.656 6.813-10.625-.891 1.125-1.578 2.344-1.937 4.453h9.922c.578-5.922-5.609-5.922-5.609-5.922C6.689 5.548 2.47 8.954.08 12.423l-.002-.001z"/>
</symbol>
<symbol id="svg-external-link"><path d="M18 12c-.6 0-1 .4-1 1v6c0 .6-.4 1-1 1H5c-.6 0-1-.4-1-1V8c0-.6.4-1 1-1h6c.6 0 1-.4 1-1s-.4-1-1-1H5C3.3 5 2 6.3 2 8v11c0 1.7 1.3 3 3 3h11c1.7 0 3-1.3 3-3v-6c0-.6-.4-1-1-1z"/><path d="M21.9 2.6c-.1-.2-.3-.4-.5-.5-.1-.1-.3-.1-.4-.1h-6c-.6 0-1 .4-1 1s.4 1 1 1h3.6l-9.3 9.3c-.4.4-.4 1 0 1.4.2.2.4.3.7.3s.5-.1.7-.3L20 5.4V9c0 .6.4 1 1 1s1-.4 1-1V3c0-.1 0-.3-.1-.4z"/>
</symbol>
<symbol id="svg-filter"><path d="M22.9 2.6c-.2-.4-.5-.6-.9-.6H2c-.4 0-.7.2-.9.6-.2.3-.1.7.1 1L9 12.8V19c0 .4.2.7.6.9l4 2c.1.1.2.1.4.1s.4 0 .5-.1c.3-.2.5-.5.5-.9v-8.2l7.8-9.2c.2-.3.3-.7.1-1zm-9.7 9.2c-.1.2-.2.4-.2.7v6.9l-2-1v-5.9c0-.2-.1-.5-.2-.6L4.2 4h15.7l-6.7 7.8z"/>
</symbol>
<symbol id="svg-github2"><path d="M22.5 8.5c0-1.5-.5-2.8-1.4-4 .3-1.3.2-2.7-.3-3.9-.1-.3-.3-.5-.6-.6-.4-.1-1.7-.3-4.4 1.4-2.2-.5-4.5-.5-6.6 0C6.5-.3 5.2-.1 4.8 0c-.3.1-.5.3-.6.6-.6 1.3-.7 2.6-.3 3.9-.9 1.2-1.4 2.6-1.4 4 0 5.4 3 7.1 5.8 7.7-.2.7-.3 1.3-.3 1.9v.1c-2.1.4-2.8-.4-3.6-1.5-.5-.7-1.1-1.5-2.2-1.7-.5-.1-1.1.2-1.2.7s.2 1.1.7 1.2c.3.1.7.5 1.1 1 .9 1.2 2.2 2.8 5.2 2.4V22c0 .6.4 1 1 1s1-.4 1-1v-2.9-1c0-.7.2-1.3.7-1.8.3-.3.4-.7.2-1-.1-.4-.4-.6-.8-.7-2.9-.4-5.6-1.3-5.6-6 0-1.2.4-2.2 1.2-3.1.3-.3.3-.7.2-1-.3-.9-.3-1.7-.1-2.5.5.1 1.4.4 2.6 1.3.3.2.6.2.9.1 2.1-.6 4.4-.6 6.5 0 .3.1.6 0 .8-.1 1.3-.9 2.2-1.2 2.6-1.3.2.8.2 1.6-.1 2.4-.1.4-.1.8.2 1 .8.8 1.2 1.9 1.2 3.1 0 4.7-2.7 5.7-5.6 6-.4 0-.7.3-.8.7s0 .8.2 1c.5.5.7 1.2.7 1.9V22c0 .6.4 1 1 1s1-.4 1-1v-3.8c.1-.7 0-1.3-.3-1.9 2.4-.5 5.8-2.1 5.8-7.8z"/>
</symbol>
<symbol id="svg-hash"><path d="M20 14h-4.2l.4-4H20c.6 0 1-.4 1-1s-.4-1-1-1h-3.5l.5-4.9c.1-.5-.3-1-.9-1.1-.5-.1-1 .3-1.1.9L14.4 8h-4l.6-4.9c.1-.5-.3-1-.9-1.1-.5-.1-1 .3-1.1.9L8.4 8H4c-.6 0-1 .4-1 1s.4 1 1 1h4.2l-.4 4H4c-.6 0-1 .4-1 1s.4 1 1 1h3.5L7 20.9c-.1.5.3 1 .9 1.1H8c.5 0 .9-.4 1-.9l.6-5.1h4l-.6 4.9c-.1.5.3 1 .9 1.1h.1c.5 0 .9-.4 1-.9l.6-5.1H20c.6 0 1-.4 1-1s-.4-1-1-1zM9.8 14l.4-4h4l-.4 4h-4z"/>
</symbol>
<symbol id="svg-home"><path d="M21.6 8.2l-9-7c-.4-.3-.9-.3-1.2 0l-9 7c-.3.2-.4.5-.4.8v11c0 1.7 1.3 3 3 3h14c1.7 0 3-1.3 3-3V9c0-.3-.1-.6-.4-.8zM14 21h-4v-8h4v8zm6-1c0 .6-.4 1-1 1h-3v-9c0-.6-.4-1-1-1H9c-.6 0-1 .4-1 1v9H5c-.6 0-1-.4-1-1V9.5l8-6.2 8 6.2V20z"/>
</symbol>
<symbol id="svg-ie"><path fill="#404040" d="M28 14.641c0 .547-.031 1.094-.109 1.625H9.907c0 3.109 2.734 5.359 5.734 5.359 2.031 0 3.984-1 5.031-2.766h6.609a12.604 12.604 0 01-11.859 8.375c-1.922 0-3.844-.453-5.563-1.297-1.75.891-4.203 1.813-6.156 1.813C1.078 27.75 0 26.141 0 23.641c0-1.453.313-2.906.703-4.297.25-.906 1.25-2.75 1.703-3.578 1.922-3.484 4.453-6.828 7.422-9.469-2.391 1.031-4.984 3.625-6.672 5.531a12.585 12.585 0 0112.266-9.766c.234 0 .469 0 .703.016C18.062 1.187 20.766.25 22.891.25c2.531 0 4.703.969 4.703 3.828 0 1.5-.578 3.125-1.172 4.469A12.605 12.605 0 0128 14.641zm-1.094-10c0-1.75-1.25-2.828-2.969-2.828-1.313 0-2.797.531-3.969 1.094a12.69 12.69 0 016.141 5.109c.391-1.031.797-2.281.797-3.375zM2 23.969c0 1.813 1.078 2.797 2.859 2.797 1.391 0 2.938-.625 4.156-1.297a12.587 12.587 0 01-5.484-6.687C2.812 20.282 2 22.282 2 23.969zm7.875-11.141H21.25c-.109-3.016-2.766-5.187-5.688-5.187-2.938 0-5.578 2.172-5.688 5.187h.001z"/>
</symbol>
<symbol id="svg-info-icon"><g fill="#FFB89E"><path d="M24 48C10.745 48 0 37.255 0 24S10.745 0 24 0s24 10.745 24 24c-.015 13.249-10.751 23.985-24 24zm0-42C14.059 6 6 14.059 6 24s8.059 18 18 18 18-8.059 18-18c-.01-9.937-8.063-17.99-18-18z"/><path d="M24 21a3 3 0 00-3 3v9a3 3 0 006 0v-9a3 3 0 00-3-3z"/><circle cx="24" cy="15" r="3.564"/></g>
</symbol>
<symbol id="svg-leaf_left"><path d="M20.91 7.693a6.57 6.57 0 01-1.656 4.371 6.257 6.257 0 01-4.754 2.102.547.547 0 01-.531-.497A6.581 6.581 0 0115.59 8.63a6.34 6.34 0 011.128-.993h-3.372l.001.055a6.57 6.57 0 01-1.655 4.372 6.256 6.256 0 01-4.755 2.101.547.547 0 01-.53-.497A6.582 6.582 0 018.028 8.63c.34-.379.719-.71 1.128-.993h-.97c-.884 1.348-2.378 2.173-3.973 2.173-1.7 0-3.288-.939-4.141-2.45a.567.567 0 010-.555c.853-1.511 2.44-2.45 4.141-2.45 1.595 0 3.09.825 3.973 2.173h.97a6.344 6.344 0 01-1.128-.993A6.581 6.581 0 016.407.498a.547.547 0 01.531-.497 6.257 6.257 0 014.755 2.102 6.568 6.568 0 011.655 4.37l-.001.056h3.371a6.34 6.34 0 01-1.127-.993A6.581 6.581 0 0113.969.5a.547.547 0 01.53-.498 6.257 6.257 0 014.755 2.102 6.568 6.568 0 011.656 4.371l-.002.055h3.372a6.344 6.344 0 01-1.127-.993A6.581 6.581 0 0121.53.5.547.547 0 0122.061 0a6.257 6.257 0 014.755 2.102 6.568 6.568 0 011.655 4.371l-.001.055h1.59c.3 0 .542.249.542.555a.548.548 0 01-.541.555H28.47l.001.055a6.57 6.57 0 01-1.655 4.371 6.256 6.256 0 01-4.755 2.102.547.547 0 01-.53-.498 6.581 6.581 0 011.622-5.037c.338-.38.718-.71 1.127-.993h-3.372l.002.054zm-4.316 1.874a5.171 5.171 0 00-1.293 3.467 4.89 4.89 0 003.24-1.633 5.171 5.171 0 001.294-3.467 4.89 4.89 0 00-3.24 1.633zm-7.933 0a5.161 5.161 0 00-1.294 3.467 4.89 4.89 0 003.24-1.633 5.17 5.17 0 001.294-3.467 4.89 4.89 0 00-3.24 1.633zm1.947-6.8a4.89 4.89 0 00-3.24-1.634A5.157 5.157 0 008.66 4.6a4.89 4.89 0 003.24 1.634 5.17 5.17 0 00-1.293-3.467zm9.227 3.432a5.171 5.171 0 00-1.294-3.432 4.89 4.89 0 00-3.24-1.634A5.165 5.165 0 0016.594 4.6a4.89 4.89 0 003.24 1.634v-.035zm7.367 0a5.171 5.171 0 00-1.293-3.432 4.89 4.89 0 00-3.24-1.634v.036c0 1.264.457 2.491 1.293 3.431a4.89 4.89 0 003.24 1.634v-.035zm-3.24 3.368a5.18 5.18 0 00-1.294 3.467 4.89 4.89 0 003.24-1.633 5.171 5.171 0 001.294-3.467 4.89 4.89 0 00-3.24 1.633zM4.25 5.667c-1.242 0-2.408.644-3.117 1.7.709 1.057 1.875 1.7 3.117 1.7 1.243 0 2.409-.643 3.117-1.7-.708-1.056-1.874-1.7-3.117-1.7z" fill-rule="nonzero" fill="#FFC800"/>
</symbol>
<symbol id="svg-leaf_right"><path d="M10.09 7.693a6.57 6.57 0 001.656 4.371 6.257 6.257 0 004.754 2.102.547.547 0 00.531-.497A6.581 6.581 0 0015.41 8.63a6.34 6.34 0 00-1.128-.993h3.372l-.001.055a6.57 6.57 0 001.655 4.372 6.256 6.256 0 004.755 2.101.547.547 0 00.53-.497 6.582 6.582 0 00-1.621-5.038 6.337 6.337 0 00-1.128-.993h.97c.884 1.348 2.378 2.173 3.973 2.173 1.7 0 3.288-.939 4.141-2.45a.567.567 0 000-.555c-.853-1.511-2.44-2.45-4.141-2.45-1.595 0-3.09.825-3.973 2.173h-.97a6.344 6.344 0 001.128-.993A6.581 6.581 0 0024.593.498a.547.547 0 00-.531-.497 6.257 6.257 0 00-4.755 2.102 6.568 6.568 0 00-1.655 4.37l.001.056h-3.371a6.34 6.34 0 001.127-.993A6.581 6.581 0 0017.031.5a.547.547 0 00-.53-.498 6.257 6.257 0 00-4.755 2.102 6.568 6.568 0 00-1.656 4.371l.002.055H6.72a6.344 6.344 0 001.127-.993A6.581 6.581 0 009.47.5.547.547 0 008.939 0a6.257 6.257 0 00-4.755 2.102A6.568 6.568 0 002.53 6.474l.001.055H.94c-.3 0-.542.249-.542.555 0 .307.242.555.541.555H2.53l-.001.055a6.57 6.57 0 001.655 4.371 6.256 6.256 0 004.755 2.102.547.547 0 00.53-.498 6.581 6.581 0 00-1.622-5.037 6.337 6.337 0 00-1.127-.993h3.372l-.002.054zm4.316 1.874a5.171 5.171 0 011.293 3.467 4.89 4.89 0 01-3.24-1.633 5.171 5.171 0 01-1.294-3.432v-.035a4.89 4.89 0 013.24 1.633zm7.933 0a5.161 5.161 0 011.294 3.467 4.89 4.89 0 01-3.24-1.633 5.17 5.17 0 01-1.294-3.467 4.89 4.89 0 013.24 1.633zm-1.947-6.8a4.89 4.89 0 013.24-1.634A5.157 5.157 0 0122.34 4.6a4.89 4.89 0 01-3.24 1.634 5.17 5.17 0 011.293-3.467zm-9.227 3.432c0-1.265.458-2.492 1.294-3.432a4.89 4.89 0 013.24-1.634A5.165 5.165 0 0114.406 4.6a4.89 4.89 0 01-3.24 1.634v-.035zm-7.367 0c0-1.265.458-2.492 1.293-3.432a4.89 4.89 0 013.24-1.634v.036A5.171 5.171 0 017.039 4.6a4.89 4.89 0 01-3.24 1.634v-.035zm3.24 3.368a5.18 5.18 0 011.294 3.467 4.89 4.89 0 01-3.24-1.633 5.171 5.171 0 01-1.294-3.432v-.035a4.89 4.89 0 013.24 1.633zm19.712-3.9c1.242 0 2.408.644 3.117 1.7-.709 1.057-1.875 1.7-3.117 1.7-1.243 0-2.409-.643-3.117-1.7.708-1.056 1.874-1.7 3.117-1.7z" fill-rule="nonzero" fill="#FFC800"/>
</symbol>
<symbol id="svg-left"><path d="M16 1.778C8.146 1.778 1.778 8.146 1.778 16S8.146 30.222 16 30.222 30.222 23.854 30.222 16 23.854 1.778 16 1.778zm0 24.889c-5.883 0-10.667-4.784-10.667-10.667S10.117 5.333 16 5.333 26.667 10.117 26.667 16 21.883 26.667 16 26.667z"/><path d="M21.351 14.226h-6.459l2.341-2.299c.69-.697.69-1.822 0-2.519s-1.806-.695-2.494 0l-5.333 5.275a1.788 1.788 0 00-.515 1.32c.002.019-.002.041-.002.06 0 .473.187.926.517 1.26l5.333 5.275c.69.695 1.806.695 2.494 0s.69-1.822 0-2.519l-2.341-2.3h6.459a1.76 1.76 0 001.76-1.76v-.032a1.76 1.76 0 00-1.76-1.76z"/>
</symbol>
<symbol id="svg-link-2"><path d="M18 6h-3c-.6 0-1 .4-1 1s.4 1 1 1h3c2.2 0 4 1.8 4 4s-1.8 4-4 4h-3c-.6 0-1 .4-1 1s.4 1 1 1h3c3.3 0 6-2.7 6-6s-2.7-6-6-6zM9 16H6c-2.2 0-4-1.8-4-4s1.8-4 4-4h3c.6 0 1-.4 1-1s-.4-1-1-1H6c-3.3 0-6 2.7-6 6s2.7 6 6 6h3c.6 0 1-.4 1-1s-.4-1-1-1z"/><path d="M7 12c0 .6.4 1 1 1h8c.6 0 1-.4 1-1s-.4-1-1-1H8c-.6 0-1 .4-1 1z"/>
</symbol>
<symbol id="svg-log-in"><path d="M19 1h-5c-.6 0-1 .4-1 1s.4 1 1 1h5c.6 0 1 .4 1 1v16c0 .6-.4 1-1 1h-5c-.6 0-1 .4-1 1s.4 1 1 1h5c1.7 0 3-1.3 3-3V4c0-1.7-1.3-3-3-3z"/><path d="M15.9 12.4c.1-.2.1-.5 0-.8-.1-.1-.1-.2-.2-.3l-4-4c-.4-.4-1-.4-1.4 0s-.4 1 0 1.4l2.3 2.3H3c-.6 0-1 .4-1 1s.4 1 1 1h9.6l-2.3 2.3c-.4.4-.4 1 0 1.4.2.2.5.3.7.3s.5-.1.7-.3l4-4c.1-.1.2-.2.2-.3z"/>
</symbol>
<symbol id="svg-log-out"><path d="M10 21H5c-.6 0-1-.4-1-1V4c0-.6.4-1 1-1h5c.6 0 1-.4 1-1s-.4-1-1-1H5C3.3 1 2 2.3 2 4v16c0 1.7 1.3 3 3 3h5c.6 0 1-.4 1-1s-.4-1-1-1z"/><path d="M21.9 12.4c.1-.2.1-.5 0-.8-.1-.1-.1-.2-.2-.3l-4-4c-.4-.4-1-.4-1.4 0s-.4 1 0 1.4l2.3 2.3H9c-.6 0-1 .4-1 1s.4 1 1 1h9.6l-2.3 2.3c-.4.4-.4 1 0 1.4.2.2.5.3.7.3s.5-.1.7-.3l4-4c.1-.1.2-.2.2-.3z"/>
</symbol>
<symbol id="svg-mail"><path d="M20 3H4C2.3 3 1 4.3 1 6v12c0 1.7 1.3 3 3 3h16c1.7 0 3-1.3 3-3V6c0-1.7-1.3-3-3-3zM4 5h16c.4 0 .7.2.9.6L12 11.8 3.1 5.6c.2-.4.5-.6.9-.6zm16 14H4c-.6 0-1-.4-1-1V7.9l8.4 5.9c.2.1.4.2.6.2s.4-.1.6-.2L21 7.9V18c0 .6-.4 1-1 1z"/>
</symbol>
<symbol id="svg-menu2"><path d="M21 11H3c-.6 0-1 .4-1 1s.4 1 1 1h18c.6 0 1-.4 1-1s-.4-1-1-1zM3 7h18c.6 0 1-.4 1-1s-.4-1-1-1H3c-.6 0-1 .4-1 1s.4 1 1 1zM21 17H3c-.6 0-1 .4-1 1s.4 1 1 1h18c.6 0 1-.4 1-1s-.4-1-1-1z"/>
</symbol>
<symbol id="svg-message-square"><path d="M19 2H5C3.3 2 2 3.3 2 5v16c0 .4.2.8.6.9.1.1.3.1.4.1.3 0 .5-.1.7-.3L7.4 18H19c1.7 0 3-1.3 3-3V5c0-1.7-1.3-3-3-3zm1 13c0 .6-.4 1-1 1H7c-.3 0-.5.1-.7.3L4 18.6V5c0-.6.4-1 1-1h14c.6 0 1 .4 1 1v10z"/>
</symbol>
<symbol id="svg-minus"><path d="M19 11H5c-.6 0-1 .4-1 1s.4 1 1 1h14c.6 0 1-.4 1-1s-.4-1-1-1z"/>
</symbol>
<symbol id="svg-opera"><path fill="#404040" d="M22.524 3.44a9.72 9.72 0 00-5.416-1.66c-3.213 0-6.05 1.645-8.04 4.12-1.45 1.81-2.46 4.374-2.535 7.3v.634c.075 2.926 1.086 5.492 2.534 7.301 1.992 2.474 4.828 4.12 8.041 4.12a9.716 9.716 0 005.416-1.66 13.442 13.442 0 01-9.007 3.44c-.211 0-.437 0-.649-.016C5.702 26.687 0 20.773 0 13.517 0 6.05 6.05 0 13.517 0h.046a13.499 13.499 0 018.96 3.44zm4.51 10.077c0 3.938-1.69 7.468-4.374 9.942a6.424 6.424 0 01-3.35.95c-1.387 0-2.7-.453-3.846-1.267 3.062-1.117 5.326-4.994 5.326-9.626 0-4.616-2.248-8.493-5.31-9.625 1.146-.8 2.443-1.252 3.831-1.252 1.223 0 2.369.346 3.41.98a13.482 13.482 0 014.314 9.897v.001z"/>
</symbol>
<symbol id="svg-pin"><path fill="#FFC900" fill-rule="evenodd" d="M10.699 25.222a2 2 0 01-3.398 0C2.434 17.392 0 11.985 0 9a9 9 0 0118 0c0 2.985-2.434 8.392-7.301 16.222zM9 14A5 5 0 109 4a5 5 0 000 10z"/>
</symbol>
<symbol id="svg-plus"><path d="M19 11h-6V5c0-.6-.4-1-1-1s-1 .4-1 1v6H5c-.6 0-1 .4-1 1s.4 1 1 1h6v6c0 .6.4 1 1 1s1-.4 1-1v-6h6c.6 0 1-.4 1-1s-.4-1-1-1z"/>
</symbol>
<symbol id="svg-problem-broken-design"><g fill="none" fill-rule="evenodd" stroke-width="2"><path stroke="#FFF" d="M9 11h9V1"/><path stroke="#FFC800" d="M42 30v19H8V35l8-6v6l12-8v8l14-10z"/><path stroke="#FFF" d="M42 19l-8 6v-8l-12 8v-8L8 27V11L18 1h24v15z"/></g>
</symbol>
<symbol id="svg-problem-mobile-vs-desktop"><g fill="none" fill-rule="evenodd" stroke-width="2"><path stroke="#FFF" d="M29 49h14c1.106 0 2-.894 2-2V3a2 2 0 00-2-2H29"/><path stroke="#FFF" d="M29 41h12V7H29"/><path stroke="#FFF" stroke-linecap="round" stroke-linejoin="round" d="M29 45h4"/><path stroke="#FFF" d="M29 5H7a2 2 0 00-2 2v28a2 2 0 002 2h16v6H13v4h16"/><path stroke="#FFF" d="M29 9H9v24h20"/><path stroke="#FFC800" d="M29 0v50"/></g>
</symbol>
<symbol id="svg-problem-no-use"><g fill="none" fill-rule="evenodd" stroke-width="2"><path stroke="#FFF" d="M9 4.546v38l10-8 6 12 6-2-6-12h10z"/><path stroke="#FFC800" d="M37.242 3.475L33 7.72l-4.242-4.244-2.828 2.83 4.242 4.242-4.242 4.242 2.828 2.828L33 13.375l4.242 4.242 2.828-2.828-4.242-4.242 4.242-4.242z"/></g>
</symbol>
<symbol id="svg-problem-no-video"><g fill="none" fill-rule="evenodd" stroke-width="2"><path stroke="#FFC800" d="M39.242 29.93L35 34.172l-4.242-4.242-2.828 2.828L32.172 37l-4.242 4.242 2.828 2.828L35 39.828l4.242 4.242 2.828-2.828L37.828 37l4.242-4.242z"/><path stroke="#FFF" stroke-linecap="round" d="M26.99 37H5a4 4 0 01-4-4V9a4 4 0 014-4h40c2.208 0 4 1.792 4 4v24c0 2.208-1.792 4-4 4h-2.104"/><path stroke="#FFF" d="M19 14.737v12.526c0 1.598 1.78 2.55 3.11 1.664l9.394-6.264a2 2 0 000-3.328l-9.394-6.262c-1.33-.886-3.11.066-3.11 1.664z"/></g>
</symbol>
<symbol id="svg-problem-question"><defs><path id="a" d="M0 50h32.224V0H0z"/></defs><g fill="none" fill-rule="evenodd" transform="translate(8)"><path stroke="#FFF" stroke-width="2" d="M1.225 9s6-8 14-8 16 4 16 12-10 12-10 18v6h-10v-6c0-6 10-12 10-16s-2-6-6-6-10 6-10 6l-4-6z"/><mask id="b" fill="#fff"><use xlink:href="#a"/></mask><path stroke="#FFF" stroke-width="2" d="M11.224 49h10v-6h-10z" mask="url(#b)"/></g>
</symbol>
<symbol id="svg-radio-checked"><path d="M16 1C7.716 1 1 7.716 1 16s6.716 15 15 15 15-6.716 15-15S24.284 1 16 1zm0 26.25C9.786 27.25 4.75 22.214 4.75 16S9.786 4.75 16 4.75 27.25 9.786 27.25 16 22.214 27.25 16 27.25zM10.375 16a5.624 5.624 0 1111.25 0 5.624 5.624 0 11-11.25 0z"/>
</symbol>
<symbol id="svg-radio-checked2"><path d="M16 1C7.716 1 1 7.716 1 16s6.716 15 15 15 15-6.716 15-15S24.284 1 16 1zm0 18.75c-2.072 0-3.75-1.678-3.75-3.75s1.678-3.75 3.75-3.75 3.75 1.678 3.75 3.75-1.678 3.75-3.75 3.75z"/>
</symbol>
<symbol id="svg-radio-unchecked"><path d="M16 1C7.716 1 1 7.716 1 16s6.716 15 15 15 15-6.716 15-15S24.284 1 16 1zm0 26.25C9.786 27.25 4.75 22.214 4.75 16S9.786 4.75 16 4.75 27.25 9.786 27.25 16 22.214 27.25 16 27.25z"/>
</symbol>
<symbol id="svg-safari"><path fill="#404040" d="M14.828 13.953c0 .516-.359 1-.906 1-.516 0-1-.375-1-.906 0-.516.375-1 .922-1 .5 0 .984.359.984.906zm.234.906l5.469-9.078c-.734.688-7.578 6.984-7.766 7.313l-5.453 9.063c.719-.672 7.578-7 7.75-7.297v-.001zM25.172 14c0 2.047-.562 4.062-1.625 5.797-.156-.078-.812-.547-.938-.547a.207.207 0 00-.203.203c0 .203.734.578.922.688a11.229 11.229 0 01-6.656 4.703l-.25-1.047c-.016-.141-.109-.156-.234-.156-.109 0-.172.156-.156.234l.25 1.062c-.75.156-1.516.234-2.281.234-2.047 0-4.062-.578-5.812-1.641.094-.156.688-1.016.688-1.141a.207.207 0 00-.203-.203c-.219 0-.688.938-.828 1.125a11.24 11.24 0 01-4.719-6.75l1.078-.234c.125-.031.156-.125.156-.234 0-.109-.156-.172-.25-.156l-1.062.234a11.222 11.222 0 01-.219-2.172c0-2.094.594-4.156 1.703-5.922.156.094.906.609 1.031.609.109 0 .203-.078.203-.187 0-.219-.828-.641-1.016-.766 1.594-2.328 4.016-4 6.766-4.625l.234 1.047c.031.125.125.156.234.156.109 0 .172-.156.156-.25l-.234-1.031c.69-.13 1.391-.198 2.094-.203a11.2 11.2 0 015.922 1.703c-.109.156-.609.891-.609 1.016 0 .109.078.203.187.203.219 0 .641-.812.75-1a11.165 11.165 0 014.609 6.672l-.875.187c-.141.031-.156.125-.156.25 0 .109.156.172.234.156l.891-.203c.141.719.219 1.453.219 2.187l-.001.002zm1.328 0c0-6.906-5.594-12.5-12.5-12.5S1.5 7.094 1.5 14 7.094 26.5 14 26.5 26.5 20.906 26.5 14zm1.5 0c0 7.734-6.266 14-14 14S0 21.734 0 14 6.266 0 14 0s14 6.266 14 14z"/>
</symbol>
<symbol id="svg-search2"><path d="M21.7 20.3l-4.5-4.5c1.1-1.4 1.8-3.3 1.8-5.3C19 5.8 15.2 2 10.5 2S2 5.8 2 10.5 5.8 19 10.5 19c2 0 3.8-.7 5.3-1.8l4.5 4.5c.2.2.5.3.7.3s.5-.1.7-.3c.4-.4.4-1 0-1.4zM4 10.5C4 6.9 6.9 4 10.5 4S17 6.9 17 10.5c0 1.8-.7 3.4-1.9 4.6a6.42 6.42 0 01-4.6 1.9C6.9 17 4 14.1 4 10.5z"/>
</symbol>
<symbol id="svg-settings"><path d="M12 8c-2.2 0-4 1.8-4 4s1.8 4 4 4 4-1.8 4-4-1.8-4-4-4zm0 6c-1.1 0-2-.9-2-2s.9-2 2-2 2 .9 2 2-.9 2-2 2z"/><path d="M20.3 15.4c.1-.2.3-.4.7-.4 1.7 0 3-1.3 3-3s-1.3-3-3-3h-.2c-.2 0-.4-.1-.5-.3l-.1-.2c-.1-.2-.1-.5.2-.8 1.1-1.1 1.2-2.7.3-3.9v-.3l-.4-.2c-.5-.5-1.2-.8-2-.8s-1.6.3-2.2.9c-.2.2-.5.2-.7.1-.2.1-.4-.2-.4-.5 0-1.7-1.3-3-3-3S9 1.3 9 3v.2c0 .2-.1.4-.3.5l-.2.1c-.2.1-.5 0-.8-.2-1.2-1.2-3.1-1.2-4.2 0-1.2 1.2-1.2 3.1.1 4.3.2.2.2.5.1.8-.1.2-.4.4-.7.4-1.7 0-3 1.3-3 3s1.3 3 3 3h.2c.3 0 .5.2.6.4s.1.5-.2.8c-.6.6-.9 1.3-.9 2.1 0 .7.3 1.4.8 2l.1.1.3.3c1.2.9 2.8.8 4-.3.2-.2.5-.2.8-.1s.4.3.4.7c0 1.7 1.3 3 3 3s3-1.3 3-3v-.2c0-.3.2-.5.4-.6s.5-.1.8.2c1.2 1.2 3.1 1.2 4.2 0 1.2-1.2 1.2-3.1-.1-4.3-.1-.3-.2-.6-.1-.8zm-1.2 2.2c.2.2.3.4.3.7s-.1.5-.3.7c-.2.2-.4.3-.7.3-.3 0-.5-.1-.8-.4-.8-.8-1.9-1-2.9-.5-1 .4-1.6 1.4-1.6 2.4v.2c0 .6-.4 1-1 1s-1-.4-1-1v-.1c0-1.1-.7-2-1.7-2.4-.3-.2-.7-.2-1.1-.2-.7 0-1.4.3-1.9.8-.4.4-.9.4-1.3.1l-.2-.4h-.1c-.1-.1-.1-.3-.1-.4 0-.3.1-.5.4-.8.8-.8 1-1.9.5-2.9-.4-1-1.4-1.6-2.4-1.6H3c-.6 0-1-.4-1-1s.4-1 1-1h.1c1.1 0 2-.7 2.4-1.7s.2-2.1-.6-3c-.4-.4-.4-1 0-1.4s1-.4 1.5.1c.7.7 1.8.9 2.7.6l.3-.1c1-.4 1.6-1.4 1.6-2.4V3c0-.6.4-1 1-1s1 .4 1 1.1c0 1.1.6 2 1.6 2.4s2.1.2 3-.6c.2-.2.4-.3.7-.3.3 0 .5.1.7.3.4.4.4 1-.1 1.5-.7.7-.9 1.8-.6 2.7l.1.3c.4 1 1.4 1.6 2.4 1.6h.2c.6 0 1 .4 1 1s-.4 1-1.1 1c-1.1 0-2 .6-2.4 1.6-.5 1-.2 2.1.6 3z"/>
</symbol>
<symbol id="svg-slack"><path d="M23 8.7c-1.3-4.2-2.8-6.6-5.1-7.8-2.1-1.2-5-1.2-9.2.1C.6 3.4-1.5 7.3 1 15.3c1.8 6 4.4 8.7 8.9 8.7 1.6 0 3.3-.3 5.4-.9 8-2.5 10.2-6.4 7.7-14.4zm-8.3 12.4c-7 2.1-9.7.6-11.8-6.4C.8 7.8 2.3 5 9.3 2.9c2-.6 3.6-.9 4.9-.9 1.1 0 2.1.2 2.9.6 1.7.9 3 3 4.1 6.6 2 7 .5 9.8-6.5 11.9z"/><path d="M17.7 11.6l-1.9.7-1-2.8 1.9-.7c.5-.2.8-.7.6-1.3-.2-.5-.7-.8-1.3-.6l-1.9.7-.7-1.9c-.2-.5-.7-.8-1.3-.6-.5.2-.8.7-.6 1.3l.7 1.9-2.8 1-.6-2c-.2-.5-.8-.8-1.3-.6-.5.1-.8.7-.6 1.2l.7 1.9-1.9.7c-.5.2-.8.7-.6 1.3.1.4.5.7.9.7.1 0 .2 0 .3-.1l1.9-.7 1 2.8-1.9.7c-.5.2-.8.7-.6 1.3.1.4.5.7.9.7.1 0 .2 0 .3-.1l1.9-.7.7 1.9c.1.4.5.7.9.7.1 0 .2 0 .3-.1.5-.2.8-.7.6-1.3l-.7-1.9 2.8-1 .7 1.9c.1.4.5.7.9.7.1 0 .2 0 .3-.1.5-.2.8-.7.6-1.3l-.7-1.9 1.9-.7c.5-.2.8-.7.6-1.3.1-.3-.5-.6-1-.4zm-6.6 2.3l-1-2.8 2.8-1 1 2.8-2.8 1z"/>
</symbol>
<symbol id="svg-sliders"><path d="M128 352c19.2 0 32-12.8 32-32V96c0-19.2-12.8-32-32-32S96 76.8 96 96v224c0 19.2 12.8 32 32 32zM384 352c-19.2 0-32 12.8-32 32v288c0 19.2 12.8 32 32 32s32-12.8 32-32V384c0-19.2-12.8-32-32-32zM640 416c19.2 0 32-12.8 32-32V96c0-19.2-12.8-32-32-32s-32 12.8-32 32v288c0 19.2 12.8 32 32 32zM224 416H32c-19.2 0-32 12.8-32 32s12.8 32 32 32h64v192c0 19.2 12.8 32 32 32s32-12.8 32-32V480h64c19.2 0 32-12.8 32-32s-12.8-32-32-32zM480 224h-64V96c0-19.2-12.8-32-32-32s-32 12.8-32 32v128h-64c-19.2 0-32 12.8-32 32s12.8 32 32 32h192c19.2 0 32-12.8 32-32s-12.8-32-32-32zM736 480H544c-19.2 0-32 12.8-32 32s12.8 32 32 32h64v128c0 19.2 12.8 32 32 32s32-12.8 32-32V544h64c19.2 0 32-12.8 32-32s-12.8-32-32-32z"/>
</symbol>
<symbol id="svg-spinner8"><path d="M16 30.944c-3.992 0-7.745-1.554-10.568-4.377s-4.377-6.576-4.377-10.568c0-2.826.794-5.578 2.294-7.96a14.984 14.984 0 015.965-5.408l1.255 2.505A12.195 12.195 0 005.72 9.533a12.105 12.105 0 00-1.862 6.465C3.858 22.693 9.305 28.14 16 28.14s12.142-5.447 12.142-12.142c0-2.298-.645-4.532-1.862-6.465a12.166 12.166 0 00-4.849-4.397l1.255-2.505a14.984 14.984 0 015.965 5.408 14.909 14.909 0 012.294 7.96c0 3.992-1.554 7.745-4.377 10.568S19.993 30.944 16 30.944z"/>
</symbol>
<symbol id="svg-step-arrow"><path fill="none" stroke="#CACADC" stroke-linecap="round" stroke-linejoin="round" stroke-width="4" d="M2 2l18 18L38 2"/>
</symbol>
<symbol id="svg-subproblem-no-audio"><g fill="none" fill-rule="evenodd" stroke-width="2"><path stroke="#FFF" stroke-linecap="round" stroke-linejoin="round" d="M1 31h10V15H1zm24 12L11 31V15L25 3z"/><path stroke="#FFC901" d="M45.242 31.93L41 36.172l-4.242-4.242-2.828 2.828L38.172 39l-4.242 4.242 2.828 2.828L41 41.828l4.242 4.242 2.828-2.828L43.828 39l4.242-4.242z"/><path stroke="#FFF" stroke-linecap="round" stroke-linejoin="round" d="M38.984 7.016C43.844 10.664 47 16.456 47 23m0 0c0 1.378-.14 2.722-.406 4.022m-6.182.001C40.794 25.75 41 24.4 41 23c0-4.89-2.51-9.186-6.308-11.69m-4.411 4.409C33.06 16.973 35 19.755 35 23c0 3.246-1.94 6.026-4.718 7.28"/></g>
</symbol>
<symbol id="svg-subproblem-cant-click"><g fill="none" fill-rule="evenodd" stroke-width="2"><path stroke="#FFF" stroke-linecap="round" d="M9 33V12c0-1.658 1.342-3 3-3s3 1.342 3 3v13h14a2 2 0 012 2v16l-6 6H9l-8-8V30a3 3 0 116 0v7"/><path stroke="#FFF" stroke-linecap="round" d="M5 15c-2.208 0-4-1.792-4-4V5c0-2.208 1.792-4 4-4h28c2.208 0 4 1.792 4 4v6c0 2.208-1.792 4-4 4H19"/><path stroke="#FFC901" d="M45.242 33.93L41 38.172l-4.242-4.242-2.828 2.828L38.172 41l-4.242 4.242 2.828 2.828L41 43.828l4.242 4.242 2.828-2.828L43.828 41l4.242-4.242z"/></g>
</symbol>
<symbol id="svg-subproblem-cant-login"><g fill="none" fill-rule="evenodd" stroke-width="2"><path stroke="#FFF" stroke-linecap="round" d="M26.816 42.637A20.154 20.154 0 0123 43C11.954 43 3 34.045 3 23S11.954 3 23 3c11.044 0 20 8.954 20 20 0 1.984-.29 3.9-.826 5.708"/><path stroke="#FFF" stroke-linecap="round" stroke-linejoin="round" d="M35.246 28.709a16.02 16.02 0 00-7.788-5.068A7.988 7.988 0 0031 17a8 8 0 00-16 0 7.992 7.992 0 003.54 6.64c-5.564 1.612-9.882 6.156-11.156 11.858"/><path stroke="#FFC901" d="M43.242 31.93L39 36.172l-4.242-4.242-2.828 2.828L36.172 39l-4.242 4.242 2.828 2.828L39 41.828l4.242 4.242 2.828-2.828L41.828 39l4.242-4.242z"/></g>
</symbol>
<symbol id="svg-subproblem-cant-type"><g fill="none" fill-rule="evenodd" stroke-width="2"><path stroke="#FFF" stroke-linecap="round" stroke-linejoin="round" d="M27 30H1V8h48v22h-2.29"/><path stroke="#FFF" stroke-linecap="round" stroke-linejoin="round" d="M5 14h2v-2H5zm6 0h2v-2h-2zm6 0h2v-2h-2zm6 0h2v-2h-2zm6 0h2v-2h-2zm6 0h2v-2h-2zm6 0h2v-2h-2zM7 20h2v-2H7zm6 0h2v-2h-2zm6 0h2v-2h-2zm6 0h2v-2h-2zm6 0h2v-2h-2zm6 0h2v-2h-2zm6 0h2v-2h-2zm-32 6h28v-2H11z"/><path stroke="#FFC901" d="M41.242 30.93L37 35.172l-4.242-4.242-2.828 2.828L34.172 38l-4.242 4.242 2.828 2.828L37 40.828l4.242 4.242 2.828-2.828L39.828 38l4.242-4.242z"/></g>
</symbol>
<symbol id="svg-subproblem-captcha"><g fill="none" fill-rule="evenodd"><path fill="#FFF" d="M10.615 26.719c-.272.006.536-.228.26-.042-.086.47.194 1.062-.012 1.712.536.778.148 1.482.504 2.188-.116.452-.662.722-.802.796-.402.338-.332.638-.31.714-.406-.178-.904.002-1.042.292-.7.018-.666.36-1.1.238-.672.362-1.868.53-2.154.166-.77-.244-1.752-.836-2.032-1.628-.862-.68-1.174-1.77-1.882-2.692-.402-1.31-.75-3.056-1.02-4.658a50.592 50.592 0 01.096-5.17c.03-.986.286-2.212.824-3.182.988-1.098 1.488-1.872 1.926-2.454.598-.444 1.558-.684 3.068-1.06.436.188 1.31.018 1.718-.028.336.212 1.55.254 1.544.526.366.334-.234.56.534.822.05.722-.28 1.04-.47 1.728-.026.512-.1.622.086 1.262-.268.42.072.676.092 1.116-.26.012-.922.02-.552.058-.21-.044-.946-3.984-1.532-3.978.202-.036-.51.092-.79-.042-.128.04-.638.194-.614.364-1.05-.21-.942.128-1.676.502-.544.474-.806 1.326-1.692 2.122.018.658-.432 1.858-.806 2.828-.164 1.32.098 2.782.54 4.2.074 1.124-.298 2.562.404 3.664.002.772.616 1.878 1.256 2.504.336.428.98.93 1.77 1.438.01.404 1.114.136 1.244.008.888.044 1.294-.15 1.102-.074.742-.59.586-.552.57-.832.306.222.618-3.67.948-3.408m6.905-10.692c.018.02.542-1.968.222-1.91.176-.186.118-.038.294-.12-.298.144-1.104 2.248-.944 2.234-.1-.022-2.888 6.99-3.036 7.004-.12.104-.71 1.188-.788 1.114-.044.026 1.476-.504 1.498-.558-.312.108 2.806-.596 2.746-.48.266-.126.296-7.314.008-7.284m2.618 13.23c.032.04-3.824 1.22-4.418 1.366.324-.408.32-.924.646-1.11.008-.13.432-.56 1.232-.85-.19-.04.374-4.094.068-4.062-.248.22-5.452 1.442-5.616 1.284-.092.058.396-.702.44-.816-.642.228 6.336-15.082 6.196-14.84.608-.25 1.014-.462.51-.388.29.01.226 13.01.13 12.958-.264.19 1.902-.2 2.02-.326.03-.134-.078 1.162-.074 1.2.228-.086-1.888.566-2.038.69-.192-.166-.026 3.958-.15 3.716.216.112 1.028.204 1.362.402.058.036.234.692-.308.776M27.8 15.545c-.816.094-1.464.616-1.618 1.13a6.394 6.394 0 00-.826 2.386c-.252.08-.642 7.838-.778 7.72.496.036.67.284.658.34.506.07.784-.06 1.218-.062.326-.178.602-.398 1.114-.828.274-.29.506-.88.85-1.418.174-.696.362-1.402.528-2.156.37-.768.288-1.566.372-2.426.076-.86.106-1.348.258-2.142.014-.448-.126-.958-.462-1.466.064-.392-.342-.608-.522-.912-.274-.186-.418-.372-.792-.166m-2.106 17.892c-.366-.016-4.246 1.236-3.806.994.032-.006.042-.756.174-.854-.072-.224.452-.372.538-.796.588-.228 1.322-16.216.734-16.178.574.052-.784-.088-.734.08-.128-.148-.274-.832.132-.92.296-.178.556-.622 1.17-.738.22-.382.552-.602.92-.734.396.008.392-.006.394.064.004-.208-.15 3.174.19 2.838.088.27-.018.278-.434.144.728-.936.716-1.572 1.382-2.41.488-.626 1.602-.944 2.188-1.08.824-.156 2.018-.008 2.632.884-.07 1.216.508 2.6-.236 5.072.154 1.292-.242 2.26-.154 3.224-.71.896-.79 1.564-1.334 2.512-.648.642-1.026 1.206-1.28 1.532-.784.64-1.02 1.062-1.75.958-.214.116-.494.366-.706.23-.714.034-1.094.174-.866-.342.064.078-.368 4.558-.478 4.348-.026.314.66.158.598.134-.036-.03.376.296.622.256-.424.096.01.584.104.782m6.963-19.587c.954-.467 1.416-.98 2.064-1.227-.252-.044.172-2.278.204-2.434.04.052.126-.18.55-.51.092-.206.394-.474.68-.678.166.09.258.02.324.222-.092.042-.376 3.486-.536 3.312.022-.02 3.004-.556 3.276-.568-.052.03-.254 1.294-.646 1.352.436.062-2.62.758-2.594.458-.208.108-1.192 7.842-.916 7.736-.45 1.354-.54 2.092-.056 2.116.176.566.484.728.966.436-.054.01.514.06.57-.09.564-.084.542-.096.9-.336-.22-.044.274.072-.114.402-.032.024-.358.33-.362.612.03.106-.408.268-.716.69-.272.076-.598.24-.59.354-.372.046-.712.41-.83.418-.806.116-1.136.048-1.464-.448-.088-.546-.582-1.386-.184-2.886.272-.226 1.126-8.518 1.278-8.496-.392.098-1.486.182-1.522.238-.3.118.1-.764-.282-.672m12.776 7.633c-.562.59-1.222 1.3-1.668 1.72-.26.452-1.038.868-1.87 1.196-.228-.016-1.206.08-1.486-.25-.452-.224-.894-.5-1.17-.996-.07-.65-.174-1.162-.238-1.988.102-.922.174-1.81.044-2.68.442-2.22 1.394-4.248 2.112-5.374 1.354-1.406 2.192-2.226 4.014-2.716.366-.036 1.018-.03 1.106.006 1.002.02 1.098.162 1.58.238-.144.758-.874 1.496-.908 2.174-.056.636-.7 1.298-.462 1.716-.518.262-.59.116-.83.296-.186.046-.3-2.918-.328-2.948.228-.302.298-.322-.008-.162.108-.164-.234-.036-.462-.136-.882.39-1.784.754-2.116 1.754-1.03.974-1.24 2.622-1.542 4.49-.194.62-.412 1.494-.402 2.002.208.64-.036 1.23.246 1.508.04.43.696.82.646 1.018.498.246.712.196 1.45.24.104-.066.632-.386 1.174-.768.134-.19.404-.43.85-.57-.25-.15.04.17.268.23"/><path stroke="#FFC901" stroke-width="2" d="M45.099 25.823l-4.242 4.244-4.242-4.244-2.828 2.83 4.242 4.242-4.242 4.242 2.828 2.828 4.242-4.242 4.242 4.242 2.828-2.828-4.242-4.242 4.242-4.242z"/></g>
</symbol>
<symbol id="svg-subproblem-does-not-play"><g fill="none" fill-rule="evenodd" stroke-width="2"><path stroke="#FFF" stroke-linecap="round" stroke-linejoin="round" d="M21.485 5v16l12-8z"/><path stroke="#FFF" stroke-linecap="round" stroke-linejoin="round" d="M25.485 25c-6.626 0-12-5.374-12-12s5.374-12 12-12 12 5.374 12 12c0 1.356-.224 2.66-.638 3.874"/><path stroke="#FFF" stroke-linecap="round" d="M29.485 37V21s0-2 2-2 2 2 2 2v10h10c1.106 0 2 .894 2 2v12l-4 4h-12l-6-6V33s0-2 2-2 2 2 2 2v6"/><path stroke="#FFC901" d="M15.727 31.93l-4.242 4.242-4.242-4.242-2.83 2.828L8.657 39l-4.244 4.242 2.83 2.828 4.242-4.242 4.242 4.242 2.83-2.828L14.313 39l4.244-4.242z"/></g>
</symbol>
<symbol id="svg-subproblem-empty-page"><g fill="none" fill-rule="evenodd"><path fill="#575757" d="M0 0h50v50H0z"/><g stroke-width="2"><path stroke="#FFF" stroke-linecap="round" d="M9 11h3m3 0h3V8"/><g stroke="#FFF" stroke-linecap="round"><path d="M18 4V1m24 45v3h-3"/><path stroke-dasharray="5.599999904632568,5.599999904632568" d="M33.4 49H13.8"/><path d="M11 49H8v-3"/><path stroke-dasharray="6.400000095367432,6.400000095367432" d="M8 39.6V17.2"/><path d="M8 14v-3l2.122-2.122"/><path stroke-dasharray="6.427999973297119,6.427999973297119" d="M14.667 4.333L18.001.999h17.784"/><path d="M39 1h3v3"/><path stroke-dasharray="6,6" d="M42 10v33"/></g><path stroke="#FFC901" d="M29.314 18l-4.242 4.242L20.83 18 18 20.828l4.244 4.242L18 29.312l2.83 2.828 4.242-4.242 4.242 4.242 2.83-2.828L27.9 25.07l4.244-4.242z"/></g></g>
</symbol>
<symbol id="svg-subproblem-items-missing"><g fill="none" fill-rule="evenodd"><path fill="#575757" d="M0 0h50v50H0z"/><path fill="#FFF" d="M22 2H4a2 2 0 00-2 2v18a2 2 0 002 2h18a2 2 0 002-2V4a2 2 0 00-2-2zM4 22h18V4H4v18zm42 4H28c-1.106 0-2 .894-2 2v18c0 1.106.894 2 2 2h18c1.106 0 2-.894 2-2V28c0-1.106-.894-2-2-2zM28 46h18V28H28v18zM46 2H28a2 2 0 00-2 2v18a2 2 0 002 2h18a2 2 0 002-2V4a2 2 0 00-2-2zM28 22h18V4H28v18z"/><path stroke="#FFC901" stroke-width="2" d="M23 43v4h-4"/><path stroke="#FFC901" stroke-dasharray="4,4" stroke-width="2" d="M15 47H9"/><path stroke="#FFC901" stroke-width="2" d="M7 47H3v-4"/><path stroke="#FFC901" stroke-dasharray="4,4" stroke-width="2" d="M3 39v-6"/><path stroke="#FFC901" stroke-width="2" d="M3 31v-4h4"/><path stroke="#FFC901" stroke-dasharray="4,4" stroke-width="2" d="M11 27h6"/><path stroke="#FFC901" stroke-width="2" d="M19 27h4v4"/><path stroke="#FFC901" stroke-dasharray="4,4" stroke-width="2" d="M23 35v6"/></g>
</symbol>
<symbol id="svg-subproblem-items-not-visible"><defs><path id="a" d="M0 48h38V0H0z"/><path id="c" d="M0 48h38V0H0z"/></defs><g fill="none" fill-rule="evenodd"><path stroke="#FFC901" stroke-linecap="round" stroke-linejoin="round" stroke-width="2" d="M43 5v3h-3"/><path stroke="#FFC901" stroke-dasharray="6,6" stroke-linecap="round" stroke-linejoin="round" stroke-width="2" d="M34 8H13"/><g transform="translate(6 1)"><path stroke="#FFC901" stroke-linecap="round" stroke-linejoin="round" stroke-width="2" d="M4 7H1V4m0 0V1h3"/><path stroke="#FFC901" stroke-dasharray="6,6" stroke-linecap="round" stroke-linejoin="round" stroke-width="2" d="M10 1h21"/><path stroke="#FFC901" stroke-linecap="round" stroke-linejoin="round" stroke-width="2" d="M34 1h3v3"/><mask id="b" fill="#fff"><use xlink:href="#a"/></mask><path stroke="#FFF" stroke-linecap="round" stroke-linejoin="round" stroke-width="2" d="M1 17h36v-6H1z" mask="url(#b)"/><path stroke="#FFC901" stroke-linecap="round" stroke-linejoin="round" stroke-width="2" d="M37 24v3h-3" mask="url(#b)"/></g><path stroke="#FFC901" stroke-dasharray="6,6" stroke-linecap="round" stroke-linejoin="round" stroke-width="2" d="M34 28H13"/><path d="M10 28H7v-3m0 0v-3h3" stroke="#FFC901" stroke-linecap="round" stroke-linejoin="round" stroke-width="2"/><path stroke="#FFC901" stroke-dasharray="6,6" stroke-linecap="round" stroke-linejoin="round" stroke-width="2" d="M16 22h21"/><g transform="translate(6 1)"><path stroke="#FFC901" stroke-linecap="round" stroke-linejoin="round" stroke-width="2" d="M34 21h3v3"/><mask id="d" fill="#fff"><use xlink:href="#c"/></mask><path stroke="#FFF" stroke-linecap="round" stroke-linejoin="round" stroke-width="2" d="M1 37h36v-6H1z" mask="url(#d)"/><path stroke="#FFC901" stroke-linecap="round" stroke-linejoin="round" stroke-width="2" d="M37 44v3h-3" mask="url(#d)"/><path stroke="#FFC901" stroke-dasharray="6,6" stroke-linecap="round" stroke-linejoin="round" stroke-width="2" d="M28 47H7" mask="url(#d)"/><path stroke="#FFC901" stroke-linecap="round" stroke-linejoin="round" stroke-width="2" d="M4 47H1v-3m0 0v-3h3" mask="url(#d)"/></g><path stroke="#FFC901" stroke-dasharray="6,6" stroke-linecap="round" stroke-linejoin="round" stroke-width="2" d="M16 42h21"/><path stroke="#FFC901" stroke-linecap="round" stroke-linejoin="round" stroke-width="2" d="M40 42h3v3"/></g>
</symbol>
<symbol id="svg-subproblem-misaligned"><g fill="none" fill-rule="evenodd" stroke-linecap="round" stroke-linejoin="round" stroke-width="2"><path stroke="#FFF" d="M1 8h36V2H1z"/><path stroke="#FFC901" d="M5 18h36v-6H5z"/><path stroke="#FFF" d="M1 28h36v-6H1zm0 10h36v-6H1z"/><path stroke="#FFC901" d="M13 48h36v-6H13z"/></g>
</symbol>
<symbol id="svg-subproblem-missing-controls"><g fill="none" fill-rule="evenodd" stroke-width="2"><path stroke="#FFF" stroke-linecap="round" stroke-linejoin="round" d="M33 7v16l12-8zM7 37h4V25H7zm8 0h4V25h-4z"/><path stroke="#FFC901" d="M43.242 33.93L39 38.172l-4.242-4.242-2.828 2.828L36.172 41l-4.242 4.242 2.828 2.828L39 43.828l4.242 4.242 2.828-2.828L41.828 41l4.242-4.242z"/><path stroke="#FFF" stroke-linecap="round" stroke-linejoin="round" d="M49 15c0 6.626-5.374 12-12 12s-12-5.374-12-12S30.374 3 37 3s12 5.374 12 12zM25 31c0 6.626-5.374 12-12 12S1 37.626 1 31s5.374-12 12-12 12 5.374 12 12z"/></g>
</symbol>
<symbol id="svg-subproblem-no-images"><g fill="none" fill-rule="evenodd" stroke-width="2"><path stroke="#FFF" stroke-linecap="round" stroke-linejoin="round" d="M29 38H1V2h42v26"/><path stroke="#FFF" stroke-linecap="round" stroke-linejoin="round" d="M5 34l12-12 12 12m-6-8l10-10 6 6M19 12a6 6 0 11-12 0 6 6 0 0112 0z"/><path stroke="#FFC901" d="M45.242 32.93L41 37.172l-4.242-4.242-2.828 2.828L38.172 40l-4.242 4.242 2.828 2.828L41 42.828l4.242 4.242 2.828-2.828L43.828 40l4.242-4.242z"/></g>
</symbol>
<symbol id="svg-subproblem-no-video"><g fill="none" fill-rule="evenodd" stroke-width="2"><path stroke="#FFF" stroke-linecap="square" stroke-linejoin="round" d="M30 23H12c-2.2 0-4-1.8-4-4v-6c0-2.2 1.8-4 4-4h18c2.2 0 4 1.8 4 4v6c0 2.2-1.8 4-4 4z"/><path stroke="#FFF" stroke-linecap="round" stroke-linejoin="round" d="M27.385 41H12c-2.2 0-4-1.8-4-4v-6c0-2.2 1.8-4 4-4h18c1.098 0 2.098.45 2.824 1.176"/><path stroke="#FFF" stroke-linecap="round" stroke-linejoin="round" d="M28.223 45H8v4H4V1h4v4h26V1h4v29.99"/><path stroke="#FFC901" d="M42.242 31.93L38 36.172l-4.242-4.242-2.828 2.828L35.172 39l-4.242 4.242 2.828 2.828L38 41.828l4.242 4.242 2.828-2.828L40.828 39l4.242-4.242z"/></g>
</symbol>
<symbol id="svg-subproblem-overlapping"><defs><path id="a" d="M0 46h48V0H0z"/></defs><g fill="none" fill-rule="evenodd" transform="translate(1 2)"><path stroke="#FFC901" stroke-linecap="round" stroke-width="2" d="M17 9H3a2 2 0 01-2-2V3a2 2 0 012-2h38a2 2 0 012 2v2M17 21H3a2 2 0 01-2-2v-4a2 2 0 012-2h14m0 20H3a2 2 0 01-2-2v-4a2 2 0 012-2h14m26 16v2c0 1.106-.894 2-2 2H3a2 2 0 01-2-2v-4a2 2 0 012-2h14"/><mask id="b" fill="#fff"><use xlink:href="#a"/></mask><path stroke="#FFF" stroke-linecap="round" stroke-width="2" d="M17 41h30V5H17z" mask="url(#b)"/></g>
</symbol>
<symbol id="svg-subproblem-unsupported"><g fill="none" fill-rule="evenodd" stroke-width="2"><path stroke="#FFF" stroke-linecap="round" stroke-linejoin="round" d="M28.596 48.732A24.236 24.236 0 0125 49C11.746 49 1 38.254 1 25 1 11.744 11.746 1 25 1s24 10.744 24 24c0 2.114-.274 4.166-.786 6.12"/><path stroke="#FFF" stroke-linecap="round" stroke-linejoin="round" d="M25 49C16.164 49 9 38.254 9 25S16.164 1 25 1s16 10.746 16 24c0 1.656-.112 3.276-.324 4.836"/><path stroke="#FFF" stroke-linecap="round" stroke-linejoin="round" d="M31 25c0 13.254-2.686 24-6 24s-6-10.746-6-24 2.686-24 6-24 6 10.746 6 24zM1 25h48"/><path stroke="#FFC901" d="M45.242 33.93L41 38.172l-4.242-4.242-2.828 2.828L38.172 41l-4.242 4.242 2.828 2.828L41 43.828l4.242 4.242 2.828-2.828L43.828 41l4.242-4.242z"/></g>
</symbol>
<symbol id="svg-target"><path d="M384 32C188.8 32 32 188.8 32 384s156.8 352 352 352 352-156.8 352-352S579.2 32 384 32zm0 640C224 672 96 544 96 384S224 96 384 96s288 128 288 288-128 288-288 288z"/><path d="M384 160c-124.8 0-224 99.2-224 224s99.2 224 224 224 224-99.2 224-224-99.2-224-224-224zm0 384c-89.6 0-160-70.4-160-160s70.4-160 160-160 160 70.4 160 160-70.4 160-160 160z"/><path d="M384 288c-54.4 0-96 41.6-96 96s41.6 96 96 96 96-41.6 96-96-41.6-96-96-96zm0 128c-19.2 0-32-12.8-32-32s12.8-32 32-32 32 12.8 32 32-12.8 32-32 32z"/>
</symbol>
<symbol id="svg-twitter"><path d="M23.6 2.2c-.3-.2-.8-.2-1.1 0-.7.5-1.5.9-2.3 1.2-2-1.8-5.1-1.9-7.2-.1-1.3 1.1-2 2.6-2 4.2-2.9-.2-5.5-1.7-7.2-4.1-.2-.3-.5-.4-.9-.4s-.7.3-.8.6C2 3.7 1 6.1 1.1 9c.1 2.5 1.1 5.7 4.8 8-1.5.7-3.2 1-4.9 1-.4 0-.9.3-1 .7s.1.9.5 1.1c2.5 1.4 5.2 2.1 7.7 2.1s4.9-.6 7.1-1.9c4.3-2.4 6.7-7 6.7-12.5V7c1-1.1 1.7-2.4 2-3.8.1-.4-.1-.8-.4-1zM20.2 6c-.2.2-.3.6-.3.9.1.2.1.4.1.6 0 4.8-2.1 8.7-5.7 10.8-2.8 1.6-6.1 2-9.4 1.2 1.3-.4 2.5-.9 3.6-1.7.4-.2.5-.5.5-.9s-.3-.7-.6-.8c-5.8-2.6-5.6-7.5-5-10C5.6 8.3 8.7 9.6 12 9.5c.5 0 1-.5 1-1v-1c0-1 .4-2 1.2-2.7 1.4-1.3 3.7-1.1 4.9.3.3.3.7.4 1 .3.2-.1.5-.1.7-.2-.2.3-.4.5-.6.8z"/>
</symbol>
<symbol id="svg-up"><path d="M30.222 16c0-7.854-6.368-14.222-14.222-14.222S1.778 8.146 1.778 16c0 7.854 6.368 14.222 14.222 14.222S30.222 23.854 30.222 16zM5.333 16c0-5.883 4.784-10.667 10.667-10.667S26.667 10.117 26.667 16 21.883 26.667 16 26.667 5.333 21.883 5.333 16z"/><path d="M17.774 21.351v-6.459l2.299 2.341c.697.69 1.822.69 2.519 0s.695-1.806 0-2.494l-5.275-5.333a1.788 1.788 0 00-1.26-.517c-.02 0-.041 0-.06.002s-.041-.002-.06-.002c-.473 0-.926.187-1.26.517l-5.275 5.333c-.695.69-.695 1.806 0 2.494s1.822.69 2.519 0l2.3-2.341v6.459c0 .972.788 1.76 1.76 1.76h.032a1.76 1.76 0 001.76-1.76z"/>
</symbol>
<symbol id="svg-upload-2"><path d="M30.206 13.333a34.903 34.903 0 00-.16-2.052c-.496-4.844-4.361-8.818-9.184-9.419-5.204-.649-9.767 2.487-11.356 7.026-.199-.018-.4-.03-.604-.03-3.902 0-7.129 3.184-7.129 7.093v1.771c0 .969.844 1.756 1.81 1.756h.036c.965 0 1.703-.83 1.703-1.797v-1.397c-.204-2.11 1.515-3.886 3.58-3.886.103 0 .204.009.306.018l1.369-.018c.804.069 1.545-.283 1.812-1.044l.384-1.097c.932-2.665 3.284-4.663 6.091-4.912 4.347-.386 8.101 3.278 7.812 7.614l-.005.373v4.556h.018c.052.926.864 1.666 1.801 1.666h.036c.923 0 1.627-.757 1.691-1.666h.012v-4.556h-.02z"/><path d="M22.562 21.865l-5.372-5.348a1.773 1.773 0 00-2.506 0L9.436 21.85c-.692.688-.692 1.804 0 2.494s1.813.69 2.505 0l2.288-2.341v6.459c0 .972.784 1.76 1.751 1.76h.036c.967 0 1.751-.788 1.751-1.76v-6.188l.229.037 1.988 1.98c.628.624 1.632.777 2.35.26a1.76 1.76 0 00.226-2.686z"/>
</symbol>
<symbol id="svg-user"><path d="M16 14H8c-2.8 0-5 2.2-5 5v2c0 .6.4 1 1 1s1-.4 1-1v-2c0-1.7 1.3-3 3-3h8c1.7 0 3 1.3 3 3v2c0 .6.4 1 1 1s1-.4 1-1v-2c0-2.8-2.2-5-5-5zM12 12c2.8 0 5-2.2 5-5s-2.2-5-5-5-5 2.2-5 5 2.2 5 5 5zm0-8c1.7 0 3 1.3 3 3s-1.3 3-3 3-3-1.3-3-3 1.3-3 3-3z"/>
</symbol>
<symbol id="svg-users"><path d="M13 14H5c-2.8 0-5 2.2-5 5v2c0 .6.4 1 1 1s1-.4 1-1v-2c0-1.7 1.3-3 3-3h8c1.7 0 3 1.3 3 3v2c0 .6.4 1 1 1s1-.4 1-1v-2c0-2.8-2.2-5-5-5zM9 12c2.8 0 5-2.2 5-5s-2.2-5-5-5-5 2.2-5 5 2.2 5 5 5zm0-8c1.7 0 3 1.3 3 3s-1.3 3-3 3-3-1.3-3-3 1.3-3 3-3zM20.2 14.2c-.5-.1-1.1.2-1.2.7s.2 1.1.7 1.2c1.3.3 2.2 1.5 2.2 2.9v2c0 .6.4 1 1 1s1-.4 1-1v-2c.1-2.3-1.4-4.3-3.7-4.8zM16.2 2.2c-.5-.2-1 .1-1.2.7-.1.5.2 1.1.7 1.2 1.6.4 2.6 2 2.2 3.7-.3 1.1-1.1 1.9-2.2 2.2-.5.1-.9.7-.7 1.2.1.5.5.8 1 .8h.2c1.8-.5 3.2-1.8 3.6-3.6.7-2.8-.9-5.6-3.6-6.2z"/>
</symbol>
<symbol id="svg-valid" viewBox="40 409 60 20"><linearGradient id="a" gradientUnits="userSpaceOnUse" x1="40" y1="718" x2="43.516" y2="718" gradientTransform="matrix(17.0667 0 0 -17.0667 -642.667 12672.867)"><stop offset="0" stop-color="#fff" stop-opacity="0"/><stop offset=".578" stop-color="#fff"/></linearGradient><path fill="url(#a)" d="M40 409h60v20H40z"/><path fill="#319501" d="M81.9 426.2l-6-6 2.9-2.9 3.2 3.2 8.6-8.6 2.8 2.9-11.5 11.4z"/>
</symbol>
<symbol id="svg-warning"><path d="M16 3.719l12.572 25.056H3.43L16.002 3.719zM16 1c-.647 0-1.294.437-1.783 1.309L1.413 27.83c-.981 1.744-.146 3.171 1.854 3.171h25.468c2.001 0 2.835-1.427 1.854-3.171L17.785 2.309C17.294 1.437 16.649 1 16.002 1z"/><path d="M17.875 25.375a1.876 1.876 0 11-3.751-.001 1.876 1.876 0 013.751.001zM16 21.625a1.876 1.876 0 01-1.875-1.875v-5.625a1.876 1.876 0 013.75 0v5.625c0 1.035-.84 1.875-1.875 1.875z"/>
</symbol>
<symbol id="svg-x"><path d="M13.4 12l5.3-5.3c.4-.4.4-1 0-1.4s-1-.4-1.4 0L12 10.6 6.7 5.3c-.4-.4-1-.4-1.4 0s-.4 1 0 1.4l5.3 5.3-5.3 5.3c-.4.4-.4 1 0 1.4.2.2.4.3.7.3s.5-.1.7-.3l5.3-5.3 5.3 5.3c.2.2.5.3.7.3s.5-.1.7-.3c.4-.4.4-1 0-1.4L13.4 12z"/>
</symbol>
<symbol id="svg-zap"><path d="M21.9 9.6c-.2-.4-.5-.6-.9-.6h-7.9l.9-6.9c.1-.4-.2-.9-.6-1-.4-.2-.9-.1-1.2.3l-10 12c-.2.3-.3.7-.1 1.1.2.3.5.5.9.5h7.9l-.9 6.9c-.1.4.2.9.6 1 .1.1.3.1.4.1.3 0 .6-.1.8-.4l10-12c.2-.3.3-.7.1-1zm-9.5 9.1l.6-4.6c0-.3-.1-.6-.2-.8-.2-.2-.5-.3-.8-.3H5.1l6.4-7.7-.5 4.6c0 .3.1.6.2.8.2.2.5.3.7.3h6.9l-6.4 7.7z"/>
</symbol></svg>