<svg xmlns="http://www.w3.org/2000/svg" xmlns:xlink="http://www.w3.org/1999/xlink" version="1.1" x="0px" y="0px" viewBox="0 0 48 60" enable-background="new 0 0 48 48" xml:space="preserve"><g><g><path d="M20.6,30c-0.1,0-0.1,0-0.2,0c-0.8-0.1-1.4-0.6-1.7-1.4l-3.7-11.8L12,21.5c-0.4,0.5-1,0.9-1.6,0.9H2.5c-1.1,0-2-0.9-2-2    s0.9-2,2-2h6.8l4.8-7.3c0.4-0.6,1.2-1,1.9-0.9c0.7,0.1,1.4,0.6,1.6,1.4l3.5,11.4L29,8.9c0.4-0.7,1.2-1.1,2-1    c0.8,0.1,1.4,0.7,1.6,1.5l2.3,9.1h5.4c1.1,0,2,0.9,2,2s-0.9,2-2,2h-6.9c-0.9,0-1.7-0.6-1.9-1.5l-1.5-5.8L22.3,29    C22,29.6,21.3,30,20.6,30z"/></g><g><path d="M45.5,37.3H2.5c-1.1,0-2-0.9-2-2V2.5c0-1.1,0.9-2,2-2h43.1c1.1,0,2,0.9,2,2v32.9C47.5,36.5,46.6,37.3,45.5,37.3z     M4.4,33.4h39.2v-29H4.4V33.4z"/></g><g><path d="M24,47.5c-1.1,0-2-0.9-2-2V35.4c0-1.1,0.9-2,2-2s2,0.9,2,2v10.2C26,46.6,25.1,47.5,24,47.5z"/></g><g><path d="M28.8,47.5h-9.6c-1.1,0-2-0.9-2-2c0-1.1,0.9-2,2-2h9.6c1.1,0,2,0.9,2,2C30.8,46.6,29.9,47.5,28.8,47.5z"/></g></g><text x="0" y="63" fill="#000000" font-size="5px" font-weight="bold" font-family="'Helvetica Neue', Helvetica, Arial-Unicode, Arial, Sans-serif"></text><text x="0" y="68" fill="#000000" font-size="5px" font-weight="bold" font-family="'Helvetica Neue', Helvetica, Arial-Unicode, Arial, Sans-serif"></text></svg>