<svg xmlns="http://www.w3.org/2000/svg" viewBox="0 0 100 125"><path style="text-indent:0;text-transform:none;block-progression:tb" d="M12 12.002c-3.29 0-6 2.71-6 6v50C6 71.29 8.71 74 12 74h29v10h-4.188c-1.047.05-1.955 1.047-1.906 2.094C34.956 87.14 35.953 88.05 37 88h26c1.057.015 2.028-.943 2.028-2s-.97-2.015-2.028-2h-4V74h29c3.29 0 6-2.71 6-6V18.003c0-3.29-2.71-6-6-6zm0 4h76c1.143 0 2 .857 2 2v24l-17.72-.032-6.468-13.812c-.32-.714-1.092-1.2-1.874-1.18-.783.02-1.53.545-1.813 1.274L51.187 55.97l-10.28-32.593c-.284-.893-1.26-1.507-2.188-1.375-.655.09-1.25.528-1.532 1.125L28.718 41H10V18.003c0-1.143.857-2 2-2zM38.625 29.47l10.47 33.124c.24.79 1.02 1.385 1.845 1.412.826.027 1.64-.514 1.935-1.287l11.28-28.656 5.032 10.75c.32.686 1.056 1.155 1.813 1.156L90 46v22c0 1.143-.857 2-2 2H12c-1.143 0-2-.857-2-2V45h20c.757 0 1.493-.47 1.813-1.155zM45 74h10v10H45z" overflow="visible" color="#000"/></svg>