<svg xmlns="http://www.w3.org/2000/svg" xmlns:xlink="http://www.w3.org/1999/xlink" version="1.1" x="0px" y="0px" viewBox="0 0 64 80" style="enable-background:new 0 0 64 64;" xml:space="preserve"><g><g><path d="M27.7,37.7v-1.9c1.6-1.3,2.9-3.3,3.6-5.5H34c1.4,0,2.5-1.1,2.5-2.5v-3.5c0-1.2-0.8-2.2-2-2.5c-1.4-5.9-6.3-10.2-12.1-10.2    c-5.8,0-10.7,4.3-12.1,10.2c-1.1,0.2-2,1.2-2,2.5v3.5c0,1.4,1.1,2.4,2.4,2.5v0.3c0,1.3,1.1,2.4,2.4,2.4h7c0.3,0.3,0.6,0.4,1,0.4    h1.9c0.8,0,1.4-0.6,1.4-1.4c0-0.8-0.6-1.4-1.4-1.4h-1.9c-0.4,0-0.8,0.2-1,0.4h-4.2c-0.6-1.4-1-2.9-1-4.5c0-5.1,3.3-9.2,7.4-9.2    s7.4,4.1,7.4,9.2s-3.3,9.2-7.4,9.2c-1.6,0-3-0.6-4.3-1.7c-0.4-0.4-1-0.3-1.4,0.1c-0.4,0.4-0.3,1,0.1,1.4c0.1,0.1,0.2,0.2,0.3,0.3    v1.8C7.3,39.3,6.4,46.8,6.4,55.6v1h31.9v-1C38.3,47.9,37.5,39.7,27.7,37.7z M13.1,31.1c-0.2,0-0.4-0.2-0.4-0.4v-0.3h0.8    c0.1,0.3,0.1,0.5,0.2,0.8H13.1z M22.4,15.4c-3.7,0-7,2.6-8.5,6.4h-1.6c1.3-4.7,5.3-8.1,10.1-8.1s8.7,3.4,10.1,8.1h-1.6    C29.4,18,26.1,15.4,22.4,15.4z M22.4,37.8c1.2,0,2.3-0.3,3.3-0.7v2.3c0,1.8-1.5,3.3-3.3,3.3c-1.8,0-3.3-1.5-3.3-3.3v-2.2    C20.1,37.5,21.3,37.8,22.4,37.8z M8.5,54.6c0.1-7.8,1-13.4,8.7-14.9c0.2,2.7,2.5,4.9,5.3,4.9c2.8,0,5-2.1,5.2-4.8    c7,1.5,8.6,6.6,8.7,14.8H8.5z"/><path d="M57.4,18.9c-0.9-2.3-2.6-4.1-4.8-5.1c1.2-0.7,2.1-1.8,2.7-3.1c0.2-0.5,0-1.1-0.5-1.3c-0.5-0.2-1.1,0-1.3,0.5    c-0.7,1.5-2,2.6-3.5,2.9c0.5-0.4,0.8-1.1,0.8-1.9c0-1.3-0.9-2.4-2.1-2.4s-2.1,1.1-2.1,2.4c0,0.7,0.3,1.4,0.8,1.8    c-1.5-0.4-2.7-1.6-3.3-3c-0.2-0.5-0.8-0.8-1.3-0.6c-0.5,0.2-0.8,0.8-0.6,1.3c0.5,1.4,1.5,2.6,2.7,3.4c-2.1,0.9-3.8,2.6-4.8,4.8    c-0.2,0.5,0,1.1,0.5,1.3c0.5,0.2,1.1,0,1.3-0.5c0.7-1.5,1.8-2.7,3.2-3.5c-0.6,0.8-0.9,1.8-0.9,2.9c0,2.7,2,4.8,4.5,4.8    c2.5,0,4.5-2.2,4.5-4.8c0-1.1-0.3-2.1-0.9-2.9c1.5,0.8,2.7,2.1,3.3,3.8c0.2,0.4,0.5,0.6,0.9,0.6c0.1,0,0.2,0,0.4-0.1    C57.3,20,57.6,19.4,57.4,18.9z"/><path d="M47.4,25.4c-0.6,0-1,0.4-1,1c0,3.8-3.1,6.9-6.9,6.9h-5.4c-0.6,0-1,0.4-1,1s0.4,1,1,1h5.4c4.9,0,8.9-4,8.9-8.9    C48.4,25.9,48,25.4,47.4,25.4z"/></g></g><text x="0" y="79" fill="#000000" font-size="5px" font-weight="bold" font-family="'Helvetica Neue', Helvetica, Arial-Unicode, Arial, Sans-serif"></text><text x="0" y="84" fill="#000000" font-size="5px" font-weight="bold" font-family="'Helvetica Neue', Helvetica, Arial-Unicode, Arial, Sans-serif">from the Noun Project</text></svg>