<svg xmlns="http://www.w3.org/2000/svg" viewBox="0 0 64 80"><path d="M27.768 29.2v-1.9c1.6-1.3 2.9-3.3 3.6-5.5h2.7c1.4 0 2.5-1.1 2.5-2.5v-3.5c0-1.2-.8-2.2-2-2.5-1.4-5.9-6.3-10.2-12.1-10.2s-10.7 4.3-12.1 10.2c-1.1.2-2 1.2-2 2.5v3.5c0 1.4 1.1 2.4 2.4 2.5v.3c0 1.3 1.1 2.4 2.4 2.4h7c.3.3.6.4 1 .4h1.9c.8 0 1.4-.6 1.4-1.4 0-.8-.6-1.4-1.4-1.4h-1.9c-.4 0-.8.2-1 .4h-4.2c-.6-1.4-1-2.9-1-4.5 0-5.1 3.3-9.2 7.4-9.2 4.1 0 7.4 4.1 7.4 9.2s-3.3 9.2-7.4 9.2c-1.6 0-3-.6-4.3-1.7-.4-.4-1-.3-1.4.1-.4.4-.3 1 .1 1.4l.3.3v1.8c-9.7 1.7-10.6 9.2-10.6 18v1h31.9v-1c0-7.7-.8-15.9-10.6-17.9zm-14.6-6.6c-.2 0-.4-.2-.4-.4v-.3h.8c.1.3.1.5.2.8h-.6zm9.3-15.7c-3.7 0-7 2.6-8.5 6.4h-1.6c1.3-4.7 5.3-8.1 10.1-8.1s8.7 3.4 10.1 8.1h-1.6c-1.5-3.8-4.8-6.4-8.5-6.4zm0 22.4c1.2 0 2.3-.3 3.3-.7v2.3c0 1.8-1.5 3.3-3.3 3.3-1.8 0-3.3-1.5-3.3-3.3v-2.2c1 .3 2.2.6 3.3.6zm-13.9 16.8c.1-7.8 1-13.4 8.7-14.9.2 2.7 2.5 4.9 5.3 4.9s5-2.1 5.2-4.8c7 1.5 8.6 6.6 8.7 14.8h-27.9zM57.468 10.4c-.9-2.3-2.6-4.1-4.8-5.1 1.2-.7 2.1-1.8 2.7-3.1.2-.5 0-1.1-.5-1.3-.5-.2-1.1 0-1.3.5-.7 1.5-2 2.6-3.5 2.9.5-.4.8-1.1.8-1.9 0-1.3-.9-2.4-2.1-2.4-1.2 0-2.1 1.1-2.1 2.4 0 .7.3 1.4.8 1.8-1.5-.4-2.7-1.6-3.3-3-.2-.5-.8-.8-1.3-.6-.5.2-.8.8-.6 1.3.5 1.4 1.5 2.6 2.7 3.4-2.1.9-3.8 2.6-4.8 4.8-.2.5 0 1.1.5 1.3.5.2 1.1 0 1.3-.5.7-1.5 1.8-2.7 3.2-3.5-.6.8-.9 1.8-.9 2.9 0 2.7 2 4.8 4.5 4.8s4.5-2.2 4.5-4.8c0-1.1-.3-2.1-.9-2.9 1.5.8 2.7 2.1 3.3 3.8.2.4.5.6.9.6.1 0 .2 0 .4-.1.4-.2.7-.8.5-1.3z"/><path d="M47.468 16.9c-.6 0-1 .4-1 1 0 3.8-3.1 6.9-6.9 6.9h-5.4c-.6 0-1 .4-1 1s.4 1 1 1h5.4c4.9 0 8.9-4 8.9-8.9 0-.5-.4-1-1-1z"/></svg>