<svg xmlns="http://www.w3.org/2000/svg" xmlns:xlink="http://www.w3.org/1999/xlink" version="1.1" x="0px" y="0px" viewBox="0 0 100 125" enable-background="new 0 0 100 100" xml:space="preserve"><path fill="#404040" d="M9.1,83.6h32.1l0-0.7c-0.5-10.9-3.4-21.3-8.6-28.7c-4.2-6-9-8.6-15.2-0.9c-5.4,6.7-8.4,17.1-8.4,28V83.6z"/><circle fill="#404040" cx="25.2" cy="36.9" r="8.8"/><path fill="#404040" d="M31.1,83.6h36l0-0.8c-0.5-12.3-3.8-23.9-9.6-32.2c-4.7-6.8-10-9.7-17-1.1c-6,7.5-9.4,19.2-9.4,31.3V83.6z"/><circle fill="#404040" cx="49.1" cy="31.3" r="9.9"/><path fill="#404040" d="M56.8,83.6h32.1l0-0.7c-0.5-10.9-3.4-21.3-8.6-28.7c-4.2-6-9-8.6-15.2-0.9c-5.4,6.7-8.4,17.1-8.4,28V83.6z"/><circle fill="#404040" cx="72.8" cy="36.9" r="8.8"/></svg>