<?xml version="1.0" encoding="iso-8859-1"?>
<!-- Generator: Adobe Illustrator 18.1.1, SVG Export Plug-In . SVG Version: 6.00 Build 0)  -->
<svg version="1.1" id="Capa_1" xmlns="http://www.w3.org/2000/svg" xmlns:xlink="http://www.w3.org/1999/xlink" x="0px" y="0px"
	 viewBox="0 0 92 92" style="enable-background:new 0 0 92 92;" xml:space="preserve">
<g>
	<path style="fill:#030104;" d="M61.896,52.548c-3.59,0-6.502,4.026-6.502,8.996c0,4.971,2.912,8.999,6.502,8.999
		c3.588,0,6.498-4.028,6.498-8.999C68.395,56.574,65.484,52.548,61.896,52.548z M84.527,29.132c0.74-1.826,0.777-12.201-3.17-22.132
		c0,0-9.057,0.993-22.76,10.396c-2.872-0.793-7.736-1.19-12.597-1.19s-9.723,0.396-12.598,1.189C19.699,7.993,10.645,7,10.645,7
		c-3.948,9.931-3.913,20.306-3.172,22.132C2.834,34.169,0,40.218,0,48.483c0,35.932,29.809,36.508,37.334,36.508
		c1.703,0,5.088,0.004,8.666,0.009c3.578-0.005,6.965-0.009,8.666-0.009C62.191,84.991,92,84.415,92,48.483
		C92,40.218,89.166,34.169,84.527,29.132z M46.141,80.574H45.86c-18.859,0-33.545-2.252-33.545-20.58
		c0-4.389,1.549-8.465,5.229-11.847c6.141-5.636,16.527-2.651,28.316-2.651c0.045,0,0.093-0.001,0.141-0.003
		c0.049,0.002,0.096,0.003,0.141,0.003c11.789,0,22.178-2.984,28.316,2.651c3.68,3.382,5.229,7.458,5.229,11.847
		C79.686,78.322,65,80.574,46.141,80.574z M30.104,52.548c-3.588,0-6.498,4.026-6.498,8.996c0,4.971,2.91,8.999,6.498,8.999
		c3.592,0,6.502-4.028,6.502-8.999C36.605,56.574,33.695,52.548,30.104,52.548z"/>
</g>
<g>
</g>
<g>
</g>
<g>
</g>
<g>
</g>
<g>
</g>
<g>
</g>
<g>
</g>
<g>
</g>
<g>
</g>
<g>
</g>
<g>
</g>
<g>
</g>
<g>
</g>
<g>
</g>
<g>
</g>
</svg>
