<svg xmlns="http://www.w3.org/2000/svg" xmlns:xlink="http://www.w3.org/1999/xlink" version="1.1" x="0px" y="0px" viewBox="0 0 512 640" enable-background="new 0 0 512 512" xml:space="preserve"><g><path d="M386.3,75c0-40.3-32.8-73-73-73c-23,0-43.8,10.6-57.3,27.6C242.5,12.6,221.7,2,198.7,2c-40.3,0-73,32.8-73,73   c0,81.7,117.6,159.4,122.6,162.7c4.7,2.9,11.1,2.8,15.4,0C268.7,234.4,386.3,156.7,386.3,75z M256,208.8   C221.6,184.4,153.9,126,153.9,75c0-24.7,20.1-44.8,44.8-44.8c20.8,0,38.8,14.1,43.6,34.3c5.3,16.5,24.3,12.6,27.5,0   c4.8-20.2,22.7-34.3,43.6-34.3c24.7,0,44.8,20.1,44.8,44.8C358.1,126,290.4,184.4,256,208.8z"/><path d="M458.4,115.6c-28.5,0-51.6,23.2-51.6,51.6v53.5c-2.7-0.5-5.6-0.7-8.5-0.7c-27.7,0-50.2,22.5-50.2,50.3v50.6L301.6,372   c-13.8,15.2-21.5,35-21.5,55.6v40.9c0,22.9,18.6,41.5,41.5,41.5H385c22.9,0,41.5-18.6,41.5-41.5v-16.7c0-3.4,1.3-6.7,3.7-9.2   l68.3-71.6c7.4-7.8,11.5-17.9,11.5-28.7V167.2C510,138.7,486.8,115.6,458.4,115.6z M481.8,342.4c0,3.4-1.3,6.7-3.7,9.2l-68.3,71.6   c-7.4,7.8-11.5,17.9-11.5,28.7v16.7c0,7.3-6,13.3-13.3,13.3h-63.4c-7.3,0-13.3-6-13.3-13.3v-40.9c0-13.6,5-26.6,14.1-36.6   l50.1-55.1c2.4-2.6,3.7-6,3.7-9.5v-56.1c0-12.1,9.9-22,22-22s22,9.9,22,22v57.8c0,7.8,6.3,14.1,14.1,14.1c7.8,0,14.1-6.3,14.1-14.1   v-57.8c0-13.3-5.2-25.3-13.6-34.3v-68.7c0-12.9,10.5-23.4,23.4-23.4s23.4,10.5,23.4,23.4V342.4z"/><path d="M164,320.9v-50.6c0-27.7-22.5-50.3-50.2-50.3c-2.9,0-5.7,0.2-8.5,0.7v-53.5c0-28.5-23.2-51.6-51.6-51.6   C25.2,115.6,2,138.7,2,167.2v175.2c0,10.7,4.1,20.9,11.5,28.7l68.3,71.6c2.4,2.5,3.7,5.7,3.7,9.2v16.7c0,22.9,18.6,41.5,41.5,41.5   h63.4c22.9,0,41.5-18.6,41.5-41.5v-40.9c0-20.6-7.6-40.3-21.5-55.6L164,320.9z M203.6,468.5c0,7.3-6,13.3-13.3,13.3H127   c-7.3,0-13.3-6-13.3-13.3v-16.7c0-10.7-4.1-20.9-11.5-28.7l-68.3-71.6c-2.4-2.5-3.7-5.7-3.7-9.2V167.2c0-12.9,10.5-23.4,23.4-23.4   c12.9,0,23.4,10.5,23.4,23.4V236c-8.4,9-13.6,21.1-13.6,34.3v57.8c0,7.8,6.3,14.1,14.1,14.1s14.1-6.3,14.1-14.1v-57.8   c0-12.1,9.9-22,22-22c12.1,0,22,9.9,22,22v56.1c0,3.5,1.3,6.9,3.7,9.5l50.1,55.1c9.1,10,14.1,23,14.1,36.6V468.5z"/></g></svg>