<?xml version="1.0" encoding="utf-8"?>
<!-- Generator: Adobe Illustrator 15.1.0, SVG Export Plug-In . SVG Version: 6.00 Build 0)  -->
<!DOCTYPE svg PUBLIC "-//W3C//DTD SVG 1.1//EN" "http://www.w3.org/Graphics/SVG/1.1/DTD/svg11.dtd">
<svg version="1.1" id="Layer_1" xmlns="http://www.w3.org/2000/svg" xmlns:xlink="http://www.w3.org/1999/xlink" x="0px" y="0px"
	 width="100px" height="90.869px" viewBox="0 0 100 90.869" enable-background="new 0 0 100 90.869" xml:space="preserve">
<circle fill="#010101" cx="36.68" cy="55.099" r="6.503"/>
<path fill="#010101" d="M23.73,45.241c0,0,4.064,19.105,12.295,19.105c8.231,0,11.077-6.402,16.87-19.105
	c0.813-2.235,4.064-3.15,6.199-1.829c2.133,1.321,2.642,3.76,2.032,5.183S49.948,70.748,49.948,70.748s-1.219,3.658-1.423,9.756
	c-0.203,6.098-0.203,8.13-0.203,8.13s0.101,2.235-2.337,2.235c-2.439,0-18.393,0-18.393,0s-2.083-0.203-2.083-2.083
	s-0.153-10.213-0.153-10.213s-0.406-3.251-1.118-5.387c-0.711-2.134-7.52-23.881-7.52-23.881s-1.524-4.674,1.931-5.995
	C22.104,41.989,23.73,45.241,23.73,45.241z"/>
<circle fill="#010101" cx="32.547" cy="21.021" r="6.029"/>
<path fill="#010101" d="M50.05,46.494c0,0,1.965-4.742,4.336-5.25c0.543-0.304,0.712-0.203,0.305-1.964
	c-0.405-1.761-4.234-16.191-4.234-16.191s-1.118-3.201-4.522-1.982c-3.404,1.22-2.438,4.522-2.438,4.522l5.131,20.865
	C48.627,46.494,49.085,48.41,50.05,46.494z"/>
<path fill="#010101" d="M47.069,49.339l-5.691-22.491c0,0-0.677-2.934-4.021,0.813c-1.534,1.083-3.344,1.761-6.03,1.354
	c-2.686-0.406-4.766-1.685-6.03-3.281c-1.263-1.596-8.915-17.449-8.915-17.449s-1.697-2.981-5.084-1.49
	c-3.387,1.49-1.491,5.419-1.491,5.419l8.943,21.272c0,0,1.761,4.201,1.896,5.962c0.407,1.219-0.372,1.625,1.897,2.303
	c1.49,0.678,3.251,2.71,3.794,4.742c0.542,2.032,0.9,5.014,3.837,2.846c2.937-2.167,5.192-2.98,7.181-2.846
	c1.988,0.137,4.344,0.679,6.011,3.116C45.036,52.05,45.687,52.903,47.069,49.339z"/>
<path fill="#010101" d="M44.568,20.078c0,0,4.036-2.66,6.145,0c0.658,0.734,1.376,0.458,2.385-2.018
	c1.009-2.477,4.267-9.083,4.267-9.083s1.822-3.523-0.93-4.899s-4.798,0.409-5.997,2.609c-1.199,2.201-6.472,11.832-6.472,11.832
	S43.008,20.353,44.568,20.078z"/>
<path fill="#010101" d="M65.675,32.742c-3.591,0-6.503,2.912-6.503,6.503c0,0.533,0.064,1.05,0.187,1.546
	c2.108,0.696,3.736,2.444,4.262,4.624c0.646,0.215,1.337,0.334,2.055,0.334c3.594,0,6.505-2.912,6.505-6.504
	S69.267,32.742,65.675,32.742z"/>
<g>
	<g>
		<path fill="#010101" d="M98,17.223c0.352-2.004-1.732-2.774-2.569-2.614c-0.228-2.677-2.928-1.407-2.928-1.407l0.645-1.211
			l4.172-8.229c0,0,1.343-2.428-0.675-3.521c-2.415-1.108-3.612,1.975-3.612,1.975l-5.868,11.318c0,0-0.58-0.507-1.839-0.017
			c-3.356,1.308-3.134,4.487-3.5,8.162c-0.367,3.675-1.903,7.339-1.903,7.339l10.498,5.601l0.832-1.237c0,0,0.518-1.668,4.385-4.309
			c3.869-2.641,3.747-7.742,4.259-8.907C100.408,19,98.916,17.397,98,17.223z"/>
	</g>
</g>
<g>
	<g>
		<path fill="#010101" d="M88.577,35.237l-8.137-4.24l-7.492,13.736c0,0-1.626,4.201-5.555,3.862
			c-3.93-0.339-4.472,1.558-4.472,1.558s-8.536,16.26-10.975,21.001c-2.439,4.743,2.303,5.149,2.303,5.149h18.698
			c2.98,0,2.439-1.49,2.439-2.574c-0.407-13.278,4.064-21.543,4.064-21.543L88.577,35.237z"/>
	</g>
</g>
<path fill="#010101" d="M17.935,40.855L8.74,23.887l-1.019,0.58l9.237,16.891C16.958,41.357,17.523,40.993,17.935,40.855z"/>
<path fill="#010101" d="M6.92,26.686l3.435,6.411c0,0-3.368,1.999-3.928,3.357c-0.694,1.684-2.601,2.465-4.083,2.212
	C1.444,36.994,0,33.847,0,33.847s2.612-1.042,3.254-2.959S6.25,26.761,6.92,26.686z"/>
</svg>
