<svg version="1.1" xmlns="http://www.w3.org/2000/svg" width="768" height="768" viewBox="0 0 768 768">
<path d="M128 352c19.2 0 32-12.8 32-32v-224c0-19.2-12.8-32-32-32s-32 12.8-32 32v224c0 19.2 12.8 32 32 32z"></path>
<path d="M384 352c-19.2 0-32 12.8-32 32v288c0 19.2 12.8 32 32 32s32-12.8 32-32v-288c0-19.2-12.8-32-32-32z"></path>
<path d="M640 416c19.2 0 32-12.8 32-32v-288c0-19.2-12.8-32-32-32s-32 12.8-32 32v288c0 19.2 12.8 32 32 32z"></path>
<path d="M224 416h-192c-19.2 0-32 12.8-32 32s12.8 32 32 32h64v192c0 19.2 12.8 32 32 32s32-12.8 32-32v-192h64c19.2 0 32-12.8 32-32s-12.8-32-32-32z"></path>
<path d="M480 224h-64v-128c0-19.2-12.8-32-32-32s-32 12.8-32 32v128h-64c-19.2 0-32 12.8-32 32s12.8 32 32 32h192c19.2 0 32-12.8 32-32s-12.8-32-32-32z"></path>
<path d="M736 480h-192c-19.2 0-32 12.8-32 32s12.8 32 32 32h64v128c0 19.2 12.8 32 32 32s32-12.8 32-32v-128h64c19.2 0 32-12.8 32-32s-12.8-32-32-32z"></path>
</svg>
