<!-- Generated by IcoMoon.io -->
<svg version="1.1" xmlns="http://www.w3.org/2000/svg" width="24" height="24" viewBox="0 0 24 24">
<title>hash</title>
<path d="M20 14h-4.2l0.4-4h3.8c0.6 0 1-0.4 1-1s-0.4-1-1-1h-3.5l0.5-4.9c0.1-0.5-0.3-1-0.9-1.1-0.5-0.1-1 0.3-1.1 0.9l-0.6 5.1h-4l0.6-4.9c0.1-0.5-0.3-1-0.9-1.1-0.5-0.1-1 0.3-1.1 0.9l-0.6 5.1h-4.4c-0.6 0-1 0.4-1 1s0.4 1 1 1h4.2l-0.4 4h-3.8c-0.6 0-1 0.4-1 1s0.4 1 1 1h3.5l-0.5 4.9c-0.1 0.5 0.3 1 0.9 1.1 0 0 0.1 0 0.1 0 0.5 0 0.9-0.4 1-0.9l0.6-5.1h4l-0.6 4.9c-0.1 0.5 0.3 1 0.9 1.1 0 0 0.1 0 0.1 0 0.5 0 0.9-0.4 1-0.9l0.6-5.1h4.4c0.6 0 1-0.4 1-1s-0.4-1-1-1zM9.8 14l0.4-4h4l-0.4 4h-4z"></path>
</svg>
