<!-- Generated by IcoMoon.io -->
<svg version="1.1" xmlns="http://www.w3.org/2000/svg" width="24" height="24" viewBox="0 0 24 24">
<title>github</title>
<path d="M22.5 8.5c0-1.5-0.5-2.8-1.4-4 0.3-1.3 0.2-2.7-0.3-3.9-0.1-0.3-0.3-0.5-0.6-0.6-0.4-0.1-1.7-0.3-4.4 1.4-2.2-0.5-4.5-0.5-6.6 0-2.7-1.7-4-1.5-4.4-1.4-0.3 0.1-0.5 0.3-0.6 0.6-0.6 1.3-0.7 2.6-0.3 3.9-0.9 1.2-1.4 2.6-1.4 4 0 5.4 3 7.1 5.8 7.7-0.2 0.7-0.3 1.3-0.3 1.9v0.1c-2.1 0.4-2.8-0.4-3.6-1.5-0.5-0.7-1.1-1.5-2.2-1.7-0.5-0.1-1.1 0.2-1.2 0.7s0.2 1.1 0.7 1.2c0.3 0.1 0.7 0.5 1.1 1 0.9 1.2 2.2 2.8 5.2 2.4v1.7c0 0.6 0.4 1 1 1s1-0.4 1-1v-2.9c0 0 0-0.1 0-0.1v-0.9c0-0.7 0.2-1.3 0.7-1.8 0.3-0.3 0.4-0.7 0.2-1-0.1-0.4-0.4-0.6-0.8-0.7-2.9-0.4-5.6-1.3-5.6-6 0-1.2 0.4-2.2 1.2-3.1 0.3-0.3 0.3-0.7 0.2-1-0.3-0.9-0.3-1.7-0.1-2.5 0.5 0.1 1.4 0.4 2.6 1.3 0.3 0.2 0.6 0.2 0.9 0.1 2.1-0.6 4.4-0.6 6.5 0 0.3 0.1 0.6 0 0.8-0.1 1.3-0.9 2.2-1.2 2.6-1.3 0.2 0.8 0.2 1.6-0.1 2.4-0.1 0.4-0.1 0.8 0.2 1 0.8 0.8 1.2 1.9 1.2 3.1 0 4.7-2.7 5.7-5.6 6-0.4 0-0.7 0.3-0.8 0.7s0 0.8 0.2 1c0.5 0.5 0.7 1.2 0.7 1.9v3.9c0 0.6 0.4 1 1 1s1-0.4 1-1v-3.8c0.1-0.7 0-1.3-0.3-1.9 2.4-0.5 5.8-2.1 5.8-7.8z"></path>
</svg>
