<svg xmlns="http://www.w3.org/2000/svg" width="50" height="50" viewBox="0 0 50 50">
    <g fill="none" fill-rule="evenodd" stroke-width="2">
        <path stroke="#FFF" stroke-linecap="round" d="M26.816 42.637A20.154 20.154 0 0 1 23 43C11.954 43 3 34.045 3 23 3 11.955 11.954 3 23 3c11.044 0 20 8.954 20 20 0 1.984-.29 3.9-.826 5.708"/>
        <path stroke="#FFF" stroke-linecap="round" stroke-linejoin="round" d="M35.246 28.709a16.02 16.02 0 0 0-7.788-5.068A7.988 7.988 0 0 0 31 17a8 8 0 0 0-16 0 7.992 7.992 0 0 0 3.54 6.64c-5.564 1.612-9.882 6.156-11.156 11.858"/>
        <path stroke="#FFC901" d="M43.242 31.93L39 36.172l-4.242-4.242-2.828 2.828L36.172 39l-4.242 4.242 2.828 2.828L39 41.828l4.242 4.242 2.828-2.828L41.828 39l4.242-4.242z"/>
    </g>
</svg>
