<!-- Generated by IcoMoon.io -->
<svg version="1.1" xmlns="http://www.w3.org/2000/svg" width="24" height="24" viewBox="0 0 24 24">
<title>chevrons-right</title>
<path d="M18.7 11.3l-5-5c-0.4-0.4-1-0.4-1.4 0s-0.4 1 0 1.4l4.3 4.3-4.3 4.3c-0.4 0.4-0.4 1 0 1.4 0.2 0.2 0.5 0.3 0.7 0.3s0.5-0.1 0.7-0.3l5-5c0.4-0.4 0.4-1 0-1.4z"></path>
<path d="M11.7 11.3l-5-5c-0.4-0.4-1-0.4-1.4 0s-0.4 1 0 1.4l4.3 4.3-4.3 4.3c-0.4 0.4-0.4 1 0 1.4 0.2 0.2 0.4 0.3 0.7 0.3s0.5-0.1 0.7-0.3l5-5c0.4-0.4 0.4-1 0-1.4z"></path>
</svg>
