<!-- Generated by IcoMoon.io -->
<svg version="1.1" xmlns="http://www.w3.org/2000/svg" width="24" height="24" viewBox="0 0 24 24">
<title>zap</title>
<path d="M21.9 9.6c-0.2-0.4-0.5-0.6-0.9-0.6h-7.9l0.9-6.9c0.1-0.4-0.2-0.9-0.6-1-0.4-0.2-0.9-0.1-1.2 0.3l-10 12c-0.2 0.3-0.3 0.7-0.1 1.1 0.2 0.3 0.5 0.5 0.9 0.5h7.9l-0.9 6.9c-0.1 0.4 0.2 0.9 0.6 1 0.1 0.1 0.3 0.1 0.4 0.1 0.3 0 0.6-0.1 0.8-0.4l10-12c0.2-0.3 0.3-0.7 0.1-1zM12.4 18.7l0.6-4.6c0-0.3-0.1-0.6-0.2-0.8-0.2-0.2-0.5-0.3-0.8-0.3h-6.9l6.4-7.7-0.5 4.6c0 0.3 0.1 0.6 0.2 0.8 0.2 0.2 0.5 0.3 0.7 0.3h6.9l-6.4 7.7z"></path>
</svg>
