<svg version="1.1" xmlns="http://www.w3.org/2000/svg" width="24" height="24" viewBox="0 0 24 24">
<title>slack</title>
<path d="M23 8.7c-1.3-4.2-2.8-6.6-5.1-7.8-2.1-1.2-5-1.2-9.2 0.1-8.1 2.4-10.2 6.3-7.7 14.3 1.8 6 4.4 8.7 8.9 8.7 1.6 0 3.3-0.3 5.4-0.9 8-2.5 10.2-6.4 7.7-14.4zM14.7 21.1c-7 2.1-9.7 0.6-11.8-6.4-2.1-6.9-0.6-9.7 6.4-11.8 2-0.6 3.6-0.9 4.9-0.9 1.1 0 2.1 0.2 2.9 0.6 1.7 0.9 3 3 4.1 6.6v0c2 7 0.5 9.8-6.5 11.9z"></path>
<path d="M17.7 11.6l-1.9 0.7-1-2.8 1.9-0.7c0.5-0.2 0.8-0.7 0.6-1.3-0.2-0.5-0.7-0.8-1.3-0.6l-1.9 0.7-0.7-1.9c-0.2-0.5-0.7-0.8-1.3-0.6-0.5 0.2-0.8 0.7-0.6 1.3l0.7 1.9-2.8 1-0.6-2c-0.2-0.5-0.8-0.8-1.3-0.6-0.5 0.1-0.8 0.7-0.6 1.2l0.7 1.9-1.9 0.7c-0.5 0.2-0.8 0.7-0.6 1.3 0.1 0.4 0.5 0.7 0.9 0.7 0.1 0 0.2 0 0.3-0.1l1.9-0.7 1 2.8-1.9 0.7c-0.5 0.2-0.8 0.7-0.6 1.3 0.1 0.4 0.5 0.7 0.9 0.7 0.1 0 0.2 0 0.3-0.1l1.9-0.7 0.7 1.9c0.1 0.4 0.5 0.7 0.9 0.7 0.1 0 0.2 0 0.3-0.1 0.5-0.2 0.8-0.7 0.6-1.3l-0.7-1.9 2.8-1 0.7 1.9c0.1 0.4 0.5 0.7 0.9 0.7 0.1 0 0.2 0 0.3-0.1 0.5-0.2 0.8-0.7 0.6-1.3l-0.7-1.9 1.9-0.7c0.5-0.2 0.8-0.7 0.6-1.3 0.1-0.3-0.5-0.6-1-0.4zM11.1 13.9l-1-2.8 2.8-1 1 2.8-2.8 1z"></path>
</svg>
