<svg xmlns="http://www.w3.org/2000/svg" width="26" height="28" viewBox="0 0 26 28">
    <path fill="#404040" fill-rule="nonzero" d="M.078 12.422h.016C.906 5.953 5.328-.015 13.235 0c4.797 0 8.75 2.25 11.062 6.391 1.188 2.141 1.625 4.422 1.625 6.906v2.938H8.344c.078 7.25 10.656 7 15.219 3.813v5.891c-2.672 1.609-8.703 3-13.406 1.203-3.984-1.531-6.766-5.672-6.813-9.703-.063-5.203 2.578-8.656 6.813-10.625-.891 1.125-1.578 2.344-1.937 4.453h9.922c.578-5.922-5.609-5.922-5.609-5.922C6.689 5.548 2.47 8.954.08 12.423l-.002-.001z"/>
</svg>
