<svg version="1.1" xmlns="http://www.w3.org/2000/svg" width="32" height="32" viewBox="0 0 32 32">
<title>arrow</title>
<path d="M15.991 30.982c8.285-0 15-6.716 15-15s-6.715-15-15-15c-8.283 0-14.999 6.716-14.999 15s6.716 14.999 14.999 14.999zM17.022 6.211c0.019 0.015 0.039 0.029 0.058 0.045 0.034 0.028 0.069 0.060 0.102 0.094 0.001 0 0.003 0.002 0.004 0.003l7.495 7.495c0.66 0.66 0.66 1.728 0 2.388s-1.728 0.659-2.386 0l-4.615-4.616v12.801c0 0.932-0.756 1.688-1.688 1.688s-1.687-0.756-1.687-1.688v-12.801l-4.616 4.615c-0.659 0.66-1.728 0.66-2.387 0-0.658-0.659-0.658-1.727 0-2.386l7.497-7.496c0.036-0.036 0.071-0.068 0.107-0.097 0.015-0.013 0.030-0.026 0.046-0.037 0.012-0.009 0.026-0.020 0.038-0.027 0.28-0.208 0.625-0.332 1.001-0.333 0.377 0.001 0.723 0.125 1.004 0.333 0.009 0.006 0.018 0.014 0.027 0.021z"></path>
</svg>
