<svg version="1.1" xmlns="http://www.w3.org/2000/svg" width="24" height="24" viewBox="0 0 24 24">
<title>log-out</title>
<path d="M10 21h-5c-0.6 0-1-0.4-1-1v-16c0-0.6 0.4-1 1-1h5c0.6 0 1-0.4 1-1s-0.4-1-1-1h-5c-1.7 0-3 1.3-3 3v16c0 1.7 1.3 3 3 3h5c0.6 0 1-0.4 1-1s-0.4-1-1-1z"></path>
<path d="M21.9 12.4c0.1-0.2 0.1-0.5 0-0.8-0.1-0.1-0.1-0.2-0.2-0.3l-4-4c-0.4-0.4-1-0.4-1.4 0s-0.4 1 0 1.4l2.3 2.3h-9.6c-0.6 0-1 0.4-1 1s0.4 1 1 1h9.6l-2.3 2.3c-0.4 0.4-0.4 1 0 1.4 0.2 0.2 0.5 0.3 0.7 0.3s0.5-0.1 0.7-0.3l4-4c0.1-0.1 0.2-0.2 0.2-0.3z"></path>
</svg>
