<svg version="1.1" xmlns="http://www.w3.org/2000/svg" width="24" height="24" viewBox="0 0 24 24">
<title>at-sign</title>
<path d="M12 1c-2.9 0-5.7 1.1-7.8 3.2s-3.2 4.9-3.2 7.8c0 6.1 4.9 11 11 11 2.4 0 4.8-0.8 6.7-2.3 0.4-0.3 0.5-1 0.2-1.4s-1-0.5-1.4-0.2c-1.6 1.2-3.5 1.9-5.5 1.9-5 0-9-4-9-9 0-2.4 0.9-4.7 2.6-6.4s4-2.6 6.4-2.6c5 0 9 4 9 9v1c0 1.1-0.9 2-2 2s-2-0.9-2-2v-1c0-2.8-2.2-5-5-5s-5 2.2-5 5 2.2 5 5 5c1.5 0 2.8-0.7 3.7-1.7 0.7 1 1.9 1.7 3.3 1.7 2.2 0 4-1.8 4-4v-1c0-6.1-4.9-11-11-11zM12 15c-1.7 0-3-1.3-3-3s1.3-3 3-3 3 1.3 3 3-1.3 3-3 3z"></path>
</svg>
