<!-- Generated by IcoMoon.io -->
<svg version="1.1" xmlns="http://www.w3.org/2000/svg" width="24" height="24" viewBox="0 0 24 24">
<title>users</title>
<path d="M13 14h-8c-2.8 0-5 2.2-5 5v2c0 0.6 0.4 1 1 1s1-0.4 1-1v-2c0-1.7 1.3-3 3-3h8c1.7 0 3 1.3 3 3v2c0 0.6 0.4 1 1 1s1-0.4 1-1v-2c0-2.8-2.2-5-5-5z"></path>
<path d="M9 12c2.8 0 5-2.2 5-5s-2.2-5-5-5-5 2.2-5 5 2.2 5 5 5zM9 4c1.7 0 3 1.3 3 3s-1.3 3-3 3-3-1.3-3-3 1.3-3 3-3z"></path>
<path d="M20.2 14.2c-0.5-0.1-1.1 0.2-1.2 0.7s0.2 1.1 0.7 1.2c1.3 0.3 2.2 1.5 2.2 2.9v2c0 0.6 0.4 1 1 1s1-0.4 1-1v-2c0.1-2.3-1.4-4.3-3.7-4.8z"></path>
<path d="M16.2 2.2c-0.5-0.2-1 0.1-1.2 0.7-0.1 0.5 0.2 1.1 0.7 1.2 1.6 0.4 2.6 2 2.2 3.7-0.3 1.1-1.1 1.9-2.2 2.2-0.5 0.1-0.9 0.7-0.7 1.2 0.1 0.5 0.5 0.8 1 0.8 0.1 0 0.2 0 0.2 0 1.8-0.5 3.2-1.8 3.6-3.6 0.7-2.8-0.9-5.6-3.6-6.2z"></path>
</svg>
