<svg version="1.1" xmlns="http://www.w3.org/2000/svg" width="24" height="24" viewBox="0 0 24 24">
<title>link-2</title>
<path d="M18 6h-3c-0.6 0-1 0.4-1 1s0.4 1 1 1h3c2.2 0 4 1.8 4 4s-1.8 4-4 4h-3c-0.6 0-1 0.4-1 1s0.4 1 1 1h3c3.3 0 6-2.7 6-6s-2.7-6-6-6z"></path>
<path d="M9 16h-3c-2.2 0-4-1.8-4-4s1.8-4 4-4h3c0.6 0 1-0.4 1-1s-0.4-1-1-1h-3c-3.3 0-6 2.7-6 6s2.7 6 6 6h3c0.6 0 1-0.4 1-1s-0.4-1-1-1z"></path>
<path d="M7 12c0 0.6 0.4 1 1 1h8c0.6 0 1-0.4 1-1s-0.4-1-1-1h-8c-0.6 0-1 0.4-1 1z"></path>
</svg>
