<svg xmlns="http://www.w3.org/2000/svg" width="50" height="50" viewBox="0 0 50 50">
    <g fill="none" fill-rule="evenodd">
        <path fill="#FFF" d="M10.615 26.719c-.272.006.536-.228.26-.042-.086.47.194 1.062-.012 1.712.536.778.148 1.482.504 2.188-.116.452-.662.722-.802.796-.402.338-.332.638-.31.714-.406-.178-.904.002-1.042.292-.7.018-.666.36-1.1.238-.672.362-1.868.53-2.154.166-.77-.244-1.752-.836-2.032-1.628-.862-.68-1.174-1.77-1.882-2.692-.402-1.31-.75-3.056-1.02-4.658a50.592 50.592 0 0 1 .096-5.17c.03-.986.286-2.212.824-3.182.988-1.098 1.488-1.872 1.926-2.454.598-.444 1.558-.684 3.068-1.06.436.188 1.31.018 1.718-.028.336.212 1.55.254 1.544.526.366.334-.234.56.534.822.05.722-.28 1.04-.47 1.728-.026.512-.1.622.086 1.262-.268.42.072.676.092 1.116-.26.012-.922.02-.552.058-.21-.044-.946-3.984-1.532-3.978.202-.036-.51.092-.79-.042-.128.04-.638.194-.614.364-1.05-.21-.942.128-1.676.502-.544.474-.806 1.326-1.692 2.122.018.658-.432 1.858-.806 2.828-.164 1.32.098 2.782.54 4.2.074 1.124-.298 2.562.404 3.664.002.772.616 1.878 1.256 2.504.336.428.98.93 1.77 1.438.01.404 1.114.136 1.244.008.888.044 1.294-.15 1.102-.074.742-.59.586-.552.57-.832.306.222.618-3.67.948-3.408M17.52 16.027c.018.02.542-1.968.222-1.91.176-.186.118-.038.294-.12-.298.144-1.104 2.248-.944 2.234-.1-.022-2.888 6.99-3.036 7.004-.12.104-.71 1.188-.788 1.114-.044.026 1.476-.504 1.498-.558-.312.108 2.806-.596 2.746-.48.266-.126.296-7.314.008-7.284m2.618 13.23c.032.04-3.824 1.22-4.418 1.366.324-.408.32-.924.646-1.11.008-.13.432-.56 1.232-.85-.19-.04.374-4.094.068-4.062-.248.22-5.452 1.442-5.616 1.284-.092.058.396-.702.44-.816-.642.228 6.336-15.082 6.196-14.84.608-.25 1.014-.462.51-.388.29.01.226 13.01.13 12.958-.264.19 1.902-.2 2.02-.326.03-.134-.078 1.162-.074 1.2.228-.086-1.888.566-2.038.69-.192-.166-.026 3.958-.15 3.716.216.112 1.028.204 1.362.402.058.036.234.692-.308.776M27.8 15.545c-.816.094-1.464.616-1.618 1.13a6.394 6.394 0 0 0-.826 2.386c-.252.08-.642 7.838-.778 7.72.496.036.67.284.658.34.506.07.784-.06 1.218-.062.326-.178.602-.398 1.114-.828.274-.29.506-.88.85-1.418.174-.696.362-1.402.528-2.156.37-.768.288-1.566.372-2.426.076-.86.106-1.348.258-2.142.014-.448-.126-.958-.462-1.466.064-.392-.342-.608-.522-.912-.274-.186-.418-.372-.792-.166m-2.106 17.892c-.366-.016-4.246 1.236-3.806.994.032-.006.042-.756.174-.854-.072-.224.452-.372.538-.796.588-.228 1.322-16.216.734-16.178.574.052-.784-.088-.734.08-.128-.148-.274-.832.132-.92.296-.178.556-.622 1.17-.738.22-.382.552-.602.92-.734.396.008.392-.006.394.064.004-.208-.15 3.174.19 2.838.088.27-.018.278-.434.144.728-.936.716-1.572 1.382-2.41.488-.626 1.602-.944 2.188-1.08.824-.156 2.018-.008 2.632.884-.07 1.216.508 2.6-.236 5.072.154 1.292-.242 2.26-.154 3.224-.71.896-.79 1.564-1.334 2.512-.648.642-1.026 1.206-1.28 1.532-.784.64-1.02 1.062-1.75.958-.214.116-.494.366-.706.23-.714.034-1.094.174-.866-.342.064.078-.368 4.558-.478 4.348-.026.314.66.158.598.134-.036-.03.376.296.622.256-.424.096.01.584.104.782M32.657 13.85c.954-.467 1.416-.98 2.064-1.227-.252-.044.172-2.278.204-2.434.04.052.126-.18.55-.51.092-.206.394-.474.68-.678.166.09.258.02.324.222-.092.042-.376 3.486-.536 3.312.022-.02 3.004-.556 3.276-.568-.052.03-.254 1.294-.646 1.352.436.062-2.62.758-2.594.458-.208.108-1.192 7.842-.916 7.736-.45 1.354-.54 2.092-.056 2.116.176.566.484.728.966.436-.054.01.514.06.57-.09.564-.084.542-.096.9-.336-.22-.044.274.072-.114.402-.032.024-.358.33-.362.612.03.106-.408.268-.716.69-.272.076-.598.24-.59.354-.372.046-.712.41-.83.418-.806.116-1.136.048-1.464-.448-.088-.546-.582-1.386-.184-2.886.272-.226 1.126-8.518 1.278-8.496-.392.098-1.486.182-1.522.238-.3.118.1-.764-.282-.672M45.433 21.484c-.562.59-1.222 1.3-1.668 1.72-.26.452-1.038.868-1.87 1.196-.228-.016-1.206.08-1.486-.25-.452-.224-.894-.5-1.17-.996-.07-.65-.174-1.162-.238-1.988.102-.922.174-1.81.044-2.68.442-2.22 1.394-4.248 2.112-5.374 1.354-1.406 2.192-2.226 4.014-2.716.366-.036 1.018-.03 1.106.006 1.002.02 1.098.162 1.58.238-.144.758-.874 1.496-.908 2.174-.056.636-.7 1.298-.462 1.716-.518.262-.59.116-.83.296-.186.046-.3-2.918-.328-2.948.228-.302.298-.322-.008-.162.108-.164-.234-.036-.462-.136-.882.39-1.784.754-2.116 1.754-1.03.974-1.24 2.622-1.542 4.49-.194.62-.412 1.494-.402 2.002.208.64-.036 1.23.246 1.508.04.43.696.82.646 1.018.498.246.712.196 1.45.24.104-.066.632-.386 1.174-.768.134-.19.404-.43.85-.57-.25-.15.04.17.268.23"/>
        <path stroke="#FFC901" stroke-width="2" d="M45.099 25.823l-4.242 4.244-4.242-4.244-2.828 2.83 4.242 4.242-4.242 4.242 2.828 2.828 4.242-4.242 4.242 4.242 2.828-2.828-4.242-4.242 4.242-4.242z"/>
    </g>
</svg>
