<svg version="1.1" xmlns="http://www.w3.org/2000/svg" width="24" height="24" viewBox="0 0 24 24">
<title>download</title>
<path d="M21 16c-0.6 0-1 0.4-1 1v3c0 0.6-0.4 1-1 1h-14c-0.6 0-1-0.4-1-1v-3c0-0.6-0.4-1-1-1s-1 0.4-1 1v3c0 1.7 1.3 3 3 3h14c1.7 0 3-1.3 3-3v-3c0-0.6-0.4-1-1-1z"></path>
<path d="M11.3 16.7c0.1 0.1 0.2 0.2 0.3 0.2 0.1 0.1 0.3 0.1 0.4 0.1s0.3 0 0.4-0.1c0.1-0.1 0.2-0.1 0.3-0.2l4-4c0.4-0.4 0.4-1 0-1.4s-1-0.4-1.4 0l-2.3 2.3v-11.6c0-0.6-0.4-1-1-1s-1 0.4-1 1v11.6l-2.3-2.3c-0.4-0.4-1-0.4-1.4 0s-0.4 1 0 1.4l4 4z"></path>
</svg>
