<svg version="1.1" xmlns="http://www.w3.org/2000/svg" width="32" height="32" viewBox="0 0 32 32">
<title>spinner8</title>
<path d="M16 30.944c-3.992 0-7.745-1.554-10.568-4.377s-4.377-6.576-4.377-10.568c0-2.826 0.794-5.578 2.294-7.96 1.459-2.314 3.521-4.184 5.965-5.408l1.255 2.505c-1.986 0.996-3.663 2.516-4.849 4.397-1.218 1.932-1.862 4.168-1.862 6.465 0 6.695 5.447 12.142 12.142 12.142s12.142-5.447 12.142-12.142c0-2.298-0.645-4.532-1.862-6.465-1.186-1.883-2.864-3.404-4.849-4.397l1.255-2.505c2.443 1.224 4.506 3.093 5.965 5.408 1.5 2.38 2.294 5.133 2.294 7.96 0 3.992-1.554 7.745-4.377 10.568s-6.575 4.377-10.568 4.377z"></path>
</svg>
