<svg version="1.1" xmlns="http://www.w3.org/2000/svg" width="32" height="32" viewBox="0 0 32 32">
<title>upload-2</title>
<path d="M30.206 13.333c-0.028-0.668-0.089-1.353-0.16-2.052-0.496-4.844-4.361-8.818-9.184-9.419-5.204-0.649-9.767 2.487-11.356 7.026-0.199-0.018-0.4-0.030-0.604-0.030-3.902 0-7.129 3.184-7.129 7.093v1.771c0 0.969 0.844 1.756 1.81 1.756h0.036c0.965 0 1.703-0.83 1.703-1.797v-1.397c-0.204-2.11 1.515-3.886 3.58-3.886 0.103 0 0.204 0.009 0.306 0.018l1.369-0.018c0.804 0.069 1.545-0.283 1.812-1.044l0.384-1.097c0.932-2.665 3.284-4.663 6.091-4.912 4.347-0.386 8.101 3.278 7.812 7.614l-0.005 0.373v4.556h0.018c0.052 0.926 0.864 1.666 1.801 1.666h0.036c0.923 0 1.627-0.757 1.691-1.666h0.012v-4.556h-0.020z"></path>
<path d="M22.562 21.865l-5.372-5.348c-0.332-0.331-0.782-0.517-1.253-0.517s-0.921 0.187-1.253 0.517l-5.248 5.333c-0.692 0.688-0.692 1.804 0 2.494s1.813 0.69 2.505 0l2.288-2.341v6.459c0 0.972 0.784 1.76 1.751 1.76h0.036c0.967 0 1.751-0.788 1.751-1.76v-6.188l0.229 0.037 1.988 1.98c0.628 0.624 1.632 0.777 2.35 0.26 0.912-0.656 0.987-1.929 0.226-2.686z"></path>
</svg>
