<svg version="1.1" xmlns="http://www.w3.org/2000/svg" width="32" height="32" viewBox="0 0 32 32">
<title>bug</title>
<path d="M30.976 17.872v-1.872h-5.653c-0.172-2.127-0.93-4.066-2.097-5.623h4.736l2.050-8.197-1.816-0.455-1.694 6.778h-5.109c-0.026-0.021-0.052-0.039-0.079-0.060 0.197-0.571 0.303-1.183 0.303-1.82 0-3.094-2.514-5.601-5.616-5.601s-5.616 2.508-5.616 5.601c0 0.636 0.107 1.249 0.303 1.82-0.026 0.021-0.052 0.039-0.079 0.060h-5.109l-1.694-6.778-1.816 0.455 2.050 8.197h4.736c-1.166 1.557-1.924 3.497-2.097 5.623h-5.653v1.872h5.655c0.11 1.335 0.453 2.598 0.985 3.736h-3.626l-2.050 8.197 1.816 0.455 1.694-6.778h3.287c1.717 2.282 4.311 3.736 7.214 3.736s5.498-1.454 7.215-3.736h3.287l1.694 6.778 1.816-0.455-2.050-8.197h-3.626c0.53-1.138 0.872-2.402 0.985-3.736h5.655z"></path>
</svg>
