<svg version="1.1" xmlns="http://www.w3.org/2000/svg" width="768" height="768" viewBox="0 0 768 768">
<title>target</title>
<path d="M384 32c-195.2 0-352 156.8-352 352s156.8 352 352 352 352-156.8 352-352-156.8-352-352-352zM384 672c-160 0-288-128-288-288s128-288 288-288c160 0 288 128 288 288s-128 288-288 288z"></path>
<path d="M384 160c-124.8 0-224 99.2-224 224s99.2 224 224 224c124.8 0 224-99.2 224-224s-99.2-224-224-224zM384 544c-89.6 0-160-70.4-160-160s70.4-160 160-160 160 70.4 160 160-70.4 160-160 160z"></path>
<path d="M384 288c-54.4 0-96 41.6-96 96s41.6 96 96 96 96-41.6 96-96-41.6-96-96-96zM384 416c-19.2 0-32-12.8-32-32s12.8-32 32-32 32 12.8 32 32-12.8 32-32 32z"></path>
</svg>
