<svg version="1.1" xmlns="http://www.w3.org/2000/svg" width="32" height="32" viewBox="0 0 32 32">
<title>left</title>
<path d="M16 1.778c-7.854 0-14.222 6.368-14.222 14.222s6.368 14.222 14.222 14.222 14.222-6.368 14.222-14.222-6.368-14.222-14.222-14.222zM16 26.667c-5.883 0-10.667-4.784-10.667-10.667s4.784-10.667 10.667-10.667 10.667 4.784 10.667 10.667-4.784 10.667-10.667 10.667z"></path>
<path d="M21.351 14.226h-6.459l2.341-2.299c0.69-0.697 0.69-1.822 0-2.519s-1.806-0.695-2.494 0l-5.333 5.275c-0.331 0.334-0.517 0.786-0.517 1.26 0 0.020 0 0.041 0.002 0.060s-0.002 0.041-0.002 0.060c0 0.473 0.187 0.926 0.517 1.26l5.333 5.275c0.69 0.695 1.806 0.695 2.494 0s0.69-1.822 0-2.519l-2.341-2.3h6.459c0.972 0 1.76-0.788 1.76-1.76v-0.032c0-0.972-0.788-1.76-1.76-1.76z"></path>
</svg>
