<svg xmlns="http://www.w3.org/2000/svg" width="28" height="28" viewBox="0 0 28 28">
    <path fill="#404040" fill-rule="nonzero" d="M22.524 3.44a9.72 9.72 0 0 0-5.416-1.66c-3.213 0-6.05 1.645-8.04 4.12-1.45 1.81-2.46 4.374-2.535 7.3v.634c.075 2.926 1.086 5.492 2.534 7.301 1.992 2.474 4.828 4.12 8.041 4.12a9.716 9.716 0 0 0 5.416-1.66 13.442 13.442 0 0 1-9.007 3.44c-.211 0-.437 0-.649-.016C5.702 26.687 0 20.773 0 13.517 0 6.05 6.05 0 13.517 0h.046a13.499 13.499 0 0 1 8.96 3.44zm4.51 10.077c0 3.938-1.69 7.468-4.374 9.942a6.424 6.424 0 0 1-3.35.95c-1.387 0-2.7-.453-3.846-1.267 3.062-1.117 5.326-4.994 5.326-9.626 0-4.616-2.248-8.493-5.31-9.625 1.146-.8 2.443-1.252 3.831-1.252 1.223 0 2.369.346 3.41.98a13.482 13.482 0 0 1 4.314 9.897v.001z"/>
</svg>
