<svg version="1.1" xmlns="http://www.w3.org/2000/svg" width="18" height="18" viewBox="0 0 18 18">
<title>cloud2</title>
<path d="M11 5c2.296 0 4.147 1.945 3.991 4.274-0.142 2.124-2.003 3.726-4.132 3.726h-5.77c-1.044 0-1.978-0.761-2.079-1.8-0.116-1.192 0.821-2.2 1.99-2.2 0.059 0 0.116 0.005 0.173 0.010l0.772 0.066c0.454 0.039 0.877-0.235 1.028-0.666l0.256-0.731c0.562-1.602 2.077-2.679 3.771-2.679zM11 3c-2.618 0-4.838 1.679-5.658 4.017-0.113-0.010-0.227-0.017-0.342-0.017-2.209 0-4 1.791-4 4s1.791 4 4 4h6c3.313 0 6-2.686 6-6s-2.687-6-6-6v0z"></path>
</svg>
