<svg xmlns="http://www.w3.org/2000/svg" width="28" height="28" viewBox="0 0 28 28">
    <path fill="#404040" fill-rule="nonzero" d="M13.953 0A13.9 13.9 0 0 1 21 1.875a14.04 14.04 0 0 1 5.5 5.812l-11.594-.609c-3.281-.187-6.406 1.656-7.484 4.75L3.11 5.203C5.798 1.859 9.829.016 13.954 0h-.001zM2.281 6.328l5.266 10.359c1.484 2.922 4.625 4.703 7.875 4.094l-3.594 7.047C5.125 26.797 0 21 0 14c0-2.828.844-5.469 2.281-7.672zm24.781 2.641c2.453 6.312 0 13.656-6.062 17.156a13.962 13.962 0 0 1-7.781 1.859l6.328-9.734c1.797-2.766 1.766-6.375-.375-8.875l7.89-.406zM14 9.281A4.715 4.715 0 0 1 18.719 14 4.714 4.714 0 0 1 14 18.719 4.714 4.714 0 0 1 9.281 14 4.714 4.714 0 0 1 14 9.281z"/>
</svg>
