<svg version="1.1" xmlns="http://www.w3.org/2000/svg" width="32" height="32" viewBox="0 0 32 32">
<title>up</title>
<path d="M30.222 16c0-7.854-6.368-14.222-14.222-14.222s-14.222 6.368-14.222 14.222c0 7.854 6.368 14.222 14.222 14.222s14.222-6.368 14.222-14.222zM5.333 16c0-5.883 4.784-10.667 10.667-10.667s10.667 4.784 10.667 10.667-4.784 10.667-10.667 10.667-10.667-4.784-10.667-10.667z"></path>
<path d="M17.774 21.351v-6.459l2.299 2.341c0.697 0.69 1.822 0.69 2.519 0s0.695-1.806 0-2.494l-5.275-5.333c-0.334-0.331-0.786-0.517-1.26-0.517-0.020 0-0.041 0-0.060 0.002s-0.041-0.002-0.060-0.002c-0.473 0-0.926 0.187-1.26 0.517l-5.275 5.333c-0.695 0.69-0.695 1.806 0 2.494s1.822 0.69 2.519 0l2.3-2.341v6.459c0 0.972 0.788 1.76 1.76 1.76h0.032c0.972 0 1.76-0.788 1.76-1.76z"></path>
</svg>
