<?xml version="1.0" encoding="UTF-8"?>
<svg width="31px" height="15px" viewBox="0 0 31 15" version="1.1" xmlns="http://www.w3.org/2000/svg" xmlns:xlink="http://www.w3.org/1999/xlink">
    <!-- Generator: Sketch 43.2 (39069) - http://www.bohemiancoding.com/sketch -->
    <title>leaf</title>
    <desc>Created with Sketch.</desc>
    <defs></defs>
    <g id="Page-1" stroke="none" stroke-width="1" fill="none" fill-rule="evenodd">
        <g id="leaf" transform="translate(15.500000, 7.500000) scale(1, -1) rotate(-90.000000) translate(-15.500000, -7.500000) translate(8.000000, -8.000000)" fill-rule="nonzero" fill="#FFC800">
            <path d="M7.69292666,20.9097796 C9.30314372,20.9097796 10.8668446,20.3235511 12.0643349,19.2541851 C13.426435,18.0375849 14.1925181,16.3048076 14.1662545,14.4999929 C14.1622779,14.2253845 13.9483776,13.997176 13.6685409,13.9689208 C11.8291648,13.7831403 9.99311784,14.3745144 8.63101774,15.5910243 C8.25186026,15.9296358 7.92079106,16.3095017 7.6382725,16.7185257 L7.6382725,13.3468542 C7.65658303,13.3470347 7.67489356,13.3482083 7.69320409,13.3482083 C9.3032362,13.3482083 10.8671221,12.7618895 12.0645199,11.6926137 C13.42662,10.4761038 14.192703,8.74332646 14.1664394,6.93842151 C14.1624629,6.66381308 13.9485626,6.43560463 13.6687259,6.40734939 C11.8293497,6.22183976 9.9933028,6.81294297 8.63120269,8.02945288 C8.25204522,8.36806439 7.92097601,8.74784008 7.63845745,9.15695427 L7.63845745,8.18697809 C8.98631603,7.30312172 9.81102978,5.80884385 9.81102978,4.21427342 C9.81102978,2.51327192 8.87247632,0.926284371 7.36148754,0.0728497698 C7.18957199,-0.0242832566 6.97761372,-0.0242832566 6.80560569,0.0728497698 C5.2947094,0.926374644 4.35606346,2.51327192 4.35606346,4.21427342 C4.35606346,5.80884385 5.1807772,7.30312172 6.52863578,8.18697809 L6.52863578,9.156864 C6.24611723,8.74784008 5.91504802,8.36806439 5.53589054,8.02936261 C4.17379044,6.8128527 2.33802092,6.22165921 0.498367351,6.40725912 C0.218530639,6.43551436 0.00463033751,6.66372281 0.000653807905,6.93833123 C-0.025609783,8.74314591 0.74047327,10.4759233 2.10257338,11.6925235 C3.30006365,12.7619797 4.86367208,13.348118 6.47388914,13.348118 C6.49219967,13.348118 6.51051021,13.3468542 6.52882074,13.3467639 L6.52882074,16.7184354 C6.24630218,16.3094115 5.91523297,15.9295455 5.5360755,15.590934 C4.17397539,14.3744241 2.33820587,13.7832306 0.498552306,13.9688305 C0.218715594,13.9970858 0.00481529238,14.2252942 0.00083876277,14.4999026 C-0.0254248281,16.3047173 0.740658224,18.0374947 2.10275833,19.2540949 C3.30024861,20.3235511 4.86376456,20.9096894 6.47416658,20.9096894 C6.49238463,20.9096894 6.51078764,20.9084256 6.52900569,20.9083353 L6.52900569,24.2800068 C6.24648714,23.8709829 5.91541793,23.4912072 5.53626045,23.1525054 C4.17416035,21.9359955 2.33839083,21.344802 0.498737261,21.5304019 C0.218900549,21.5586572 0.00500024724,21.7868656 0.00102371764,22.061474 C-0.0252398733,23.8662887 0.740843179,25.5990661 2.10294329,26.8156663 C3.30043356,27.8851225 4.86394952,28.4712608 6.47435153,28.4712608 C6.49256958,28.4712608 6.51097259,28.469997 6.52919065,28.4699067 L6.52919065,30.0606857 C6.52919065,30.3597579 6.77758503,30.6023196 7.08405524,30.6023196 C7.39052546,30.6023196 7.63891984,30.3597579 7.63891984,30.0606857 L7.63891984,28.4699067 C7.65713789,28.4700872 7.6755409,28.4712608 7.69375896,28.4712608 C9.30397602,28.4712608 10.8676769,27.8850323 12.0651672,26.8156663 C13.4272673,25.5991563 14.1933504,23.866379 14.1670868,22.061474 C14.1631102,21.7868656 13.9492099,21.5586572 13.6693732,21.5304019 C11.8299971,21.3447117 9.99395014,21.9359955 8.63185004,23.1525054 C8.25269256,23.4911169 7.92162335,23.8708926 7.6391048,24.2800068 L7.6391048,20.9083353 C7.6563056,20.9085158 7.67470861,20.9097796 7.69292666,20.9097796 Z M9.56738328,16.5944649 C10.5159786,15.7513008 11.753814,15.2940088 13.0343213,15.3012444 C12.929876,16.537431 12.3495557,17.698282 11.4008728,18.5414461 C10.460952,19.3768638 9.23336838,19.8348368 7.96898351,19.8348368 C7.95732979,19.8348368 7.94558844,19.8348368 7.93393472,19.8347517 C8.0383801,18.5984799 8.61878795,17.4377141 9.56738328,16.5944649 Z M9.56738328,8.66057009 C10.5159786,7.81741471 11.753814,7.35808443 13.0343213,7.36736297 C12.929876,8.60353686 12.3495557,9.76437582 11.4008728,10.6075312 C10.4521022,11.4507717 9.20725703,11.9108681 7.93393472,11.9007383 C8.0383801,10.6646495 8.61878795,9.50381059 9.56738328,8.66057009 Z M2.7668678,10.6075573 C1.81827248,9.76440048 1.23786462,8.60355951 1.13341925,7.36738347 C2.41427704,7.35742392 3.65184959,7.81752112 4.6003573,8.66059283 C5.54895262,9.50374967 6.12936048,10.6645906 6.23380585,11.9007667 C4.95767964,11.9099601 3.71546313,11.4507142 2.7668678,10.6075573 Z M6.19875707,19.8348368 C4.93445983,19.8348368 3.70678856,19.3768665 2.7668678,18.5414539 C1.81827248,17.6982097 1.23786462,16.5374509 1.13341925,15.3012717 C2.41427704,15.2929295 3.65184959,15.7514105 4.6003573,16.5944844 C5.54895262,17.4377285 6.12936048,18.5984873 6.23380585,19.8346666 C6.22215213,19.8347517 6.21041079,19.8348368 6.19875707,19.8348368 Z M6.19867005,27.2020619 C4.93439453,27.2020619 3.70674435,26.7440889 2.76683974,25.9086713 C1.81826071,25.0655074 1.23786283,23.9046566 1.13341925,22.6684701 C1.14507277,22.6683849 1.15690153,22.6683849 1.16855505,22.6683849 C2.43274295,22.6683849 3.66048075,23.1263579 4.60038536,23.9617755 C5.54896439,24.8049395 6.12936227,25.9657903 6.23380585,27.2019768 C6.22206471,27.2019768 6.21032357,27.2020619 6.19867005,27.2020619 Z M9.56738328,23.9617032 C10.5159786,23.1185426 11.760298,22.6604863 13.0343213,22.668488 C12.929876,23.9046696 12.3495557,25.0655158 11.4008728,25.9086765 C10.460952,26.7440908 9.23336838,27.2020619 7.96898351,27.2020619 C7.95732979,27.2020619 7.94558844,27.2020619 7.93393472,27.2019768 C8.0383801,25.9657101 8.61878795,24.8048638 9.56738328,23.9617032 Z M5.66709623,4.25032217 C5.66709623,3.00781318 6.31068243,1.84171343 7.3672251,1.13341925 C8.42386496,1.84171343 9.06735397,3.00781318 9.06735397,4.25032217 C9.06735397,5.49283117 8.42376777,6.65893091 7.3672251,7.3672251 C6.31058524,6.65883807 5.66709623,5.49273832 5.66709623,4.25032217 Z" id="Shape"></path>
        </g>
    </g>
</svg>