<?xml version="1.0" encoding="UTF-8"?>
<svg width="30px" height="30px" viewBox="0 0 30 30" version="1.1" xmlns="http://www.w3.org/2000/svg" xmlns:xlink="http://www.w3.org/1999/xlink">
    <title>svg-cross2</title>
    <g id="Page-1" stroke="none" stroke-width="1" fill="none" fill-rule="evenodd">
        <g id="svg-x" fill-rule="nonzero" fill="#CC1717">
            <path d="M18,15 L29.3571429,3.64285714 C30.2142857,2.78571429 30.2142857,1.5 29.3571429,0.642857143 C28.5,-0.214285714 27.2142857,-0.214285714 26.3571429,0.642857143 L15,12 L3.64285714,0.642857143 C2.78571429,-0.214285714 1.5,-0.214285714 0.642857143,0.642857143 C-0.214285714,1.5 -0.214285714,2.78571429 0.642857143,3.64285714 L12,15 L0.642857143,26.3571429 C-0.214285714,27.2142857 -0.214285714,28.5 0.642857143,29.3571429 C1.07142857,29.7857143 1.5,30 2.14285714,30 C2.78571429,30 3.21428571,29.7857143 3.64285714,29.3571429 L15,18 L26.3571429,29.3571429 C26.7857143,29.7857143 27.4285714,30 27.8571429,30 C28.2857143,30 28.9285714,29.7857143 29.3571429,29.3571429 C30.2142857,28.5 30.2142857,27.2142857 29.3571429,26.3571429 L18,15 Z" id="Shape"></path>
        </g>
    </g>
</svg>