<!-- Generated by IcoMoon.io -->
<svg version="1.1" xmlns="http://www.w3.org/2000/svg" width="32" height="32" viewBox="0 0 32 32">
<title>cross2</title>
<path fill="#bf0101" d="M30.173 24.76v0l-8.76-8.76 8.76-8.76c0.094-0.094 0.162-0.204 0.206-0.321 0.119-0.321 0.050-0.697-0.206-0.955l-4.138-4.138c-0.258-0.258-0.633-0.327-0.955-0.206-0.117 0.043-0.227 0.112-0.321 0.206v0l-8.76 8.76-8.76-8.76c-0.094-0.094-0.204-0.162-0.321-0.206-0.321-0.119-0.697-0.052-0.955 0.206l-4.138 4.138c-0.258 0.258-0.327 0.633-0.206 0.955 0.043 0.117 0.112 0.227 0.206 0.321v0l8.76 8.76-8.76 8.76c-0.094 0.094-0.162 0.204-0.206 0.321-0.119 0.321-0.052 0.697 0.206 0.955l4.138 4.138c0.258 0.258 0.633 0.327 0.955 0.206 0.117-0.043 0.227-0.112 0.321-0.206v0l8.76-8.76 8.76 8.76c0.094 0.094 0.204 0.162 0.321 0.206 0.321 0.119 0.697 0.052 0.955-0.206l4.138-4.138c0.258-0.258 0.327-0.633 0.206-0.955-0.043-0.117-0.112-0.227-0.206-0.321z"></path>
</svg>
