<svg width="160px" height="447px" viewBox="0 0 160 447" version="1.1" xmlns="http://www.w3.org/2000/svg" xmlns:xlink="http://www.w3.org/1999/xlink">
    <g id="Page-1" stroke="none" stroke-width="1" fill="none" fill-rule="evenodd">
        <g id="bulb" transform="translate(-59.000000, 2.000000)">
            <g id="lightbulb" transform="translate(62.000000, 0.000000)">
                <path d="M0.773666667,376.676578 C4.38540385,415.046897 31.7089808,441.937571 77.0912436,441.937571 C122.473506,441.937571 149.797083,415.046897 153.408821,376.676578 C156.235397,337.834493 143.358769,325.725827 126.242276,300.722218 C120.746154,292.859448 117.291449,284.210401 115.093,276.03312 C115.093,276.03312 63.4294551,276.662141 63.2724231,276.03312 L39.2465192,276.03312 C37.0480705,284.210401 33.5933654,292.859448 28.0972436,300.722218 C10.8237179,325.725827 -2.05291026,337.834493 0.773666667,376.676578 Z" id="Shape" stroke="#505050" stroke-width="5.5"></path>
                <path d="M121.569101,369.851777 C121.134372,369.198756 120.699643,368.763409 120.04755,364.845284 L93.3117213,283 C90.4859833,283.435347 91.5728056,283.435347 90.4859833,283.435347 L88.5297031,283.435347 C87.2255164,283.870695 87.6602453,285.39441 88.0949742,286.700452 L113.309252,363.539242 C107.223047,360.491811 99.6152906,359.185769 93.3117213,361.144832 C92.0075345,361.580179 90.7033477,362.2332 89.6165254,362.886221 L78.9656668,359.621117 C74.4010131,359.621117 69.8363595,361.144832 66.5758925,363.756915 C64.6196124,362.668547 62.4459678,362.015526 60.0549587,361.362506 C52.8819315,359.621117 46.5783621,360.056464 41.361615,362.668547 L66.1411636,286.918125 C66.5758925,285.612084 67.0106215,283.435347 66.793257,283.435347 C61.141781,283.217674 61.141781,283.653021 61.3591455,285.176736 L34.1885878,368.328062 C33.9712234,368.545735 33.7538589,368.763409 33.5364944,369.198756 C32.6670366,370.287124 32.8844011,371.81084 33.9712234,372.681534 C35.0580457,373.552229 36.5795969,373.334555 37.4490547,372.246187 C42.4484373,365.933652 49.6214646,363.974589 58.7507719,366.368999 C59.8375942,366.586673 61.3591455,367.02202 62.8806967,367.892714 C61.3591455,370.287124 60.4896876,373.116881 60.7070521,375.728965 C60.9244166,381.388479 62.8806967,385.306605 65.9237992,386.83032 C67.6627148,387.701014 69.618995,387.701014 71.3579107,386.612646 C73.9662842,384.871257 75.270471,380.735458 74.8357421,375.511291 C74.6183776,372.246187 73.0968264,369.41643 70.7058173,367.02202 C74.8357421,364.409936 81.1393114,364.192263 85.7039651,366.586673 C83.9650494,368.981083 83.0955916,372.028513 82.8782271,375.511291 C82.6608627,380.517785 84.1824139,384.43591 87.0081519,386.177299 C88.7470676,387.265667 90.9207122,387.265667 92.8769923,386.394973 C95.7027303,384.653584 97.441646,380.735458 97.2242816,375.728965 C97.2242816,372.463861 95.9200948,369.198756 93.7464502,366.586673 C94.1811791,366.368999 94.3985436,366.368999 94.8332725,366.151325 C102.441029,363.756915 113.526616,368.110388 117.656541,373.116881 C118.525999,374.20525 120.04755,374.422923 121.134372,373.552229 C122.221195,372.463861 122.438559,370.940145 121.569101,369.851777 Z M68.3148082,382.259174 L68.3148082,382.259174 L68.0974438,382.259174 C67.4453504,381.823826 65.9237992,379.864764 65.7064347,375.511291 C65.7064347,373.769902 66.1411636,372.028513 67.0106215,370.504798 C68.5321727,371.81084 69.4016305,373.552229 69.618995,375.728965 C70.0537239,379.64709 69.1842661,381.823826 68.3148082,382.259174 Z M90.2686188,381.823826 L90.0512544,381.823826 C90.0512544,381.823826 89.8338899,381.823826 89.6165254,381.606153 C88.964432,381.170806 87.6602453,379.429417 87.8776097,375.511291 C88.0949742,373.116881 88.5297031,371.157819 89.6165254,369.41643 C91.1380767,371.157819 92.0075345,373.116881 92.0075345,375.293618 C92.0075345,379.64709 90.9207122,381.388479 90.2686188,381.823826 Z" id="Shape" fill="#505050"></path>
                <path d="M78.3333333,193.5 L78.3333333,0.5" id="Line" stroke="#505050" stroke-width="5" stroke-linecap="square"></path>
            </g>
            <path d="M171.29694,220.966797 L109.831173,220.966797 C109.939683,220.323238 110.071384,219.644187 110.228661,218.935499 C111.024122,215.351162 112.296003,211.769373 114.139797,208.446329 C119.345633,199.063926 127.989879,193.5 141.227707,193.5 C154.438286,193.5 162.784532,199.031727 167.546889,208.369255 C169.235806,211.680706 170.344281,215.253333 170.977674,218.829824 C171.110072,219.577418 171.215457,220.292051 171.29694,220.966797 Z M104.5,253.569595 L175.5,253.569595 L175.5,265.513532 L104.5,265.513532 L104.5,253.569595 Z M107.5,231.556063 L173.5,231.556063 L173.5,243.5 L107.5,243.5 L107.5,231.556063 Z" id="Combined-Shape" stroke="#505050" stroke-width="5"></path>
        </g>
    </g>
</svg>