<svg width="16px" height="26px" viewBox="0 0 16 26" version="1.1" xmlns="http://www.w3.org/2000/svg" xmlns:xlink="http://www.w3.org/1999/xlink">
    <title>question-mark</title>
    <desc>Created with Sketch.</desc>
    <g id="Symbols" stroke="none" stroke-width="1" fill="none" fill-rule="evenodd">
        <g id="wireframe/icons/other" transform="translate(-6.000000, -1.000000)" fill="#404040" fill-rule="nonzero">
            <path d="M10.6854664,18 L10.6854664,16.739479 C10.6854664,15.6492931 10.9226296,14.7010728 11.3969631,13.8947896 C11.8712967,13.0885063 12.7389669,12.2311335 14,11.3226453 C15.2147566,10.4709376 16.0159055,9.77822578 16.4034707,9.24448898 C16.7910359,8.71075217 16.9848156,8.11456575 16.9848156,7.45591182 C16.9848156,6.71776518 16.7071611,6.15564655 16.1518438,5.76953908 C15.5965265,5.3834316 14.8214077,5.19038076 13.8264642,5.19038076 C12.0910976,5.19038076 10.1128094,5.74682142 7.89154013,6.85971944 L6,3.12925852 C8.57991167,1.70974574 11.3159653,1 14.208243,1 C16.5914797,1 18.4858932,1.56211863 19.8915401,2.68637275 C21.2971871,3.81062686 22,5.30960987 22,7.18336673 C22,8.43253798 21.7107766,9.5113515 21.132321,10.4198397 C20.5538655,11.3283279 19.4548165,12.3503617 17.835141,13.4859719 C16.7245064,14.2922552 16.0216934,14.9054755 15.7266811,15.3256513 C15.4316688,15.7458271 15.2841649,16.2965898 15.2841649,16.9779559 L15.2841649,18 L10.6854664,18 Z M10,24 C10,23.0117598 10.2571403,22.2647084 10.7714286,21.7588235 C11.2857169,21.2529386 12.0342808,21 13.0171429,21 C13.965719,21 14.6999974,21.2588209 15.22,21.7764706 C15.7400026,22.2941202 16,23.0352893 16,24 C16,24.9294164 15.7371455,25.661762 15.2114286,26.1970588 C14.6857117,26.7323556 13.9542904,27 13.0171429,27 C12.0571381,27 11.3142883,26.7382379 10.7885714,26.2147059 C10.2628545,25.6911739 10,24.9529459 10,24 Z" id="?"></path>
        </g>
    </g>
</svg>