<svg xmlns="http://www.w3.org/2000/svg" width="25" height="25" viewBox="0 0 25 25">
    <title>github-white</title>
    <path fill="#FFF" fill-rule="evenodd" d="M12.5 0C5.596 0 0 5.54 0 12.376c0 5.466 3.581 10.104 8.549 11.74.625.114.853-.268.853-.596 0-.294-.01-1.072-.017-2.105-3.476.748-4.21-1.659-4.21-1.659-.569-1.43-1.388-1.81-1.388-1.81-1.135-.767.086-.752.086-.752 1.254.088 1.914 1.275 1.914 1.275 1.115 1.891 2.925 1.345 3.638 1.03.114-.8.436-1.346.794-1.655-2.776-.313-5.694-1.375-5.694-6.116 0-1.351.487-2.456 1.287-3.32-.13-.314-.558-1.572.122-3.276 0 0 1.05-.333 3.438 1.269a12.086 12.086 0 0 1 3.129-.417c1.061.005 2.13.142 3.129.417 2.386-1.602 3.434-1.269 3.434-1.269.682 1.704.253 2.962.124 3.275.801.865 1.285 1.97 1.285 3.32 0 4.754-2.922 5.8-5.707 6.107.449.382.849 1.137.849 2.292 0 1.653-.016 2.988-.016 3.394 0 .33.225.716.86.595C21.42 22.475 25 17.84 25 12.375 25 5.54 19.403 0 12.5 0"/>
</svg>
