<svg version="1.1" xmlns="http://www.w3.org/2000/svg" width="32" height="32" viewBox="0 0 32 32">
<title>warning</title>
<path d="M16 3.719l12.572 25.056h-25.142l12.572-25.056zM16 1c-0.647 0-1.294 0.437-1.783 1.309l-12.804 25.521c-0.981 1.744-0.146 3.171 1.854 3.171h25.468c2.001 0 2.835-1.427 1.854-3.171v0l-12.804-25.521c-0.491-0.872-1.136-1.309-1.783-1.309v0z"></path>
<path d="M17.875 25.375c0 1.035-0.84 1.875-1.875 1.875s-1.875-0.84-1.875-1.875c0-1.035 0.84-1.875 1.875-1.875s1.875 0.84 1.875 1.875z"></path>
<path d="M16 21.625c-1.035 0-1.875-0.84-1.875-1.875v-5.625c0-1.035 0.84-1.875 1.875-1.875s1.875 0.84 1.875 1.875v5.625c0 1.035-0.84 1.875-1.875 1.875z"></path>
</svg>
