<svg xmlns="http://www.w3.org/2000/svg" xmlns:xlink="http://www.w3.org/1999/xlink" version="1.1" x="0px" y="0px" width="100px" height="100px" viewBox="0 0 100 100" enable-background="new 0 0 100 100" xml:space="preserve">
<g id="Captions">
	<rect x="-192" width="185" height="99"/>
	<rect y="-36" width="100" height="30"/>
	<text transform="matrix(1 0 0 1 66 -19.5)" fill="#000000" font-family="'Helvetica'" font-size="2.4">http://thenounproject.com</text>
	<text transform="matrix(1 0 0 1 7.166 -24.5)"><tspan x="0" y="0" fill="#000000" font-family="'Helvetica-Bold'" font-size="6.1578">The Noun Project</tspan><tspan x="1.12" y="4.8" fill="#000000" font-family="'Helvetica-Bold'" font-size="4">Icon Template</tspan></text>
	<text transform="matrix(1 0 0 1 -178.5 10.5)" fill="#000000" font-family="'Helvetica-Bold'" font-size="6.1578">Reminders</text>
	<line fill="#000000" stroke="#FFFFFF" stroke-miterlimit="10" x1="8" y1="-14.5" x2="18" y2="-14.5"/>
	<line fill="#000000" stroke="#FFFFFF" stroke-miterlimit="10" x1="-179" y1="16.5" x2="-162" y2="16.5"/>
	<g>
		<g>
			<g>
				<rect x="-170.802" y="31.318" fill="#000000" width="8.721" height="8.642"/>
				<path fill="#000000" d="M-164.455,42.312h4.747v-4.703h-4.747V42.312z M-159.266,42.749h-5.63V37.17h5.63V42.749      L-159.266,42.749z M-166.221,44.062h8.279v-8.203h-8.279V44.062L-166.221,44.062z M-157.5,44.5h-9.163v-9.079h9.163V44.5      L-157.5,44.5z"/>
				<polygon fill="#000000" points="-166.149,44.133 -166.292,43.991 -158.013,35.787 -157.871,35.929     "/>
			</g>
		</g>
	</g>
	<rect x="-179" y="58" fill="none" width="35" height="32.5"/>
	<text transform="matrix(1 0 0 1 -179 60.1572)"><tspan x="0" y="0" fill="#000000" font-family="'Helvetica-Bold'" font-size="3">Strokes</tspan><tspan x="0" y="5" fill="#000000" font-family="'Helvetica'" font-size="2.4">Try to keep strokes at 4px</tspan><tspan x="0" y="10" fill="#000000" font-family="'Helvetica'" font-size="2.4">Minimum stroke weight is 2px</tspan><tspan x="0" y="14.5" fill="#000000" font-family="'Helvetica'" font-size="2.4">For thicker strokes use even </tspan><tspan x="0" y="17.5" fill="#000000" font-family="'Helvetica'" font-size="2.4">numbers: 6px, 8px etc.</tspan><tspan x="0" y="22" fill="#000000" font-family="'Helvetica-Bold'" font-size="2.4">Remember to expand strokes </tspan><tspan x="0" y="25" fill="#000000" font-family="'Helvetica-Bold'" font-size="2.4">before saving as an SVG </tspan></text>
	<rect x="-136.5" y="58" fill="none" width="35" height="32.5"/>
	<text transform="matrix(1 0 0 1 -136.5 60.1572)"><tspan x="0" y="0" fill="#000000" font-family="'Helvetica-Bold'" font-size="3">Size</tspan><tspan x="0" y="5" fill="#000000" font-family="'Helvetica'" font-size="2.4">Cannot be wider or taller than </tspan><tspan x="0" y="8.5" fill="#000000" font-family="'Helvetica'" font-size="2.4">100px (artboar size)</tspan><tspan x="0" y="13.5" fill="#000000" font-family="'Helvetica'" font-size="2.4">Scale your icon to fill as much of </tspan><tspan x="0" y="16.5" fill="#000000" font-family="'Helvetica'" font-size="2.4">the Safe Area as possible (within </tspan><tspan x="0" y="19.5" fill="#000000" font-family="'Helvetica'" font-size="2.4">the guides)</tspan></text>
	<rect x="-94" y="58" fill="none" width="35" height="32.5"/>
	<text transform="matrix(1 0 0 1 -94 60.1572)"><tspan x="0" y="0" fill="#000000" font-family="'Helvetica-Bold'" font-size="3">Ungroup</tspan><tspan x="0" y="5" fill="#000000" font-family="'Helvetica'" font-size="2.4">If your design has more than one </tspan><tspan x="0" y="8" fill="#000000" font-family="'Helvetica'" font-size="2.4">shape, make sure to ungroup.</tspan></text>
	<rect x="-50" y="58" fill="none" width="35" height="32.5"/>
	<text transform="matrix(1 0 0 1 -50 60.1572)"><tspan x="0" y="0" fill="#000000" font-family="'Helvetica-Bold'" font-size="3">Save as</tspan><tspan x="0" y="5" fill="#000000" font-family="'Helvetica'" font-size="2.4">Save as .SVG and make sure </tspan><tspan x="0" y="8" fill="#000000" font-family="'Helvetica'" font-size="2.4">&#8220;Use Artboards&#8221; is checked.</tspan></text>
	<text transform="matrix(1.0074 0 0 1 -125.542 30.5933)" fill="#000000" font-family="'Helvetica'" font-size="2.5731">100px</text>
	<text transform="matrix(1.0074 0 0 1 -41 39)" fill="#000000" font-family="'Helvetica-Bold'" font-size="5.1462">.SVG</text>
	<rect x="-126.514" y="34.815" fill="#000000" width="10.261" height="10.185"/>
	<rect x="-126.477" y="31.766" fill="#000000" width="0.522" height="2.337"/>
	<rect x="-116.812" y="31.766" fill="#000000" width="0.523" height="2.337"/>
	<rect x="-127" y="32.337" fill="#000000" width="11.233" height="0.572"/>
	<g>
		<rect x="-83.805" y="33.844" fill="#000000" width="10.305" height="10.156"/>
		<rect x="-76.809" y="28.707" fill="#000000" width="3.308" height="3.261"/>
	</g>
	<rect x="-178.5" y="22.5" fill="#000000" stroke="#FFFFFF" stroke-miterlimit="10" width="30" height="30"/>
	<rect x="-136.5" y="22.5" fill="#000000" stroke="#FFFFFF" stroke-miterlimit="10" width="30" height="30"/>
	<rect x="-93.5" y="22.5" fill="#000000" stroke="#FFFFFF" stroke-miterlimit="10" width="30" height="30"/>
	<rect x="-49.5" y="22.5" fill="#000000" stroke="#FFFFFF" stroke-miterlimit="10" width="30" height="30"/>
</g>
<g id="Your_Icon">
	<path d="M163.978,74.001c13.279,13.277,34.808,13.277,48.085,0.001c13.277-13.279,13.277-34.807,0-48.086   c-13.277-13.276-34.806-13.276-48.085,0.002C150.7,39.195,150.702,60.723,163.978,74.001z M205.335,35.95   c0.007,0.055,0.016,0.109,0.02,0.164c0.01,0.101,0.015,0.206,0.015,0.314c0.001,0.003,0.001,0.007,0.001,0.01v24.026   c0,2.114-1.712,3.826-3.827,3.826c-2.112,0-3.825-1.713-3.825-3.824l0.002-14.797l-20.518,20.519c-1.494,1.494-3.917,1.494-5.411,0   c-1.494-1.493-1.493-3.917,0.001-5.411L192.31,40.26h-14.794c-2.114,0.001-3.828-1.712-3.827-3.827c0-2.11,1.713-3.823,3.824-3.823   l24.031,0c0.114,0,0.221,0.005,0.326,0.017c0.045,0.002,0.091,0.008,0.135,0.013c0.034,0.004,0.072,0.009,0.105,0.017   c0.782,0.116,1.534,0.47,2.138,1.072c0.604,0.605,0.958,1.359,1.076,2.143C205.328,35.898,205.33,35.924,205.335,35.95z"/>
	<path d="M49.979,83.96c18.779-0.001,34.001-15.223,34.001-34c0-18.778-15.222-34-34.001-34c-18.776,0-33.998,15.223-33.999,34.001   C15.979,68.738,31.203,83.959,49.979,83.96z M52.316,27.812c0.044,0.033,0.088,0.065,0.131,0.102   c0.078,0.064,0.156,0.135,0.232,0.212c0.003,0.001,0.006,0.005,0.008,0.007l16.988,16.988c1.495,1.495,1.495,3.917,0,5.412   c-1.494,1.493-3.916,1.493-5.409,0L53.805,40.07v29.015c0,2.112-1.713,3.826-3.826,3.826c-2.112,0-3.825-1.714-3.825-3.826V40.07   L35.692,50.531c-1.493,1.495-3.916,1.495-5.411,0c-1.492-1.493-1.492-3.915,0-5.408l16.994-16.992   c0.081-0.082,0.16-0.154,0.243-0.22c0.033-0.03,0.069-0.058,0.104-0.085c0.027-0.021,0.058-0.045,0.087-0.062   c0.635-0.472,1.417-0.752,2.27-0.754c0.855,0.002,1.639,0.284,2.275,0.755C52.275,27.779,52.295,27.797,52.316,27.812z"/>
	<path d="M292,50.02C292.001,68.787,307.214,84,325.979,84c18.767,0,33.98-15.213,33.98-33.98c0-18.765-15.214-33.978-33.981-33.979   C307.213,16.041,292.001,31.255,292,50.02z M348.114,52.356c-0.033,0.044-0.065,0.088-0.102,0.13   c-0.064,0.078-0.135,0.156-0.212,0.232c-0.001,0.003-0.005,0.006-0.007,0.008l-16.979,16.979c-1.494,1.494-3.914,1.494-5.408,0   c-1.492-1.493-1.492-3.914,0-5.406l10.457-10.455h-28.998c-2.111,0-3.824-1.712-3.824-3.824c0-2.11,1.713-3.822,3.824-3.822h28.998   l-10.455-10.455c-1.494-1.492-1.494-3.914,0-5.408c1.492-1.491,3.912-1.491,5.404,0l16.982,16.983   c0.082,0.081,0.153,0.16,0.22,0.243c0.03,0.033,0.058,0.069,0.085,0.104c0.021,0.027,0.045,0.058,0.062,0.087   c0.472,0.635,0.752,1.416,0.754,2.269c-0.002,0.854-0.283,1.638-0.755,2.274C348.147,52.315,348.13,52.335,348.114,52.356z"/>
	<path d="M439.938,25.958c-13.278,13.279-13.278,34.807-0.001,48.083c13.278,13.278,34.807,13.279,48.085,0   c13.277-13.276,13.277-34.804-0.002-48.083C474.743,12.68,453.216,12.682,439.938,25.958z M477.988,67.313   c-0.055,0.008-0.108,0.017-0.164,0.021c-0.101,0.01-0.205,0.015-0.313,0.015c-0.003,0.001-0.008,0-0.011,0h-24.026   c-2.114,0-3.826-1.712-3.826-3.827c0-2.111,1.713-3.824,3.824-3.824l14.797,0.001l-20.518-20.517c-1.493-1.494-1.494-3.917,0-5.412   c1.493-1.493,3.916-1.493,5.41,0.001l20.518,20.518V39.494c-0.002-2.112,1.712-3.826,3.827-3.826   c2.11,0.001,3.822,1.713,3.823,3.824l-0.001,24.031c0.001,0.115-0.005,0.223-0.017,0.328c-0.002,0.045-0.008,0.09-0.013,0.134   c-0.004,0.034-0.009,0.072-0.018,0.105c-0.115,0.782-0.47,1.534-1.072,2.138c-0.605,0.604-1.358,0.959-2.143,1.076   C478.041,67.309,478.015,67.31,477.988,67.313z"/>
	<path d="M464.021,153.959c-18.779,0.002-34.001,15.224-34.001,34c0,18.779,15.221,34.002,34.001,34.001   c18.776,0,33.998-15.222,33.999-34.002C498.021,169.181,482.798,153.961,464.021,153.959z M461.684,210.107   c-0.044-0.033-0.089-0.064-0.132-0.102c-0.078-0.064-0.155-0.135-0.231-0.212c-0.003-0.002-0.006-0.006-0.008-0.008l-16.988-16.988   c-1.495-1.495-1.495-3.915,0-5.411c1.493-1.493,3.915-1.493,5.408,0l10.463,10.463l-0.001-29.015   c0.001-2.113,1.714-3.826,3.826-3.826c2.111,0,3.824,1.713,3.824,3.826v29.016l10.463-10.462c1.492-1.495,3.916-1.495,5.411,0   c1.491,1.494,1.491,3.914,0,5.407l-16.993,16.992c-0.081,0.083-0.16,0.154-0.243,0.221c-0.033,0.03-0.07,0.058-0.104,0.086   c-0.027,0.021-0.058,0.045-0.088,0.062c-0.634,0.472-1.416,0.752-2.269,0.754c-0.856-0.002-1.639-0.282-2.276-0.754   C461.724,210.142,461.705,210.123,461.684,210.107z"/>
	<path d="M350.042,163.959c-13.28-13.277-34.807-13.277-48.084-0.001c-13.278,13.278-13.279,34.806,0.001,48.084   c13.277,13.277,34.804,13.277,48.084-0.002C363.32,198.764,363.318,177.237,350.042,163.959z M308.687,202.008   c-0.007-0.054-0.017-0.108-0.021-0.165c-0.01-0.101-0.015-0.205-0.015-0.313c0-0.003,0-0.008,0-0.011v-24.024   c0-2.115,1.712-3.826,3.827-3.827c2.11,0.001,3.823,1.714,3.823,3.824v14.798l20.516-20.518c1.495-1.494,3.918-1.494,5.411,0   c1.493,1.492,1.493,3.915-0.002,5.41l-20.517,20.517h14.797c2.111-0.001,3.825,1.713,3.826,3.826   c-0.002,2.111-1.714,3.822-3.824,3.824l-24.03-0.001c-0.116,0.001-0.223-0.004-0.329-0.017c-0.045-0.002-0.09-0.008-0.134-0.013   c-0.035-0.004-0.072-0.009-0.105-0.019c-0.782-0.114-1.534-0.469-2.139-1.07c-0.604-0.606-0.958-1.358-1.075-2.144   C308.691,202.061,308.691,202.034,308.687,202.008z"/>
	<path d="M222,188.001C221.998,169.222,206.776,154,188,154c-18.778,0-34.001,15.221-34,34.001   c0,18.776,15.222,33.998,34.002,33.999C206.778,222.001,221.998,206.777,222,188.001z M165.853,185.662   c0.033-0.042,0.064-0.088,0.103-0.131c0.063-0.078,0.134-0.155,0.211-0.231c0.002-0.003,0.006-0.006,0.008-0.008l16.987-16.988   c1.496-1.495,3.916-1.495,5.412,0c1.492,1.493,1.492,3.916,0,5.408l-10.464,10.463l29.015-0.001   c2.114,0.001,3.827,1.714,3.826,3.826c0.001,2.111-1.712,3.824-3.826,3.824h-29.016l10.463,10.463c1.494,1.492,1.494,3.916,0,5.411   c-1.494,1.491-3.914,1.491-5.408,0l-16.991-16.993c-0.083-0.081-0.154-0.16-0.221-0.244c-0.03-0.033-0.058-0.069-0.086-0.104   c-0.021-0.027-0.045-0.058-0.062-0.088c-0.472-0.634-0.753-1.416-0.755-2.269c0.002-0.855,0.283-1.638,0.755-2.276   C165.818,185.703,165.837,185.685,165.853,185.662z"/>
	<path d="M74.042,212.042c13.277-13.28,13.277-34.807,0.001-48.084c-13.278-13.278-34.806-13.279-48.084,0.001   c-13.277,13.277-13.277,34.804,0.002,48.084C39.237,225.32,60.764,225.317,74.042,212.042z M35.993,170.687   c0.054-0.007,0.108-0.017,0.165-0.021c0.101-0.01,0.205-0.015,0.313-0.015c0.003,0,0.008,0,0.011,0h24.024   c2.115,0,3.826,1.712,3.827,3.826c-0.001,2.111-1.714,3.824-3.824,3.824H45.712l20.518,20.516c1.494,1.495,1.494,3.918,0,5.411   c-1.492,1.493-3.915,1.493-5.41-0.002L40.303,183.71v14.797c0.001,2.111-1.713,3.825-3.826,3.826   c-2.111-0.002-3.822-1.714-3.824-3.824l0.001-24.031c-0.001-0.115,0.004-0.222,0.017-0.328c0.002-0.045,0.008-0.09,0.013-0.134   c0.004-0.035,0.009-0.073,0.019-0.105c0.114-0.782,0.469-1.534,1.07-2.139c0.606-0.604,1.358-0.958,2.144-1.075   C35.94,170.691,35.967,170.691,35.993,170.687z"/>
	<path d="M52.399,306.593c-0.069-0.069-0.138-0.132-0.206-0.189c-0.037-0.031-0.077-0.06-0.115-0.09   c-0.02-0.015-0.037-0.028-0.057-0.043c-0.565-0.42-1.263-0.67-2.021-0.671c-0.757,0.001-1.454,0.251-2.019,0.67   c-0.026,0.018-0.052,0.037-0.077,0.057c-0.03,0.025-0.062,0.048-0.093,0.075c-0.072,0.059-0.144,0.122-0.216,0.194L32.492,321.7   c-1.327,1.327-1.327,3.479,0,4.808c1.328,1.328,3.48,1.328,4.808,0l9.3-9.299L46.601,343c0,1.879,1.522,3.4,3.399,3.4   s3.399-1.521,3.399-3.4v-25.791l9.299,9.299c1.329,1.328,3.481,1.328,4.81,0s1.328-3.48,0-4.808l-15.102-15.103   C52.404,306.597,52.402,306.594,52.399,306.593z"/>
	<path d="M50,360c18.777,0,34-15.223,34-34s-15.223-34-34-34s-34,15.223-34,34S31.223,360,50,360z M50,298.8   c15.021,0,27.2,12.179,27.2,27.2S65.021,353.2,50,353.2S22.8,341.021,22.8,326S34.979,298.8,50,298.8z"/>
	<path d="M168.592,461.601c-0.068,0.069-0.131,0.138-0.189,0.206c-0.031,0.037-0.059,0.077-0.09,0.115   c-0.014,0.02-0.027,0.037-0.043,0.057c-0.42,0.565-0.67,1.263-0.67,2.021c0,0.758,0.25,1.454,0.67,2.019   c0.018,0.026,0.037,0.052,0.057,0.077c0.025,0.03,0.047,0.062,0.074,0.093c0.059,0.072,0.123,0.144,0.195,0.216l15.104,15.104   c1.328,1.327,3.48,1.327,4.809,0c1.328-1.328,1.328-3.48,0-4.808l-9.299-9.3L205,467.399c1.879,0,3.4-1.522,3.4-3.399   s-1.521-3.399-3.4-3.399h-25.791l9.299-9.3c1.328-1.328,1.328-3.48,0-4.809s-3.48-1.328-4.809,0l-15.102,15.102   C168.596,461.596,168.594,461.598,168.592,461.601z"/>
	<path d="M222,464c0-18.777-15.223-34-34-34s-34,15.223-34,34s15.223,34,34,34S222,482.777,222,464z M160.799,464   c0-15.021,12.18-27.2,27.201-27.2s27.199,12.179,27.199,27.2S203.021,491.2,188,491.2S160.799,479.021,160.799,464z"/>
	<path d="M203.419,313.973c0-0.098-0.004-0.19-0.012-0.279c-0.004-0.049-0.012-0.097-0.018-0.146   c-0.004-0.024-0.007-0.046-0.01-0.07c-0.103-0.696-0.419-1.366-0.955-1.903c-0.536-0.535-1.206-0.852-1.901-0.954   c-0.03-0.006-0.062-0.011-0.094-0.015c-0.04-0.003-0.078-0.01-0.119-0.012c-0.093-0.01-0.188-0.016-0.29-0.016l-21.36,0.001   c-1.877,0-3.398,1.521-3.399,3.399c0,1.878,1.521,3.4,3.399,3.399l13.151,0.001l-18.236,18.237   c-1.329,1.328-1.328,3.481-0.001,4.809s3.479,1.327,4.809-0.001l18.236-18.237v13.15c0.001,1.879,1.523,3.401,3.401,3.401   s3.4-1.522,3.399-3.399l0.001-21.357C203.42,313.979,203.421,313.976,203.419,313.973z"/>
	<path d="M163.958,350.041c13.277,13.277,34.806,13.277,48.083,0c13.277-13.278,13.277-34.806,0-48.084   c-13.277-13.277-34.806-13.277-48.083,0C150.681,315.235,150.681,336.763,163.958,350.041z M207.233,306.766   c10.621,10.622,10.621,27.845,0,38.467c-10.622,10.622-27.846,10.622-38.467,0c-10.622-10.622-10.622-27.845,0-38.467   C179.388,296.144,196.611,296.144,207.233,306.766z"/>
	<path d="M345.407,328.399c0.069-0.069,0.132-0.138,0.189-0.206c0.031-0.037,0.06-0.076,0.09-0.115   c0.015-0.02,0.028-0.037,0.043-0.057c0.42-0.564,0.67-1.262,0.671-2.021c-0.001-0.758-0.251-1.455-0.67-2.02   c-0.018-0.025-0.037-0.052-0.057-0.076c-0.025-0.03-0.048-0.062-0.075-0.093c-0.059-0.072-0.122-0.144-0.194-0.216L330.3,308.493   c-1.327-1.327-3.479-1.327-4.808,0s-1.329,3.479,0,4.808l9.299,9.3L309,322.602c-1.879-0.001-3.4,1.522-3.4,3.399   s1.521,3.398,3.4,3.399l25.791-0.001l-9.299,9.299c-1.328,1.329-1.328,3.482,0,4.811c1.328,1.327,3.48,1.327,4.808,0l15.103-15.102   C345.403,328.404,345.406,328.403,345.407,328.399z"/>
	<path d="M292,326.001C292,344.777,307.223,360,326,360s33.999-15.223,34-34c0-18.777-15.223-34-34-34   C307.223,292.001,292,307.223,292,326.001z M353.2,326.001c0,15.021-12.179,27.199-27.2,27.2c-15.021,0-27.2-12.18-27.2-27.2   c0-15.022,12.179-27.2,27.2-27.2C341.021,298.8,353.2,310.979,353.2,326.001z"/>
	<path d="M476.026,341.42c0.098,0,0.19-0.005,0.279-0.012c0.049-0.005,0.097-0.012,0.146-0.019c0.024-0.003,0.046-0.006,0.07-0.01   c0.696-0.102,1.366-0.418,1.903-0.954c0.535-0.536,0.852-1.206,0.954-1.901c0.006-0.03,0.011-0.063,0.014-0.094   c0.004-0.04,0.011-0.078,0.013-0.119c0.01-0.093,0.015-0.188,0.015-0.29V316.66c0-1.877-1.522-3.398-3.399-3.399   c-1.878-0.001-3.4,1.521-3.399,3.399l-0.001,13.152l-18.238-18.237c-1.327-1.329-3.48-1.328-4.808-0.001s-1.327,3.479,0.001,4.809   l18.237,18.237h-13.15c-1.879,0.001-3.401,1.523-3.401,3.401s1.522,3.399,3.399,3.399l21.357,0.001   C476.021,341.42,476.022,341.422,476.026,341.42z"/>
	<path d="M439.958,301.958c-13.277,13.277-13.277,34.806,0,48.084c13.278,13.277,34.806,13.276,48.084,0   c13.277-13.278,13.277-34.807,0-48.085C474.764,288.681,453.236,288.68,439.958,301.958z M483.232,345.234   c-10.621,10.621-27.844,10.621-38.467,0c-10.621-10.622-10.621-27.847,0-38.468c10.623-10.623,27.846-10.622,38.467,0   C493.855,317.388,493.855,334.611,483.232,345.234z"/>
	<path d="M461.6,483.407c0.069,0.069,0.139,0.132,0.206,0.189c0.038,0.031,0.077,0.06,0.116,0.09   c0.02,0.015,0.036,0.028,0.057,0.043c0.564,0.42,1.262,0.67,2.021,0.671c0.758-0.001,1.455-0.251,2.02-0.67   c0.025-0.018,0.052-0.037,0.075-0.057c0.031-0.025,0.063-0.048,0.094-0.075c0.072-0.059,0.143-0.122,0.215-0.194l15.105-15.105   c1.327-1.327,1.326-3.479,0-4.807c-1.327-1.329-3.479-1.33-4.808,0l-9.301,9.299l-0.001-25.792c0.001-1.878-1.521-3.4-3.398-3.4   s-3.399,1.522-3.399,3.401v25.791l-9.299-9.299c-1.329-1.328-3.482-1.328-4.811,0s-1.327,3.48,0,4.808l15.102,15.103   C461.596,483.403,461.596,483.406,461.6,483.407z"/>
	<path d="M464,429.999c-18.777,0-34,15.224-34.001,34.001C430,482.777,445.223,497.999,464,498c18.777,0,34-15.223,34.001-34.001   C498,445.223,482.778,429.999,464,429.999z M463.998,491.2c-15.021,0-27.198-12.179-27.2-27.2   c0.001-15.021,12.181-27.201,27.201-27.201c15.023,0,27.201,12.18,27.2,27.2C491.2,479.021,479.021,491.2,463.998,491.2z"/>
	<path d="M310.579,476.025c0,0.099,0.005,0.191,0.012,0.28c0.005,0.049,0.013,0.097,0.019,0.146c0.004,0.024,0.006,0.045,0.01,0.07   c0.103,0.696,0.419,1.366,0.955,1.903c0.536,0.535,1.206,0.852,1.901,0.954c0.03,0.006,0.062,0.01,0.093,0.013   c0.04,0.005,0.079,0.012,0.12,0.014c0.093,0.01,0.187,0.015,0.289,0.015h21.362c1.877,0,3.398-1.523,3.398-3.399   c0.002-1.878-1.52-3.4-3.399-3.399l-13.151-0.001l18.236-18.238c1.329-1.327,1.329-3.48,0.002-4.808s-3.48-1.327-4.809,0.001   l-18.237,18.237v-13.15c-0.001-1.879-1.523-3.401-3.401-3.402c-1.879,0-3.399,1.523-3.399,3.4l-0.001,21.357   C310.579,476.021,310.577,476.022,310.579,476.025z"/>
	<path d="M350.042,439.958c-13.277-13.278-34.807-13.277-48.085,0c-13.276,13.278-13.275,34.806,0.001,48.084   c13.277,13.277,34.806,13.277,48.085,0C363.319,474.764,363.32,453.236,350.042,439.958z M306.765,483.232   c-10.621-10.621-10.62-27.844,0-38.468c10.623-10.621,27.848-10.621,38.469,0c10.623,10.624,10.622,27.847,0,38.468   C334.611,493.855,317.388,493.855,306.765,483.232z"/>
	<path d="M37.975,447.58c-0.098,0-0.191,0.005-0.28,0.012c-0.049,0.005-0.097,0.012-0.146,0.019   c-0.024,0.003-0.046,0.006-0.071,0.01c-0.696,0.102-1.366,0.418-1.903,0.954c-0.535,0.536-0.852,1.206-0.955,1.901   c-0.005,0.03-0.01,0.063-0.013,0.094c-0.004,0.04-0.011,0.078-0.013,0.119c-0.01,0.093-0.015,0.188-0.015,0.289v21.362   c0,1.877,1.522,3.398,3.399,3.399c1.878,0.001,3.401-1.521,3.399-3.399l0.001-13.152l18.239,18.237   c1.326,1.328,3.48,1.328,4.807,0.001c1.328-1.327,1.328-3.48-0.002-4.809L46.188,454.38h13.15c1.879,0,3.402-1.523,3.402-3.401   s-1.523-3.399-3.4-3.399l-21.357-0.001C37.98,447.58,37.978,447.578,37.975,447.58z"/>
	<path d="M74.043,487.042c13.277-13.277,13.275-34.806,0-48.084c-13.279-13.277-34.806-13.276-48.084,0   c-13.278,13.278-13.278,34.807,0,48.085C39.236,500.319,60.764,500.32,74.043,487.042z M30.768,443.766   c10.621-10.621,27.843-10.621,38.466,0c10.621,10.622,10.621,27.847,0,38.468c-10.623,10.623-27.846,10.622-38.466,0   C20.145,471.611,20.145,454.389,30.768,443.766z"/>
</g>
</svg>