<svg class="wc-Hero-light" xmlns="http://www.w3.org/2000/svg" width="150.963" height="364.574" viewBox="34.401 7.713 150.963 364.574" enable-background="new 34.401 7.713 150.963 364.574"><path fill="#fff" d="M133.521 7.713h6v217h-6zM160.639 259.037v-8.049l-48.25 8.912v8.039l48.25-8.902zm0-18.437l-48.25 8.908v8.045l48.25-8.904v-8.049zm-3.293-1.731l.021-.303c0-1.955-.324-3.826-.893-5.603v-.006l-.236-.608c-.122-.347-.248-.697-.401-1.023l-.081-.217-.016.006c-3.156-7.033-10.637-11.975-19.377-11.975-9.489 0-17.506 5.825-20.104 13.823h29.438l-30.338 5.603-2.971.541v8.051l4.709-.873 40.249-7.416zm-69.408 91.895c2.258 24.445 19.693 41.523 48.583 41.523 28.889 0 46.321-17.105 48.586-41.523 1.838-24.713-6.401-32.399-17.34-48.338-3.49-5.041-5.69-10.535-7.104-15.703 0 0-32.912.391-32.983 0h-15.299c-1.414 5.166-3.613 10.662-7.102 15.703-10.946 15.937-19.182 23.625-17.341 48.338"/><path class="wc-Hero-lightFilament" fill="#E4BD0C" d="M157.014 306.473c-.207-.26-.445-.51-.699-2.287l-12.332-37.621-1.293.179c-.121 0-.812-.039-.935.002-.616.2-.384.918-.181 1.537l11.558 35.264c-2.807-1.366-6.313-1.993-9.178-1.082-.621.197-1.183.457-1.69.779l-4.927-1.461c-2.147 0-4.177.686-5.715 1.913-.86-.459-1.856-.838-2.968-1.118-3.279-.83-6.182-.629-8.596.553l11.422-34.846c.203-.619.44-1.568.319-1.572-2.616-.063-2.556.127-2.548.841l-12.531 38.229-.324.357c-.398.512-.312 1.25.199 1.647.512.397 1.247.312 1.646-.201 2.268-2.894 5.577-3.812 9.837-2.733.48.121 1.177.33 1.898.657-.707 1.111-1.058 2.371-1.002 3.648.105 2.551.974 4.42 2.377 5.133.824.418 1.732.367 2.492-.14 1.236-.823 1.838-2.694 1.648-5.131-.115-1.481-.76-2.799-1.864-3.879 1.915-1.197 4.802-1.326 6.862-.219-.782 1.104-1.237 2.496-1.326 4.121-.128 2.279.574 4.121 1.876 4.93.831.519 1.83.541 2.675.062 1.327-.752 2.062-2.554 2.024-4.941-.025-1.545-.622-2.995-1.611-4.188.171-.076.349-.146.537-.205 3.507-1.117 8.617.855 10.509 3.234.404.508 1.145.59 1.649.188.509-.406.592-1.144.192-1.65m-24.472 5.726l-.053.025-.074-.025c-.341-.174-1.009-1.053-1.095-3.141-.034-.789.185-1.57.625-2.275.652.621 1.134 1.414 1.209 2.416.14 1.807-.289 2.785-.612 3m10.017-.209l-.127.041-.154-.055c-.332-.205-.868-1.031-.771-2.806.062-1.116.335-2.041.815-2.771.658.795 1.058 1.738 1.072 2.725.031 1.872-.512 2.683-.835 2.866"/><path fill="#fff" d="M47.292 353.174s-9.883-1.646-11.082-8.432c-.631-3.574 1.321-5.719 3.082-6.031 1.827-.324 5.589 1.525 6.981 8.693l1.019 5.77M48.709 354.557s.228 3.187 2.151 3.642c0 0-.831 3.477-4.648 4.813-5.605 1.963-7.308-.41-7.571-1.9-.624-3.534 3.275-6.36 5.509-6.756 3.305-.585 4.559.201 4.559.201M50.901 351.043c-1.029.615-1.589 2.287-.801 4.506.829 2.332 4.63 4.92 7.363 3.027.867-.602.114-4.871-2.432-6.652-1.714-1.199-2.936-1.594-4.13-.881M59.718 346.414c-5.19.855-5.741 3.779-5.741 3.779s-.064-4.512 2.862-6.914l.69.779s-1.937 1.612-1.937 2.905c0 0 2.906-1.614 3.552-1.614"/><path fill="#fff" d="M38.136 361.439l.452 1.02-4.187 1.199z"/></svg>