<svg xmlns="http://www.w3.org/2000/svg" xmlns:xlink="http://www.w3.org/1999/xlink" version="1.1" id="Your_Icon" x="0px" y="0px" width="100px" height="100px" viewBox="0 0 100 100" enable-background="new 0 0 100 100" xml:space="preserve">
<path stroke="#000000" stroke-width="2" stroke-miterlimit="10" d="M-94.791,95.443l2.368,2.46c0,0,6.971-4.058,9.114-15.075  c0.521-2.676,1.34-5.64,6.39-8.778c0,0,6.529,14.672,31.672,12.143c0,0-5.56-2.544-5.644-6.99c0,0,10.045,3.723,17.003,0.672  c0,0-3.006-2.327-2.897-4.327c0,0,11.017-0.707,13.287-4.396l-4.097-1.679c0,0,8.012-3.996,10.464-9.575c0,0-7.72,1.07-15.489-4.414  c0,0,9.524-6.297,11.858-15.654c0,0-3.405,1.155-5.724-0.266c0,0,7.268-5.589,7.887-11.146l-5.107,2.455  c0,0,5.561-16.9,9.705-18.872c0,0-14.745,7.862-15.611,9.81l-0.083-4.445c0,0-7.963,9.59-9.444,9.297c0,0-2.216-6.312-1.239-8.331  c0,0-7.801,16.552-17.636,15.663c0,0-6.951-13.023-6.254-16.543c0,0-3.884,12.323-9.284,16.259  c-5.4,3.937-7.179,12.923-4.485,17.305c0,0-3.658-4.862-6.308-5.58c0,0-4.491,19.936,6.275,26.813c0,0-5.847,3.112-8.032,12.21  C-88.288,93.554-94.589,94.425-94.791,95.443z"/>
<path stroke="#000000" stroke-width="2" stroke-miterlimit="10" d="M-78.166,72.494c0.434-0.231,1.248,1.556,1.248,1.556  s-5.236,2.144-6.613,9.827c-1.378,7.683-8.058,14.194-8.891,14.026c-0.833-0.167-2.368-2.46-2.368-2.46s9.015-5.018,9.079-11.423  C-85.671,80.082-81.751,74.408-78.166,72.494z"/>
<path fill="#000000" stroke="#FFFFFF" stroke-width="2" stroke-miterlimit="10" d="M-75.432,69.949c0,0,16.229-10.047,28.181-21.118  c10.218-9.465,21.511-22.874,26.246-30.461"/>
<line fill="#000000" stroke="#FFFFFF" stroke-width="2" stroke-miterlimit="10" x1="-73.816" y1="68.924" x2="-69.211" y2="44.033"/>
<path fill="#000000" stroke="#FFFFFF" stroke-width="2" stroke-miterlimit="10" d="M-70.54,66.772c0,0,24.428,2.562,36.557-1.646"/>
<line fill="#000000" stroke="#FFFFFF" stroke-width="2" stroke-miterlimit="10" x1="-45.234" y1="46.925" x2="-41.726" y2="26.437"/>
<path fill="#000000" stroke="#FFFFFF" stroke-width="2" stroke-miterlimit="10" d="M-42.939,44.672c0,0,11.423,0.856,16.504-2.117"/>
<path d="M51.301,54.226c0,0-30.604-5.096-34.316-26.104c-1.956-11.071,4.091-17.712,9.542-18.679  c5.66-1.003,17.308,4.726,21.619,26.923C52.456,58.562,51.301,54.226,51.301,54.226z"/>
<path d="M55.689,58.51c0,0,0.706,9.863,6.662,11.274c0,0-2.574,10.769-14.393,14.908c-17.358,6.082-22.63-1.265-23.447-5.888  C22.58,67.861,34.653,59.112,41.572,57.89C51.802,56.083,55.689,58.51,55.689,58.51z"/>
<path d="M62.474,47.632c-3.186,1.904-4.922,7.083-2.479,13.954c2.566,7.22,14.337,15.231,22.799,9.369  c2.684-1.86,0.354-15.08-7.531-20.598C69.955,46.645,66.17,45.423,62.474,47.632z"/>
<path fill="none" stroke="#000000" stroke-width="3" stroke-miterlimit="10" d="M78.863,26C69.802,33.439,70,47.413,70,47.413  s1.707-9.058,17.778-11.702"/>
<polygon stroke="#000000" stroke-miterlimit="10" points="22.946,79.822 24.347,82.98 11.379,86.692 "/>
<path fill="#000000" d="M41.572,57.89c0,0-1.918,17.929,14.396,22.049c0,0-3.404,3.281-7.336,4.508c0,0-11.716-3.078-13.846-23.765  C34.786,60.682,38.114,58.375,41.572,57.89"/>
</svg>